<svg width="600" height="450" xmlns="http://www.w3.org/2000/svg" viewBox="0 0 600 450">
 <style type="text/css">
  .st1{fill:#0563C9;}
  .st3{fill:#1871E8;}
  .st4{font-weight:400;}
  .st5{font-size:16.3187px;}
  .st6{font-weight:700;}
  .st7{font-size:8px;}
  .st8{font-weight: 800;}
  .st9{font-size:16.8388px;}
  .st10{font-size:24.635px;}
  .st11{font-weight: 400;}
  .st12{font-size:16.3299px;}</style>

 <g>
  <title>background</title>
  <rect fill="none" id="canvas_background" height="450" width="600" y="-1" x="-1" class="grey-light" />
 </g>
 <g>
  <title>Layer 1</title>
  <g class="phone">
   <path d="m170.8,277.7l-93.1,0l0,-161.7l93.1,0l0,161.7z" class="white"/>
   <g class="phone_content" id="artist_content">
    <path d="m170.8,277.7l-93.1,0l0,-161.7l93.1,0l0,161.7z" class="white"/>
    <rect height="5.6" width="66.5" y="212.9" x="91.2" class="grey"/>
    <rect height="5.6" width="66.5" y="227.1" x="91.2" class="grey"/>
    <rect height="5.6" width="66.5" y="241.1" x="91.2" class="grey"/>
    <rect height="5.6" width="66.5" y="255.3" x="91.2" class="grey"/>
    <g >
     <path d="m88.3,195.7l72.1,0l0,-66.3l-72.1,0l0,66.3zm19.3,-39.8c0.4,0.1 0.8,0.3 1.2,0.4c-0.3,1.1 -0.4,2.2 -0.5,3.4c-0.5,-1.3 -0.7,-2.6 -0.7,-3.8zm-1.9,-3.3c3.4,-5 9.2,-8.8 13.8,-8.9c4.6,0 7.4,1.9 8.8,5.9c-2.3,3.6 -6.1,5.7 -10.3,5.7c-6,-0.2 -10.3,-1.1 -12.3,-2.7zm25,-1.4c2.1,1.2 3.3,4.4 3.4,7.5c-1.9,-1.9 -3.1,-4.6 -3.4,-7.5zm-20.3,9.1c0,-1.2 0.2,-2.4 0.4,-3.6c2.4,0.4 4.9,0.5 7.1,0.5c4.1,0 8,-1.8 10.7,-4.8c0.6,3 1.9,5.7 3.8,7.7c0,0.1 0,0.1 0,0.2c0,7.2 -4.9,13 -11,13s-11,-5.7 -11,-13zm-16.5,-25.2l60.9,0l0,55.1l-12,0l1.6,-9.6l-16.6,-5l0,-1.7c3.8,-2.3 6.4,-6.6 6.9,-11.7l1.4,1l0.2,-1.8c0.6,-5.3 -1.4,-11.2 -5.8,-12.4c-1.7,-4.8 -5.4,-7.3 -10.8,-7.3c-5.7,0.1 -12.4,4.6 -16.1,10.6l-0.4,0.6l0.5,0.6c0.5,0.7 1.2,1.2 2,1.7c0,0.3 0,0.5 0,0.8c0,3.2 1.4,6.8 3.6,9.6c1,3.2 2.8,5.9 5.2,7.7l0,2.5l-16.6,5l1.6,9.6l-5.2,0l0,-55.3l-0.4,0l0,0z"/>
     <path d="m113.3,163.1c0,1.9 1.6,3.5 3.5,3.5s3.5,-1.6 3.5,-3.5l0,-1l2.2,0l0,1c0,1.9 1.6,3.5 3.5,3.5s3.5,-1.6 3.5,-3.5l0,-1l1.3,0l0,-2.2l-1.3,0l-7,0l-2.2,0l-7,0l-1.3,0l0,2.2l1.3,0l0,1zm14,-1l0,1c0,0.7 -0.6,1.3 -1.3,1.3s-1.3,-0.6 -1.3,-1.3l0,-1l2.6,0zm-9.1,0l0,1c0,0.7 -0.6,1.3 -1.3,1.3c-0.7,0 -1.3,-0.6 -1.3,-1.3l0,-1l2.6,0z"/>
     <rect height="2.2" width="4.8" y="168.2" x="120.6" class="grey"/>
    </g>
   </g>
   
   <g class="phone_content" id="art_content">
    <path d="m170.8,277.7l-93.1,0l0,-161.7l93.1,0l0,161.7z" class="white"/>
    <rect height="5.6" width="53.3" y="202.6" x="98" class="grey"/>
    <rect height="5.6" width="66.4" y="224.1" x="91.6" class="grey"/>
    <rect height="5.6" width="66.4" y="238.2" x="91.6" class="grey"/>
    <rect height="5.6" width="66.4" y="252.2" x="91.6" class="grey"/>
    <rect height="5.6" width="66.4" y="266.5" x="91.6" class="grey"/>
    <path d="m98.2,123.7l0,66.3l53,0l0,-66.3l-53,0zm47.5,60.7l-41.9,0l0,-55.1l41.8,0l0,55.1l0.1,0z"/>
    <path d="m118.7,175.2c2.1,0.3 4.3,0.5 6.5,0.5s4.5,-0.2 6.5,-0.5l0,-3.1c-1.8,0.3 -4,0.5 -6.5,0.5c-2.6,0 -4.8,-0.2 -6.5,-0.5l0,3.1zm21,-0.2c0.5,0.5 0.8,1.1 0.8,1.7c0,3.2 -6.8,4.5 -12.3,4.8c-1,0.1 -1.9,0.1 -2.9,0.1c-0.2,0 -0.4,0 -0.6,0s-0.4,0 -0.6,0c-1,0 -1.9,0 -2.9,-0.1c-5.5,-0.4 -12.3,-1.6 -12.3,-4.8c0,-0.7 0.3,-1.2 0.8,-1.7l0,-18c0,1.1 0.8,2 2.2,2.7l0,17c0,0.7 4,2.8 12.8,2.8c8.3,0 12.8,-2 12.8,-2.8l0,-17c1.3,-0.7 2.2,-1.6 2.2,-2.7l0,18zm-30,-18l0,-17.6c-0.5,-0.5 -0.8,-1.1 -0.8,-1.7c0,-3.9 10.3,-5 15.8,-5s15.8,1 15.8,5c0,0.7 -0.3,1.2 -0.8,1.7l0,17.6c0,1.1 -0.8,2 -2.2,2.7c-1.9,1 -4.8,1.7 -8,2c-0.4,2.3 -2.4,4 -4.8,4s-4.3,-1.7 -4.8,-4c-3.2,-0.3 -6.1,-1 -8,-2c-1.5,-0.7 -2.2,-1.6 -2.2,-2.7zm17.6,3.8c0,-1.5 -1.2,-2.7 -2.7,-2.7s-2.7,1.2 -2.7,2.7s1.2,2.7 2.7,2.7c1.6,0 2.7,-1.2 2.7,-2.7zm7.4,-16c-2.1,0.7 -5.4,1.2 -10,1.2s-7.9,-0.6 -10,-1.2l0,5c2.8,0.8 6.5,1.2 10,1.2s7.2,-0.4 10,-1.2l0,-5zm0,-6c-0.1,0 -0.1,-0.1 -0.2,-0.1c-1.1,-0.6 -4.5,-1.5 -9.8,-1.5c-5.4,0 -8.7,0.8 -9.8,1.5c-0.1,0 -0.1,0.1 -0.2,0.1c0.9,0.6 4.3,1.6 10,1.6c5.6,0 9,-1 10,-1.6zm-23.7,-1.2c0,0.2 0.5,0.6 1.3,0.9c0.1,-0.9 0.9,-1.5 2.1,-2c3.3,-1.4 9.3,-1.5 10.2,-1.5s7,0.1 10.2,1.5c1.1,0.5 2,1.1 2.1,2c0.8,-0.4 1.2,-0.7 1.3,-0.9c0,-0.3 -0.6,-0.7 -1.6,-1.1c-2,-0.8 -6,-1.7 -12,-1.7s-10,0.9 -12,1.7c-0.9,0.5 -1.6,0.9 -1.6,1.1z"/>
   </g>
   
   <g id="content_mask">
    <rect height="200" width="150" y="-100" x="49" class="grey-light"/>
    <rect height="200" width="150" y="300" x="49" class="grey-light"/>
    <path d="m124.4,290.4c-2.5,0 -4.6,2.1 -4.6,4.6s2.1,4.6 4.6,4.6s4.6,-2.1 4.6,-4.6s-2.1,-4.6 -4.6,-4.6z" class="white"/>
    <path d="m124.4,284.8c-5.6,0 -10.2,4.6 -10.2,10.2c0,5.6 4.6,10.2 10.2,10.2s10.2,-4.6 10.2,-10.2c0,-5.6 -4.6,-10.2 -10.2,-10.2zm0,14.8c-2.5,0 -4.6,-2.1 -4.6,-4.6s2.1,-4.6 4.6,-4.6s4.6,2.1 4.6,4.6s-2.1,4.6 -4.6,4.6z"/>
    <path d="m72.1,283.3l104.3,0l0,-172.9l-104.3,0l0,172.9zm5.6,-167.3l93.1,0l0,161.7l-93.1,0l0,-161.7z"/>
    <path d="m172.6,95.1l-96.7,0c-4.7,0 -8.6,3.9 -8.6,8.6l0,194.5c0,4.7 3.9,8.6 8.6,8.6l96.7,0c2.3,0 4.5,-0.9 6.1,-2.6c1.6,-1.6 2.5,-3.8 2.5,-6.1l0,-194.4c0,-4.7 -3.9,-8.6 -8.6,-8.6zm-48.2,210.1c-5.6,0 -10.2,-4.6 -10.2,-10.2c0,-5.6 4.6,-10.2 10.2,-10.2s10.2,4.6 10.2,10.2c0,5.6 -4.6,10.2 -10.2,10.2zm52,-21.9l-104.3,0l0,-172.9l104.3,0l0,172.9l0,0z" class="white"/>
    <path d="m172.6,89.5l-96.7,0c-7.8,0 -14.2,6.4 -14.2,14.2l0,194.5c0,7.8 6.4,14.2 14.2,14.2l96.7,0c3.8,0 7.4,-1.5 10.1,-4.3c2.7,-2.7 4.1,-6.3 4.1,-10l0,-194.4c0,-7.8 -6.4,-14.2 -14.2,-14.2zm8.6,208.6c0,2.3 -0.8,4.4 -2.5,6.1c-1.6,1.7 -3.8,2.6 -6.1,2.6l-96.7,0c-4.7,0 -8.6,-3.9 -8.6,-8.6l0,-194.5c0,-4.7 3.9,-8.6 8.6,-8.6l96.7,0c4.7,0 8.6,3.9 8.6,8.6l0,194.4l0,0z"/>
   </g>
  </g>
  <g class="target" id="art">
   <g id="soup_can">
    <rect height="215" width="190" class="grey" x="295" y="95"/>
    <rect height="205" width="180" class="white" x="300" y="100"/>
    <rect height="172" width="156" class="grey" x="311" y="110"/>
    <path d="m459.8,277.2l-142.1,0l0,-161.7l142.1,0l0,161.7l0,0z" class="white"/>

    <path d="m371.7,242.3c5.4,0.8 11.3,1.2 17,1.2s11.6,-0.4 17,-1.2l0,-8.1c-4.6,0.7 -10.3,1.2 -17,1.2s-12.4,-0.5 -17,-1.2l0,8.1zm54.3,-0.6c1.3,1.3 2.1,2.8 2.1,4.5c0,8.3 -17.8,11.7 -32,12.6c-2.5,0.2 -5,0.3 -7.5,0.3c-0.5,0 -1,0 -1.5,0s-1,0 -1.5,0c-2.5,0 -5,-0.1 -7.5,-0.3c-14.3,-1 -32,-4.3 -32,-12.6c0,-1.7 0.8,-3.2 2.1,-4.5l0,-46.8c0,2.9 2.1,5.2 5.6,7.1l0,44.2c0,1.7 10.4,7.3 33.3,7.3c21.6,0 33.3,-5.2 33.3,-7.3l0,-44.2c3.5,-1.9 5.6,-4.3 5.6,-7.1l0,46.8zm-77.9,-46.8l0,-45.9c-1.3,-1.3 -2.1,-2.8 -2.1,-4.5c0,-10.2 26.8,-12.9 41,-12.9s41,2.7 41,12.9c0,1.7 -0.8,3.2 -2.1,4.5l0,45.9c0,2.9 -2.1,5.2 -5.6,7.1c-4.9,2.7 -12.6,4.4 -20.9,5.2c-1.1,5.9 -6.2,10.3 -12.4,10.3c-6.2,0 -11.3,-4.4 -12.4,-10.3c-8.3,-0.8 -16,-2.5 -20.9,-5.2c-3.4,-1.9 -5.6,-4.2 -5.6,-7.1zm45.9,10c0,-3.9 -3.1,-7 -7,-7c-3.9,0 -7,3.1 -7,7s3.1,7 7,7c3.9,0 7,-3.1 7,-7zm19.1,-41.6c-5.4,1.7 -14,3.2 -26,3.2c-12,0.1 -20.6,-1.5 -26,-3.2l0,13.1c7.3,2 16.8,3 26,3c9.2,0 18.7,-1 26,-3l0,-13.1zm0,-15.7c-0.1,-0.1 -0.3,-0.2 -0.5,-0.3c-2.9,-1.6 -11.7,-3.8 -25.6,-3.8c-13.9,0 -22.6,2.2 -25.6,3.8c-0.2,0.1 -0.3,0.2 -0.5,0.3c2.4,1.6 11.3,4.1 26.1,4.1s23.8,-2.5 26.1,-4.1zm-61.4,-3.1c0.1,0.6 1.2,1.5 3.3,2.5c0.3,-2.3 2.4,-4 5.4,-5.3c8.5,-3.7 24.2,-3.8 26.6,-3.8c2.4,0 18.1,0.1 26.6,3.8c3,1.3 5.1,3 5.4,5.3c2.1,-1 3.2,-1.9 3.3,-2.5c-0.1,-0.7 -1.5,-1.7 -4.2,-2.8c-5.3,-2.1 -15.5,-4.5 -31.2,-4.5s-26,2.3 -31.2,4.5c-2.5,1.1 -3.9,2.1 -4,2.8z"/>
   </g>
  </g>
  <g class="device_signal">
   <path d="m412.7,225.6l-8.6,-8.6c-0.7,-0.7 -0.7,-1.7 0,-2.3l8.6,-8.6c0.7,-0.7 1.7,-0.7 2.3,0l8.6,8.6c0.7,0.7 0.7,1.7 0,2.3l-8.6,8.6c-0.9,0.6 -1.9,0.6 -2.3,0zm-7.6,-18.6l2,-2c-2.3,-2 -4,-5 -4,-8.3c0,-5.6 4.6,-10.6 10.6,-10.6c2.6,0 5.3,1 7.3,3c2,2 3,4.6 3,7.3c0,3.3 -1.7,6.3 -4,8.3l2,2c3,-2.3 4.6,-6.3 4.6,-10.3c0,-3.6 -1.3,-7 -4,-9.6c-2.6,-2.6 -6,-4 -9.6,-4c-7.3,0 -13.6,6 -13.6,13.6c0.8,4.3 2.7,8.3 5.7,10.6zm-5.3,5.3l2,-2c-0.3,-0.3 -0.7,-0.7 -1,-0.7c-3.3,-3.3 -5.3,-7.9 -5.3,-12.6c0,-9.9 7.9,-17.9 17.9,-17.9c5,0 9.3,2 12.6,5.3c3.3,3.3 5.3,7.9 5.3,12.6c0,5.3 -2.3,10.3 -6,13.6l2,2c4.3,-4 7,-9.3 7,-15.6c0,-5.6 -2.3,-10.9 -6.3,-14.9c-4,-4 -9.3,-6.3 -14.9,-6.3c-11.6,0 -20.9,9.3 -20.9,20.9c0,5.6 2.3,10.9 6.3,14.9c0.7,0.1 1,0.4 1.3,0.7z" class="active" x="0" y="0" transform="translate(265, 232) scale(0.3)"/>
  </g>
 </g>
</svg>