<svg version="1.1" id="Layer_1" xmlns="http://www.w3.org/2000/svg" xmlns:xlink="http://www.w3.org/1999/xlink" x="0px" y="0px"
	 viewBox="0 0 1024 782.7" style="enable-background:new 0 0 1024 782.7;" xml:space="preserve">

<g id="explanatory_phone" class="phone" style="transform: translate3d(-10px, 0, 0);">
	<path class="white" d="M877.5,621.4H641.9c-6.3,0-11.4-5.1-11.4-11.4V163.2c0-6.3,5.1-11.4,11.4-11.4h235.6c6.3,0,11.4,5.1,11.4,11.4
		v446.7C889,616.2,883.8,621.4,877.5,621.4z"/>
	<path class="grey" d="M864.2,627.5h-209c-17,0-30.8-13.8-30.8-30.8V176.5c0-17,13.8-30.8,30.8-30.8h209c17,0,30.8,13.8,30.8,30.8
		v420.1C895,613.6,881.2,627.5,864.2,627.5z M655.2,157.9c-10.3,0-18.6,8.4-18.6,18.6v420.1c0,10.3,8.4,18.6,18.6,18.6h209
		c10.3,0,18.6-8.4,18.6-18.6V176.5c0-10.3-8.4-18.6-18.6-18.6H655.2z"/>
	<path class="grey" d="M872.5,564.5H647V190.9h225.5V564.5z M659.1,552.3h201.1V203H659.1V552.3z"/>
	<path class="grey" d="M760,611.9c-12.1,0-22-9.9-22-22s9.9-22,22-22s22,9.9,22,22S772.2,611.9,760,611.9z M760,580
		c-5.4,0-9.9,4.4-9.9,9.9c0,5.4,4.4,9.9,9.9,9.9c5.4,0,9.9-4.4,9.9-9.9C769.9,584.4,765.5,580,760,580z"/>
	<g id="explanatory_art_content" class="phone_content">
		<rect x="708.9" y="245.9" class="grey" width="101.7" height="108"/>
		<rect x="706" y="390.3" class="grey" width="108" height="12.2"/>
		<rect x="688.2" y="436.9" class="grey" width="143.6" height="12.2"/>
		<rect x="688.2" y="467.3" class="grey" width="143.6" height="12.2"/>
		<rect x="688.2" y="497.6" class="grey" width="143.6" height="12.2"/>
	</g>
	<g id="explanatory_meter_content" class="phone_content">
		<rect x="698.4" y="455.4" class="grey" width="123.3" height="68.8"/>
		<polygon class="grey" points="795.2,305.7 760,269.3 724.8,305.7 		"/>
		<polygon class="grey" points="724.8,347.6 760,384 795.2,347.6 		"/>
		<polygon class="white" points="760.4,513.4 739.9,494.3 748.2,485.4 759,495.4 779.7,468.8 789.3,476.3 		"/>
	</g>
	<g id="explanatory_pet_content" class="phone_content">
		<circle class="grey" cx="760" cy="322.1" r="61.6"/>
		<path class="grey" d="M727.8,459.6c-2.4,33.4,28.7,64.6,62.1,62.1l2.4-14.3l-16.7-4.8c-3.6-1.2-8.4,3.6-8.4,3.6
			c-9.5-2.3-21.5-14.3-23.9-23.9c0,0,4.8-4.8,3.7-8.4l-4.8-16.7L727.8,459.6z"/>
	</g>
	<rect x="660" y="200" width="200" height="60" style="fill: #bababa; opacity:1;"></rect>
	<g id="explanatory_phone_content" class="phone_content">
		
		<g id="beacon1">
			<rect x="660" y="260" class="grey-light" width="200" height="100"></rect>
			<rect x="730" y="300" class="grey" width="100" height="22"></rect>
		</g>
		<g id="beacon2">
			<rect x="730" y="400" class="grey" width="100" height="22"></rect>
		</g>
		<g id="beacon3">
			<rect x="660" y="460" class="grey-light" width="200" height="93"></rect>
			<rect x="730" y="495" class="grey" width="100" height="22"></rect>
		</g>
		<g id="explanatory_meter_phone" x="0" y="0" transform="translate(595, 270) scale(0.3)">
			<g>
				<path class="white" d="M376.1,113.1c0-30.9-25-55.9-55.9-55.9s-55.9,25-55.9,55.9c0,4.6,0.6,9,1.6,13.3h0L284,192
					c3.2,12.1,10.5,18.4,20.7,18.4h15.6h15.6c10.1,0,17.5-6.3,20.7-18.4l18.1-65.6h0C375.6,122.1,376.1,117.7,376.1,113.1z
					 M363.8,123.8l-3.3,13.7h0l-14.8,51.9c-2.7,10.1-7.8,10.1-9.9,10.1h-31.1c-2.2,0-7.3,0-9.9-10.1L280,137.4h0l-3.3-13.7
					c-0.9-3.5-1.3-7.1-1.3-10.7c0-24.7,20.1-44.9,44.9-44.9c24.7,0,44.9,20.1,44.9,44.9C365.1,116.7,364.7,120.3,363.8,123.8z"/>
				<circle class="white" cx="320.2" cy="112.6" r="44.4"/>
				<g>
					<path class="grey" d="M322.7,65.5c-0.8,0-1.6-0.1-2.4-0.1c-0.8,0-1.6,0-2.4,0.1c-25.2,1.3-45.2,22.1-45.2,47.6
						c0,3.8,0.5,7.7,1.4,11.4l2.5,10.2h-0.2L292,190c3.2,12.2,10.3,12.2,12.7,12.2h31.1c2.3,0,9.4,0,12.6-12.1l14.8-51.9l1-3.6H364
						l2.5-10.2c0.9-3.7,1.4-7.5,1.4-11.4C367.9,87.6,347.8,66.7,322.7,65.5z M278.7,112.6c0-22.2,17.5-40.4,39.4-41.5
						c0.7,0,1.4-0.1,2.1-0.1c0.7,0,1.4,0,2.1,0.1c21.9,1.1,39.4,19.3,39.4,41.5c0,22.9-18.6,41.6-41.6,41.6
						C297.3,154.2,278.7,135.5,278.7,112.6z M343,188.6c-2.1,8-5.4,8-7.2,8h-31.1c-1.8,0-5.1,0-7.2-8l-12.8-45
						c8.7,10,21.4,16.3,35.6,16.3c14.2,0,27-6.3,35.6-16.3L343,188.6z"/>
					<path class="grey" d="M379,113.1c0-32.4-26.3-58.7-58.7-58.7c-32.4,0-58.7,26.3-58.7,58.7c0,3.5,0.3,7,0.9,10.5h-0.2l19.1,69.2
						c3.5,13.2,11.8,20.5,23.4,20.5h31.1c11.6,0,19.9-7.3,23.4-20.5l18.1-65.6l1-3.6H378C378.6,120.1,379,116.6,379,113.1z
						 M371.8,125.7l-18.1,65.6c-2,7.4-6.7,16.3-17.9,16.3h-31.1c-11.3,0-16-8.9-17.9-16.4l-18.1-65.5l0-0.1c-1-4.1-1.5-8.4-1.5-12.6
						c0-29.3,23.8-53.1,53.1-53.1c29.3,0,53.1,23.8,53.1,53.1C373.3,117.3,372.8,121.6,371.8,125.7z"/>
				</g>
				<path class="grey" d="M354.2,115.9h-68l0-2.9c0-0.1,0-0.2,0-0.4c0-18.8,15.3-34.1,34.1-34.1c18.8,0,34.1,15.3,34.1,34.1
					c0,0.1,0,0.2,0,0.4L354.2,115.9z M291.9,110.3h56.7c-1.2-14.6-13.5-26.1-28.3-26.1C305.3,84.2,293.1,95.7,291.9,110.3z"/>
				<path class="grey" d="M309.9,100.9c0,1.6-0.3,2.8-0.8,3.6c-0.5,0.8-1.4,1.1-2.5,1.1c-1.1,0-1.9-0.4-2.5-1.2c-0.6-0.8-0.8-2-0.8-3.5
					c0-1.6,0.3-2.8,0.8-3.6c0.5-0.8,1.4-1.1,2.5-1.1c1.1,0,1.9,0.4,2.5,1.2S309.9,99.4,309.9,100.9z M305.7,100.9c0,1,0.1,1.7,0.2,2.1
					c0.1,0.4,0.3,0.6,0.7,0.6c0.3,0,0.5-0.2,0.7-0.6s0.2-1.1,0.2-2.1c0-1-0.1-1.7-0.2-2.1c-0.1-0.4-0.3-0.6-0.7-0.6s-0.5,0.2-0.7,0.6
					S305.7,99.9,305.7,100.9z"/>
				<path class="grey" d="M317.7,100.9c0,1.6-0.3,2.8-0.8,3.6s-1.4,1.1-2.5,1.1c-1.1,0-1.9-0.4-2.5-1.2c-0.6-0.8-0.8-2-0.8-3.5
					c0-1.6,0.3-2.8,0.8-3.6c0.5-0.8,1.4-1.1,2.5-1.1c1.1,0,1.9,0.4,2.5,1.2S317.7,99.4,317.7,100.9z M313.6,100.9c0,1,0.1,1.7,0.2,2.1
					c0.1,0.4,0.3,0.6,0.7,0.6c0.3,0,0.5-0.2,0.7-0.6c0.1-0.4,0.2-1.1,0.2-2.1c0-1-0.1-1.7-0.2-2.1c-0.1-0.4-0.3-0.6-0.7-0.6
					s-0.5,0.2-0.7,0.6S313.6,99.9,313.6,100.9z"/>
				<path class="grey" d="M318.9,99.5c0-0.4,0.1-0.7,0.3-0.9c0.2-0.2,0.6-0.3,1-0.3c0.4,0,0.7,0.1,1,0.3c0.2,0.2,0.3,0.5,0.3,0.9
					c0,0.4-0.1,0.7-0.3,0.9c-0.2,0.2-0.5,0.3-0.9,0.3c-0.4,0-0.8-0.1-1-0.3C319,100.2,318.9,99.9,318.9,99.5z M318.9,104.4
					c0-0.4,0.1-0.7,0.3-0.9c0.2-0.2,0.6-0.3,1-0.3c0.4,0,0.7,0.1,1,0.3s0.3,0.5,0.3,0.9c0,0.4-0.1,0.7-0.3,0.9
					c-0.2,0.2-0.5,0.3-0.9,0.3c-0.4,0-0.7-0.1-1-0.3C319,105.1,318.9,104.8,318.9,104.4z"/>
				<path class="grey" d="M329.3,100.9c0,1.6-0.3,2.8-0.8,3.6c-0.5,0.8-1.4,1.1-2.5,1.1c-1.1,0-1.9-0.4-2.5-1.2c-0.6-0.8-0.8-2-0.8-3.5
					c0-1.6,0.3-2.8,0.8-3.6c0.5-0.8,1.4-1.1,2.5-1.1c1.1,0,1.9,0.4,2.5,1.2C329.1,98.2,329.3,99.4,329.3,100.9z M325.2,100.9
					c0,1,0.1,1.7,0.2,2.1c0.1,0.4,0.3,0.6,0.7,0.6c0.3,0,0.5-0.2,0.7-0.6c0.1-0.4,0.2-1.1,0.2-2.1c0-1-0.1-1.7-0.2-2.1
					c-0.1-0.4-0.3-0.6-0.7-0.6s-0.5,0.2-0.7,0.6S325.2,99.9,325.2,100.9z"/>
				<path class="grey" d="M337.2,100.9c0,1.6-0.3,2.8-0.8,3.6c-0.5,0.8-1.4,1.1-2.5,1.1c-1.1,0-1.9-0.4-2.5-1.2c-0.6-0.8-0.8-2-0.8-3.5
					c0-1.6,0.3-2.8,0.8-3.6c0.5-0.8,1.4-1.1,2.5-1.1c1.1,0,1.9,0.4,2.5,1.2S337.2,99.4,337.2,100.9z M333,100.9c0,1,0.1,1.7,0.2,2.1
					c0.1,0.4,0.3,0.6,0.7,0.6c0.3,0,0.5-0.2,0.7-0.6s0.2-1.1,0.2-2.1c0-1-0.1-1.7-0.2-2.1c-0.1-0.4-0.3-0.6-0.7-0.6s-0.5,0.2-0.7,0.6
					S333,99.9,333,100.9z"/>
				<rect x="314.7" y="192.7" class="white" width="11.1" height="31.2"/>
				<path class="grey" d="M328.6,226.7h-16.7v-36.8h16.7V226.7z M317.5,221.1h5.4v-25.6h-5.4V221.1z"/>
			</g>
		</g>
		<g id="explanatory_pet_phone" x="0" y="0" transform="translate(595, 295) scale(.3)">
			<g>
				<path class="white" d="M377.5,372.9c-10.9-9.6-8.7-18.6-14-23.8c-3.1-3.1-7.9-0.5-12.1-1.8c-8.4-2.6-14.2-9.7-31.3-9.7
					s-22.8,7.2-31.3,9.7c-4.2,1.3-9-1.3-12.1,1.8c-5.3,5.3-3,14.3-14,23.8c-10.9,9.6-8.3,13.9-4,18.2c4.3,4.3,22.6,18.9,24.9,21.8
					c0.5,0.7,0.9,1.2,1.3,1.8c3.5,5.5-2.3,4.1-4.3,6c-0.2,0.1-0.4,0.3-0.5,0.4c1.2,0.9,2.4,1.9,3.6,3c11.5,11.5,20.8,15.5,36.7,15.5
					c14.9,0,25.4-3.8,40.6-18.3c-0.3-0.2-0.6-0.4-0.8-0.7c-4.7-4-7.2-6.6-5.7-8.7c0.8-1.1,2.5-2.1,5.6-3.1c6.4-2.1,17-13.4,21.4-17.7
					C385.9,386.8,388.5,382.4,377.5,372.9z"/>
				<g>
					<path class="grey" d="M320.2,391.6c-6.8,0-9.9-4.9-9.9-9.5c0-5.1,3.4-5.5,6.8-5.5h6.1c3.4,0,6.8,0.4,6.8,5.5
						C330.1,386.7,327,391.6,320.2,391.6z M316,382.3c0.1,3.3,3,3.7,4.3,3.7s4.2-0.4,4.3-3.7c-0.3,0-0.7,0-1.2,0h-6.1
						C316.6,382.3,316.2,382.3,316,382.3z"/>
				</g>
				<g>
					<g>
						<path class="grey" d="M299.2,370.6l-4.7-3.1c1.9-2.9,5.1-4.6,8.6-4.6c2.4,0,4.8,0.9,6.7,2.5l-3.7,4.3c-0.8-0.7-1.9-1.1-3-1.1
							C301.5,368.5,300.1,369.3,299.2,370.6z"/>
					</g>
					<g>
						<path class="grey" d="M341.2,370.6c-0.9-1.3-2.3-2.1-3.9-2.1c-1.1,0-2.2,0.4-3,1.1l-3.7-4.3c1.9-1.6,4.2-2.5,6.7-2.5
							c3.5,0,6.7,1.7,8.6,4.6L341.2,370.6z"/>
					</g>
				</g>
				<path class="grey" d="M379.4,370.8c-6-5.2-7.6-10.2-9.1-14.6c-1.1-3.3-2.1-6.5-4.7-9.1c-2.7-2.7-6.2-2.5-9-2.3
					c-1.6,0.1-3,0.2-4.2-0.2c-2.4-0.7-4.6-1.9-7.1-3.2c-5.6-2.9-12.5-6.6-24.8-6.7c-0.1,0-0.1,0-0.2,0c-0.1,0-0.1,0-0.2,0
					c-12.3,0-19.3,3.7-24.8,6.7c-2.5,1.3-4.7,2.5-7.1,3.2c-1.2,0.4-2.7,0.3-4.2,0.2c-2.8-0.2-6.3-0.4-9,2.3c-2.6,2.6-3.6,5.8-4.7,9.1
					c-1.5,4.4-3.1,9.4-9.1,14.6c-5.8,5.1-8.6,9.3-8.7,13.3c-0.1,3.8,2.1,6.6,4.6,9.1c3.7,3.7,7.4,7.8,9.9,11c3.5,4.4,7.8,6.8,11.8,6.7
					l-0.1,0.2l4.6,3.7l-6.1,5.9l1.6,2c10.1,12.6,26.1,20.2,42.7,20.2c16.1,0,31.2-7.3,41.4-20l1.6-2l-6.1-5.7l5.1-4.3
					c3.6-0.4,7.3-2.7,10.4-6.6c2.6-3.3,6.2-7.3,9.9-11c2.4-2.4,4.7-5.2,4.6-9.1C388,380,385.2,375.8,379.4,370.8z M379.6,389.1
					c-5.3,5.3-8.8,9.5-10.4,11.5c-2.6,3.3-5.9,5.1-8,4.4c-2.4-0.8-4.1-5-4.4-11.4c-0.3-5.2-0.5-18.3,3.6-28.5l-5.2-2.1
					c-4.5,11.2-4.3,25.3-4,30.9c0.5,8.6,2.9,12.8,5.5,14.9l-7.1,6l6.9,6.4c-9.1,10.3-21.6,15.9-35.3,15.9c-13.8,0-27.6-6.1-36.6-16.1
					l6.9-6.6l-7.3-5.9c2.4-2.2,4.6-6.5,5-14.5c0.3-5.5,0.5-19.6-3.9-30.9l-5.2,2.1c4.1,10.2,3.8,23.3,3.6,28.5
					c-0.3,6.4-2,10.6-4.4,11.4c-2.1,0.7-5.4-1.1-8-4.4c-1.6-2-5.1-6.2-10.4-11.5c-2.2-2.2-3-3.5-2.9-4.9c0.1-1.6,1.3-4.4,6.8-9.2
					c7.1-6.2,9.1-12.2,10.7-17.1c1-2.9,1.7-5.2,3.4-6.9c0.9-0.9,2.3-0.8,4.7-0.7c1.9,0.1,4.1,0.3,6.2-0.4c2.9-0.9,5.4-2.2,8.1-3.6
					c5.6-2.9,11.3-6,22.3-6l0,0l0,0c11,0,16.8,3.1,22.3,6c2.7,1.4,5.2,2.7,8.1,3.6c2.2,0.7,4.3,0.5,6.2,0.4c2.4-0.2,3.8-0.2,4.7,0.7
					c1.7,1.7,2.4,4,3.4,6.9c1.6,4.8,3.6,10.9,10.7,17.1c5.5,4.8,6.7,7.7,6.8,9.2C382.5,385.6,381.7,386.9,379.6,389.1z"/>
				<path class="grey" d="M341.9,393.5c0,0.4-0.9,8.6-6.7,8.6c-3.6,0-5.5-1.9-7.6-4c-1.9-1.9-4-4.1-7.3-4.1s-5.4,2.2-7.3,4.1
					c-2.1,2.2-4,4-7.6,4c-5.8,0-6.7-8.3-6.7-8.6l-5.6,0.5c0.4,4.8,3.6,13.7,12.3,13.7c1.8,0,3.4-0.3,4.7-0.8c0.9,4.8,5.2,8.4,10.2,8.4
					s9.3-3.6,10.2-8.4c1.4,0.5,2.9,0.8,4.7,0.8c8.7,0,11.9-9,12.3-13.7L341.9,393.5z M325,405c0,2.7-2.2,4.8-4.8,4.8s-4.8-2.2-4.8-4.8
					v-1.4c0.5-0.5,1-1,1.5-1.5c1.5-1.5,2.4-2.4,3.3-2.4s1.9,0.9,3.3,2.4c0.5,0.5,0.9,1,1.5,1.5V405z"/>
			</g>
		</g>
		<g id="explanatory_art_phone" x="0" y="0" transform="translate(595, 315) scale(.3)">
			<g>
				<rect x="255.2" y="563" class="white" width="130.1" height="147.9"/>
				<path class="grey" d="M388.1,713.7H252.3V560.1h135.8V713.7z M258,708.1h124.5V565.8H258V708.1z"/>
				<path class="grey" d="M379,704.6H261.4V569.2H379V704.6z M267,699h106.4V574.8H267V699z"/>
				<path class="grey" d="M304.8,674.7c4.9,0.7,10.2,1,15.4,1s10.5-0.3,15.4-1v-7.3c-4.2,0.7-9.3,1.1-15.4,1.1c-6.1,0-11.2-0.4-15.4-1.1
					V674.7z"/>
				<path class="grey" d="M355.5,601.7v-7c1.3-1.3,2.1-2.8,2.1-4.5c0-9.4-23.5-11.9-37.4-11.9s-37.4,2.5-37.4,11.9
					c0,1.7,0.8,3.2,2.1,4.5v7l-0.3,76.5c-1.2,1.2-1.9,2.6-1.9,4.2c0,8.7,19.9,11.5,33.9,11.9c0.1,0,0.2,0,0.3,0c1.1,0,2.2,0,3.2,0
					s2.1,0,3.2,0c0.1,0,0.2,0,0.3,0c14-0.4,33.9-3.2,33.9-11.9c0-1.6-0.7-3-1.9-4.2L355.5,601.7z M351.6,589.7c-0.3,0-0.6-0.1-0.9-0.1
					c-0.9,0-1.7,0.2-2.2,0.5c-4.8-5.8-24-6.1-28.3-6.1s-23.4,0.3-28.3,6.1c-0.5-0.3-1.2-0.5-2.2-0.5c-0.3,0-0.6,0-0.9,0.1
					c2.2-2.1,12.5-5.8,31.4-5.8S349.4,587.6,351.6,589.7z M320.2,621.8c-8.3,0-16.9-0.9-23.6-2.7v-11.8c4.9,1.5,12.7,2.9,23.6,2.9
					c10.9,0,18.6-1.4,23.6-2.9v11.8C337.1,621,328.5,621.8,320.2,621.8z M326.3,644.9c0,3.3-2.7,6-6,6s-6-2.7-6-6c0-3.3,2.7-6,6-6
					S326.3,641.6,326.3,644.9z M297.1,593.1c2.6-1.4,10.5-3.4,23.1-3.4s20.6,2,23.1,3.4c-2.6,1.4-10.5,3.4-23.1,3.4
					S299.7,594.5,297.1,593.1z M320.2,688.7c-18.3,0-29.3-4.2-29.9-6.3v-40c4.4,2.3,11.1,3.8,18.4,4.5c0.9,5.5,5.7,9.7,11.5,9.7
					c5.8,0,10.5-4.2,11.5-9.7c7.3-0.7,14-2.2,18.4-4.5l0,39.9C349.6,684.5,338.5,688.7,320.2,688.7z"/>
			</g>
		</g>
	</g>
</g>
<g id="explanatory_signal1" class="device_signal" x="0" y="0" transform="translate(0, -215)">
	<path  d="M419.7,388.7c0,6.8-1.9,13.3-5.2,18.7l4.8,2.9c3.8-6.3,6-13.7,6-21.6c0-7.9-2.2-15.3-6-21.6l-4.8,2.9
		C417.8,375.5,419.7,381.9,419.7,388.7z"/>
	<path d="M449.8,388.7c0,12.5-3.4,24.1-9.4,34.1l4.8,2.9c6.5-10.8,10.2-23.5,10.2-37c0-13.5-3.7-26.1-10.2-37l-4.8,2.9
		C446.4,364.6,449.8,376.3,449.8,388.7z"/>
	<path  d="M479.9,388.7c0,18.1-5,35-13.6,49.5l4.8,2.9c9.1-15.3,14.4-33.2,14.4-52.3c0-19.1-5.3-37-14.4-52.3l-4.8,2.9
		C474.9,353.8,479.9,370.7,479.9,388.7z"/>	
	<path d="M509.9,388.7c0,23.7-6.5,45.8-17.8,64.8l4.8,2.9c11.8-19.8,18.6-43,18.6-67.7c0-24.7-6.8-47.9-18.6-67.7
		l-4.8,2.9C503.4,342.9,509.9,365.1,509.9,388.7z"/>
	<path  d="M540,388.7c0,29.3-8.1,56.7-22.1,80.2l4.8,2.9c14.5-24.3,22.9-52.7,22.9-83c0-30.3-8.4-58.7-22.9-83l-4.8,2.9
		C531.9,332,540,359.5,540,388.7z"/>		
	<path d="M570,388.7c0,34.9-9.6,67.6-26.3,95.5l4.8,2.9c17.2-28.8,27.1-62.5,27.1-98.4c0-35.9-9.9-69.6-27.1-98.4
		l-4.8,2.9C560.4,321.2,570,353.9,570,388.7z"/>
</g>
<g id="explanatory_signal2" class="device_signal" x="0" y="0">
	<path  d="M419.7,388.7c0,6.8-1.9,13.3-5.2,18.7l4.8,2.9c3.8-6.3,6-13.7,6-21.6c0-7.9-2.2-15.3-6-21.6l-4.8,2.9
		C417.8,375.5,419.7,381.9,419.7,388.7z"/>
	<path d="M449.8,388.7c0,12.5-3.4,24.1-9.4,34.1l4.8,2.9c6.5-10.8,10.2-23.5,10.2-37c0-13.5-3.7-26.1-10.2-37l-4.8,2.9
		C446.4,364.6,449.8,376.3,449.8,388.7z"/>
	<path  d="M479.9,388.7c0,18.1-5,35-13.6,49.5l4.8,2.9c9.1-15.3,14.4-33.2,14.4-52.3c0-19.1-5.3-37-14.4-52.3l-4.8,2.9
		C474.9,353.8,479.9,370.7,479.9,388.7z"/>	
	<path d="M509.9,388.7c0,23.7-6.5,45.8-17.8,64.8l4.8,2.9c11.8-19.8,18.6-43,18.6-67.7c0-24.7-6.8-47.9-18.6-67.7
		l-4.8,2.9C503.4,342.9,509.9,365.1,509.9,388.7z"/>
	<path  d="M540,388.7c0,29.3-8.1,56.7-22.1,80.2l4.8,2.9c14.5-24.3,22.9-52.7,22.9-83c0-30.3-8.4-58.7-22.9-83l-4.8,2.9
		C531.9,332,540,359.5,540,388.7z"/>		
	<path d="M570,388.7c0,34.9-9.6,67.6-26.3,95.5l4.8,2.9c17.2-28.8,27.1-62.5,27.1-98.4c0-35.9-9.9-69.6-27.1-98.4
		l-4.8,2.9C560.4,321.2,570,353.9,570,388.7z"/>
</g>
<g id="explanatory_signal3" class="device_signal" x="0" y="0" transform="translate(0, 215)">
	<path  d="M419.7,388.7c0,6.8-1.9,13.3-5.2,18.7l4.8,2.9c3.8-6.3,6-13.7,6-21.6c0-7.9-2.2-15.3-6-21.6l-4.8,2.9
		C417.8,375.5,419.7,381.9,419.7,388.7z"/>
	<path d="M449.8,388.7c0,12.5-3.4,24.1-9.4,34.1l4.8,2.9c6.5-10.8,10.2-23.5,10.2-37c0-13.5-3.7-26.1-10.2-37l-4.8,2.9
		C446.4,364.6,449.8,376.3,449.8,388.7z"/>
	<path  d="M479.9,388.7c0,18.1-5,35-13.6,49.5l4.8,2.9c9.1-15.3,14.4-33.2,14.4-52.3c0-19.1-5.3-37-14.4-52.3l-4.8,2.9
		C474.9,353.8,479.9,370.7,479.9,388.7z"/>	
	<path d="M509.9,388.7c0,23.7-6.5,45.8-17.8,64.8l4.8,2.9c11.8-19.8,18.6-43,18.6-67.7c0-24.7-6.8-47.9-18.6-67.7
		l-4.8,2.9C503.4,342.9,509.9,365.1,509.9,388.7z"/>
	<path  d="M540,388.7c0,29.3-8.1,56.7-22.1,80.2l4.8,2.9c14.5-24.3,22.9-52.7,22.9-83c0-30.3-8.4-58.7-22.9-83l-4.8,2.9
		C531.9,332,540,359.5,540,388.7z"/>		
	<path d="M570,388.7c0,34.9-9.6,67.6-26.3,95.5l4.8,2.9c17.2-28.8,27.1-62.5,27.1-98.4c0-35.9-9.9-69.6-27.1-98.4
		l-4.8,2.9C560.4,321.2,570,353.9,570,388.7z"/>
</g>
<g id="explanatory_meter">
	<g style="transform: translate3d(-18px, 50px, 0); -ms-transform:translate(-18px, 50px);">
		<path class="white" d="M376.1,113.1c0-30.9-25-55.9-55.9-55.9s-55.9,25-55.9,55.9c0,4.6,0.6,9,1.6,13.3h0L284,192
			c3.2,12.1,10.5,18.4,20.7,18.4h15.6h15.6c10.1,0,17.5-6.3,20.7-18.4l18.1-65.6h0C375.6,122.1,376.1,117.7,376.1,113.1z
			 M363.8,123.8l-3.3,13.7h0l-14.8,51.9c-2.7,10.1-7.8,10.1-9.9,10.1h-31.1c-2.2,0-7.3,0-9.9-10.1L280,137.4h0l-3.3-13.7
			c-0.9-3.5-1.3-7.1-1.3-10.7c0-24.7,20.1-44.9,44.9-44.9c24.7,0,44.9,20.1,44.9,44.9C365.1,116.7,364.7,120.3,363.8,123.8z"/>
		<circle class="white" cx="320.2" cy="112.6" r="44.4"/>
		<g>
			<path class="grey" d="M322.7,65.5c-0.8,0-1.6-0.1-2.4-0.1c-0.8,0-1.6,0-2.4,0.1c-25.2,1.3-45.2,22.1-45.2,47.6
				c0,3.8,0.5,7.7,1.4,11.4l2.5,10.2h-0.2L292,190c3.2,12.2,10.3,12.2,12.7,12.2h31.1c2.3,0,9.4,0,12.6-12.1l14.8-51.9l1-3.6H364
				l2.5-10.2c0.9-3.7,1.4-7.5,1.4-11.4C367.9,87.6,347.8,66.7,322.7,65.5z M278.7,112.6c0-22.2,17.5-40.4,39.4-41.5
				c0.7,0,1.4-0.1,2.1-0.1c0.7,0,1.4,0,2.1,0.1c21.9,1.1,39.4,19.3,39.4,41.5c0,22.9-18.6,41.6-41.6,41.6
				C297.3,154.2,278.7,135.5,278.7,112.6z M343,188.6c-2.1,8-5.4,8-7.2,8h-31.1c-1.8,0-5.1,0-7.2-8l-12.8-45
				c8.7,10,21.4,16.3,35.6,16.3c14.2,0,27-6.3,35.6-16.3L343,188.6z"/>
			<path class="grey" d="M379,113.1c0-32.4-26.3-58.7-58.7-58.7c-32.4,0-58.7,26.3-58.7,58.7c0,3.5,0.3,7,0.9,10.5h-0.2l19.1,69.2
				c3.5,13.2,11.8,20.5,23.4,20.5h31.1c11.6,0,19.9-7.3,23.4-20.5l18.1-65.6l1-3.6H378C378.6,120.1,379,116.6,379,113.1z
				 M371.8,125.7l-18.1,65.6c-2,7.4-6.7,16.3-17.9,16.3h-31.1c-11.3,0-16-8.9-17.9-16.4l-18.1-65.5l0-0.1c-1-4.1-1.5-8.4-1.5-12.6
				c0-29.3,23.8-53.1,53.1-53.1c29.3,0,53.1,23.8,53.1,53.1C373.3,117.3,372.8,121.6,371.8,125.7z"/>
		</g>
		<path class="grey" d="M354.2,115.9h-68l0-2.9c0-0.1,0-0.2,0-0.4c0-18.8,15.3-34.1,34.1-34.1c18.8,0,34.1,15.3,34.1,34.1
			c0,0.1,0,0.2,0,0.4L354.2,115.9z M291.9,110.3h56.7c-1.2-14.6-13.5-26.1-28.3-26.1C305.3,84.2,293.1,95.7,291.9,110.3z"/>
		<path class="grey" d="M309.9,100.9c0,1.6-0.3,2.8-0.8,3.6c-0.5,0.8-1.4,1.1-2.5,1.1c-1.1,0-1.9-0.4-2.5-1.2c-0.6-0.8-0.8-2-0.8-3.5
			c0-1.6,0.3-2.8,0.8-3.6c0.5-0.8,1.4-1.1,2.5-1.1c1.1,0,1.9,0.4,2.5,1.2S309.9,99.4,309.9,100.9z M305.7,100.9c0,1,0.1,1.7,0.2,2.1
			c0.1,0.4,0.3,0.6,0.7,0.6c0.3,0,0.5-0.2,0.7-0.6s0.2-1.1,0.2-2.1c0-1-0.1-1.7-0.2-2.1c-0.1-0.4-0.3-0.6-0.7-0.6s-0.5,0.2-0.7,0.6
			S305.7,99.9,305.7,100.9z"/>
		<path class="grey" d="M317.7,100.9c0,1.6-0.3,2.8-0.8,3.6s-1.4,1.1-2.5,1.1c-1.1,0-1.9-0.4-2.5-1.2c-0.6-0.8-0.8-2-0.8-3.5
			c0-1.6,0.3-2.8,0.8-3.6c0.5-0.8,1.4-1.1,2.5-1.1c1.1,0,1.9,0.4,2.5,1.2S317.7,99.4,317.7,100.9z M313.6,100.9c0,1,0.1,1.7,0.2,2.1
			c0.1,0.4,0.3,0.6,0.7,0.6c0.3,0,0.5-0.2,0.7-0.6c0.1-0.4,0.2-1.1,0.2-2.1c0-1-0.1-1.7-0.2-2.1c-0.1-0.4-0.3-0.6-0.7-0.6
			s-0.5,0.2-0.7,0.6S313.6,99.9,313.6,100.9z"/>
		<path class="grey" d="M318.9,99.5c0-0.4,0.1-0.7,0.3-0.9c0.2-0.2,0.6-0.3,1-0.3c0.4,0,0.7,0.1,1,0.3c0.2,0.2,0.3,0.5,0.3,0.9
			c0,0.4-0.1,0.7-0.3,0.9c-0.2,0.2-0.5,0.3-0.9,0.3c-0.4,0-0.8-0.1-1-0.3C319,100.2,318.9,99.9,318.9,99.5z M318.9,104.4
			c0-0.4,0.1-0.7,0.3-0.9c0.2-0.2,0.6-0.3,1-0.3c0.4,0,0.7,0.1,1,0.3s0.3,0.5,0.3,0.9c0,0.4-0.1,0.7-0.3,0.9
			c-0.2,0.2-0.5,0.3-0.9,0.3c-0.4,0-0.7-0.1-1-0.3C319,105.1,318.9,104.8,318.9,104.4z"/>
		<path class="grey" d="M329.3,100.9c0,1.6-0.3,2.8-0.8,3.6c-0.5,0.8-1.4,1.1-2.5,1.1c-1.1,0-1.9-0.4-2.5-1.2c-0.6-0.8-0.8-2-0.8-3.5
			c0-1.6,0.3-2.8,0.8-3.6c0.5-0.8,1.4-1.1,2.5-1.1c1.1,0,1.9,0.4,2.5,1.2C329.1,98.2,329.3,99.4,329.3,100.9z M325.2,100.9
			c0,1,0.1,1.7,0.2,2.1c0.1,0.4,0.3,0.6,0.7,0.6c0.3,0,0.5-0.2,0.7-0.6c0.1-0.4,0.2-1.1,0.2-2.1c0-1-0.1-1.7-0.2-2.1
			c-0.1-0.4-0.3-0.6-0.7-0.6s-0.5,0.2-0.7,0.6S325.2,99.9,325.2,100.9z"/>
		<path class="grey" d="M337.2,100.9c0,1.6-0.3,2.8-0.8,3.6c-0.5,0.8-1.4,1.1-2.5,1.1c-1.1,0-1.9-0.4-2.5-1.2c-0.6-0.8-0.8-2-0.8-3.5
			c0-1.6,0.3-2.8,0.8-3.6c0.5-0.8,1.4-1.1,2.5-1.1c1.1,0,1.9,0.4,2.5,1.2S337.2,99.4,337.2,100.9z M333,100.9c0,1,0.1,1.7,0.2,2.1
			c0.1,0.4,0.3,0.6,0.7,0.6c0.3,0,0.5-0.2,0.7-0.6s0.2-1.1,0.2-2.1c0-1-0.1-1.7-0.2-2.1c-0.1-0.4-0.3-0.6-0.7-0.6s-0.5,0.2-0.7,0.6
			S333,99.9,333,100.9z"/>
		<rect x="314.7" y="192.7" class="white" width="11.1" height="31.2"/>
		<path class="grey" d="M328.6,226.7h-16.7v-36.8h16.7V226.7z M317.5,221.1h5.4v-25.6h-5.4V221.1z"/>
	</g>
</g>
<g id="explanatory_pet">
	<g style="transform: translate3d(-18px,0,0); -ms-transform:translate(-18px, 0);">
		<path class="white" d="M377.5,372.9c-10.9-9.6-8.7-18.6-14-23.8c-3.1-3.1-7.9-0.5-12.1-1.8c-8.4-2.6-14.2-9.7-31.3-9.7
			s-22.8,7.2-31.3,9.7c-4.2,1.3-9-1.3-12.1,1.8c-5.3,5.3-3,14.3-14,23.8c-10.9,9.6-8.3,13.9-4,18.2c4.3,4.3,22.6,18.9,24.9,21.8
			c0.5,0.7,0.9,1.2,1.3,1.8c3.5,5.5-2.3,4.1-4.3,6c-0.2,0.1-0.4,0.3-0.5,0.4c1.2,0.9,2.4,1.9,3.6,3c11.5,11.5,20.8,15.5,36.7,15.5
			c14.9,0,25.4-3.8,40.6-18.3c-0.3-0.2-0.6-0.4-0.8-0.7c-4.7-4-7.2-6.6-5.7-8.7c0.8-1.1,2.5-2.1,5.6-3.1c6.4-2.1,17-13.4,21.4-17.7
			C385.9,386.8,388.5,382.4,377.5,372.9z"/>
		<g>
			<path class="grey" d="M320.2,391.6c-6.8,0-9.9-4.9-9.9-9.5c0-5.1,3.4-5.5,6.8-5.5h6.1c3.4,0,6.8,0.4,6.8,5.5
				C330.1,386.7,327,391.6,320.2,391.6z M316,382.3c0.1,3.3,3,3.7,4.3,3.7s4.2-0.4,4.3-3.7c-0.3,0-0.7,0-1.2,0h-6.1
				C316.6,382.3,316.2,382.3,316,382.3z"/>
		</g>
		<g>
			<g>
				<path class="grey" d="M299.2,370.6l-4.7-3.1c1.9-2.9,5.1-4.6,8.6-4.6c2.4,0,4.8,0.9,6.7,2.5l-3.7,4.3c-0.8-0.7-1.9-1.1-3-1.1
					C301.5,368.5,300.1,369.3,299.2,370.6z"/>
			</g>
			<g>
				<path class="grey" d="M341.2,370.6c-0.9-1.3-2.3-2.1-3.9-2.1c-1.1,0-2.2,0.4-3,1.1l-3.7-4.3c1.9-1.6,4.2-2.5,6.7-2.5
					c3.5,0,6.7,1.7,8.6,4.6L341.2,370.6z"/>
			</g>
		</g>
		<path class="grey" d="M379.4,370.8c-6-5.2-7.6-10.2-9.1-14.6c-1.1-3.3-2.1-6.5-4.7-9.1c-2.7-2.7-6.2-2.5-9-2.3
			c-1.6,0.1-3,0.2-4.2-0.2c-2.4-0.7-4.6-1.9-7.1-3.2c-5.6-2.9-12.5-6.6-24.8-6.7c-0.1,0-0.1,0-0.2,0c-0.1,0-0.1,0-0.2,0
			c-12.3,0-19.3,3.7-24.8,6.7c-2.5,1.3-4.7,2.5-7.1,3.2c-1.2,0.4-2.7,0.3-4.2,0.2c-2.8-0.2-6.3-0.4-9,2.3c-2.6,2.6-3.6,5.8-4.7,9.1
			c-1.5,4.4-3.1,9.4-9.1,14.6c-5.8,5.1-8.6,9.3-8.7,13.3c-0.1,3.8,2.1,6.6,4.6,9.1c3.7,3.7,7.4,7.8,9.9,11c3.5,4.4,7.8,6.8,11.8,6.7
			l-0.1,0.2l4.6,3.7l-6.1,5.9l1.6,2c10.1,12.6,26.1,20.2,42.7,20.2c16.1,0,31.2-7.3,41.4-20l1.6-2l-6.1-5.7l5.1-4.3
			c3.6-0.4,7.3-2.7,10.4-6.6c2.6-3.3,6.2-7.3,9.9-11c2.4-2.4,4.7-5.2,4.6-9.1C388,380,385.2,375.8,379.4,370.8z M379.6,389.1
			c-5.3,5.3-8.8,9.5-10.4,11.5c-2.6,3.3-5.9,5.1-8,4.4c-2.4-0.8-4.1-5-4.4-11.4c-0.3-5.2-0.5-18.3,3.6-28.5l-5.2-2.1
			c-4.5,11.2-4.3,25.3-4,30.9c0.5,8.6,2.9,12.8,5.5,14.9l-7.1,6l6.9,6.4c-9.1,10.3-21.6,15.9-35.3,15.9c-13.8,0-27.6-6.1-36.6-16.1
			l6.9-6.6l-7.3-5.9c2.4-2.2,4.6-6.5,5-14.5c0.3-5.5,0.5-19.6-3.9-30.9l-5.2,2.1c4.1,10.2,3.8,23.3,3.6,28.5
			c-0.3,6.4-2,10.6-4.4,11.4c-2.1,0.7-5.4-1.1-8-4.4c-1.6-2-5.1-6.2-10.4-11.5c-2.2-2.2-3-3.5-2.9-4.9c0.1-1.6,1.3-4.4,6.8-9.2
			c7.1-6.2,9.1-12.2,10.7-17.1c1-2.9,1.7-5.2,3.4-6.9c0.9-0.9,2.3-0.8,4.7-0.7c1.9,0.1,4.1,0.3,6.2-0.4c2.9-0.9,5.4-2.2,8.1-3.6
			c5.6-2.9,11.3-6,22.3-6l0,0l0,0c11,0,16.8,3.1,22.3,6c2.7,1.4,5.2,2.7,8.1,3.6c2.2,0.7,4.3,0.5,6.2,0.4c2.4-0.2,3.8-0.2,4.7,0.7
			c1.7,1.7,2.4,4,3.4,6.9c1.6,4.8,3.6,10.9,10.7,17.1c5.5,4.8,6.7,7.7,6.8,9.2C382.5,385.6,381.7,386.9,379.6,389.1z"/>
		<path class="grey" d="M341.9,393.5c0,0.4-0.9,8.6-6.7,8.6c-3.6,0-5.5-1.9-7.6-4c-1.9-1.9-4-4.1-7.3-4.1s-5.4,2.2-7.3,4.1
			c-2.1,2.2-4,4-7.6,4c-5.8,0-6.7-8.3-6.7-8.6l-5.6,0.5c0.4,4.8,3.6,13.7,12.3,13.7c1.8,0,3.4-0.3,4.7-0.8c0.9,4.8,5.2,8.4,10.2,8.4
			s9.3-3.6,10.2-8.4c1.4,0.5,2.9,0.8,4.7,0.8c8.7,0,11.9-9,12.3-13.7L341.9,393.5z M325,405c0,2.7-2.2,4.8-4.8,4.8s-4.8-2.2-4.8-4.8
			v-1.4c0.5-0.5,1-1,1.5-1.5c1.5-1.5,2.4-2.4,3.3-2.4s1.9,0.9,3.3,2.4c0.5,0.5,0.9,1,1.5,1.5V405z"/>
	</g>
</g>
<g id="explanatory_art">
	<g style="transform: translate3d(-18px,-46px, 0); -ms-transform:translate(-18px, -46px);">
		<rect x="255.2" y="563" class="white" width="130.1" height="147.9"/>
		<path class="grey" d="M388.1,713.7H252.3V560.1h135.8V713.7z M258,708.1h124.5V565.8H258V708.1z"/>
		<path class="grey" d="M379,704.6H261.4V569.2H379V704.6z M267,699h106.4V574.8H267V699z"/>
		<path class="grey" d="M304.8,674.7c4.9,0.7,10.2,1,15.4,1s10.5-0.3,15.4-1v-7.3c-4.2,0.7-9.3,1.1-15.4,1.1c-6.1,0-11.2-0.4-15.4-1.1
			V674.7z"/>
		<path class="grey" d="M355.5,601.7v-7c1.3-1.3,2.1-2.8,2.1-4.5c0-9.4-23.5-11.9-37.4-11.9s-37.4,2.5-37.4,11.9
			c0,1.7,0.8,3.2,2.1,4.5v7l-0.3,76.5c-1.2,1.2-1.9,2.6-1.9,4.2c0,8.7,19.9,11.5,33.9,11.9c0.1,0,0.2,0,0.3,0c1.1,0,2.2,0,3.2,0
			s2.1,0,3.2,0c0.1,0,0.2,0,0.3,0c14-0.4,33.9-3.2,33.9-11.9c0-1.6-0.7-3-1.9-4.2L355.5,601.7z M351.6,589.7c-0.3,0-0.6-0.1-0.9-0.1
			c-0.9,0-1.7,0.2-2.2,0.5c-4.8-5.8-24-6.1-28.3-6.1s-23.4,0.3-28.3,6.1c-0.5-0.3-1.2-0.5-2.2-0.5c-0.3,0-0.6,0-0.9,0.1
			c2.2-2.1,12.5-5.8,31.4-5.8S349.4,587.6,351.6,589.7z M320.2,621.8c-8.3,0-16.9-0.9-23.6-2.7v-11.8c4.9,1.5,12.7,2.9,23.6,2.9
			c10.9,0,18.6-1.4,23.6-2.9v11.8C337.1,621,328.5,621.8,320.2,621.8z M326.3,644.9c0,3.3-2.7,6-6,6s-6-2.7-6-6c0-3.3,2.7-6,6-6
			S326.3,641.6,326.3,644.9z M297.1,593.1c2.6-1.4,10.5-3.4,23.1-3.4s20.6,2,23.1,3.4c-2.6,1.4-10.5,3.4-23.1,3.4
			S299.7,594.5,297.1,593.1z M320.2,688.7c-18.3,0-29.3-4.2-29.9-6.3v-40c4.4,2.3,11.1,3.8,18.4,4.5c0.9,5.5,5.7,9.7,11.5,9.7
			c5.8,0,10.5-4.2,11.5-9.7c7.3-0.7,14-2.2,18.4-4.5l0,39.9C349.6,684.5,338.5,688.7,320.2,688.7z"/>
	</g>
</g>
</svg>
