<svg width="600" height="450" xmlns="http://www.w3.org/2000/svg" viewBox="0 0 600 450">
 <style type="text/css">
  .st1{fill:#0563C9;}
  .st3{fill:#1871E8;}
  .st4{font-weight:400;}
  .st5{font-size:16.3187px;}
  .st6{font-weight:700;}
  .st7{font-size:8px;}
  .st8{font-weight: 800;}
  .st9{font-size:16.8388px;}
  .st10{font-size:24.635px;}
  .st11{font-weight: 400;}
  .st12{font-size:16.3299px;}</style>

 <g>
  <title>background</title>
  <rect fill="none" id="canvas_background" height="450" width="600" y="-1" x="-1" class="grey-light" />
 </g>
 <g>
  <title>Layer 1</title>
  <g id="phone">
   <path id="svg_1" d="m170.8,277.7l-93.1,0l0,-161.7l93.1,0l0,161.7z" class="white"/>
   <g class="phone_content" id="proximity_content">
    <g id="proximity3">
     <path id="svg_2" d="m170.8,277.7l-93.1,0l0,-161.7l93.1,0l0,161.7z" class="white"/>
     <rect id="svg_3" height="152" width="81.3" y="119.9" x="84.6" class="active"/>
     <rect id="svg_4" height="48.8" width="48.8" class="white" y="173.7" x="100.8"/>
     <rect id="svg_5" height="5.6" width="48.6" class="white" y="236" x="101"/>
     <rect id="svg_6" height="5.6" width="48.6" class="white" y="155" x="101"/>
     <rect id="svg_7" height="13.1" width="81.3" class="grey-light" y="258.8" x="84.6"/>
     <rect id="svg_8" height="18.7" width="81.3" class="grey-light" y="119.9" x="84.6"/>
     <rect id="svg_9" height="5.6" width="74.3" class="grey-light" y="129.5" x="88.1"/>
     <rect id="svg_10" height="2.2" width="4.9" y="123.1" x="157.5"/>
     <rect id="svg_11" height="2.2" width="10.4" y="123.1" x="88.1"/>
    </g>
    <g id="proximity2">
     <path id="svg_12" d="m170.8,277.7l-93.1,0l0,-161.7l93.1,0l0,161.7z" class="white"/>
     <rect id="svg_13" height="7.9" width="74.4" class="grey-light" y="128.3" x="88"/>
     <rect id="svg_14" height="3.1" width="4.9" y="122.7" x="157.5"/>
     <rect id="svg_15" height="3.1" width="10.4" y="122.7" x="88"/>
     <rect id="svg_16" height="28.4" width="86.4" y="139.9" x="81.3" class="blue"/>
     <rect id="svg_17" height="7.9" width="48.7" y="150.2" x="107.6" class="white"/>
     <rect id="svg_18" height="7.9" width="48.7" y="178.6" x="107.6"/>
     <path id="svg_19" d="m98,159.7l-2,-2c-0.1,-0.1 -0.1,-0.4 0,-0.6l2,-2c0.1,-0.1 0.4,-0.1 0.6,0l2,2c0.1,0.1 0.1,0.4 0,0.6l-2,2c-0.3,0.3 -0.5,0.3 -0.6,0zm-1.8,-4.2l0.4,-0.4c-0.6,-0.4 -1,-1.1 -1,-1.8c0,-1.3 1.1,-2.4 2.4,-2.4c0.7,0 1.3,0.3 1.7,0.7c0.4,0.4 0.7,1.1 0.7,1.7c0,0.7 -0.3,1.4 -0.8,1.8l0.4,0.4c0.7,-0.6 1.1,-1.4 1.1,-2.4c0,-0.8 -0.3,-1.5 -0.8,-2.3c-0.6,-0.6 -1.4,-0.8 -2.3,-0.8c-1.7,0 -3.1,1.4 -3.1,3.1c0.1,0.9 0.6,1.8 1.3,2.4zm-1.3,1.3l0.4,-0.4l-0.1,-0.3c-0.8,-0.8 -1.3,-1.8 -1.3,-3c0,-2.3 1.8,-4.1 4.1,-4.1c1.1,0 2.1,0.4 3,1.3c0.8,0.8 1.3,1.8 1.3,3c0,1.3 -0.6,2.4 -1.4,3.1l0.4,0.4c1,-0.8 1.5,-2.1 1.5,-3.5c0,-1.3 -0.6,-2.5 -1.4,-3.4c-0.8,-0.8 -2.1,-1.4 -3.4,-1.4c-2.7,0 -4.8,2.1 -4.8,4.8c0,1.3 0.6,2.5 1.4,3.4c0.2,-0.2 0.3,0.1 0.3,0.1z" class="white"/>
     <path id="svg_20" d="m98,188.2l-2,-2c-0.1,-0.1 -0.1,-0.4 0,-0.6l2,-2c0.1,-0.1 0.4,-0.1 0.6,0l2,2c0.1,0.1 0.1,0.4 0,0.6l-2,2c-0.3,0.2 -0.5,0.2 -0.6,0zm-1.8,-4.3l0.4,-0.4c-0.6,-0.4 -1,-1.1 -1,-1.8c0,-1.3 1.1,-2.4 2.4,-2.4c0.7,0 1.3,0.3 1.7,0.7c0.4,0.4 0.7,1.1 0.7,1.7c0,0.7 -0.3,1.4 -0.8,1.8l0.4,0.4c0.7,-0.6 1.1,-1.4 1.1,-2.4c0,-0.8 -0.3,-1.5 -0.8,-2.3c-0.6,-0.6 -1.4,-0.8 -2.3,-0.8c-1.7,0 -3.1,1.4 -3.1,3.1c0.1,1 0.6,2 1.3,2.4zm-1.3,1.2l0.4,-0.4l-0.1,-0.1c-0.8,-0.8 -1.3,-1.8 -1.3,-3c0,-2.3 1.8,-4.1 4.1,-4.1c1.1,0 2.1,0.4 3,1.3c0.8,0.8 1.3,1.8 1.3,3c0,1.3 -0.6,2.4 -1.4,3.1l0.4,0.4c1,-0.8 1.5,-2.1 1.5,-3.5c0,-1.3 -0.6,-2.5 -1.4,-3.4c-0.8,-0.8 -2.1,-1.4 -3.4,-1.4c-2.7,0 -4.8,2.1 -4.8,4.8c0,1.3 0.6,2.5 1.4,3.4c0.2,-0.1 0.3,-0.1 0.3,-0.1z"/>
     <rect id="svg_21" height="7.9" width="48.7" y="207" x="107.6"/>
     <path id="svg_22" d="m98,216.9l-2,-2c-0.1,-0.1 -0.1,-0.4 0,-0.6l2,-2c0.1,-0.1 0.4,-0.1 0.6,0l2,2c0.1,0.1 0.1,0.4 0,0.6l-2,2c-0.3,0 -0.5,0 -0.6,0zm-1.8,-4.5l0.4,-0.4c-0.6,-0.4 -1,-1.1 -1,-1.8c0,-1.3 1.1,-2.4 2.4,-2.4c0.7,0 1.3,0.3 1.7,0.7c0.4,0.4 0.7,1.1 0.7,1.7c0,0.7 -0.3,1.4 -0.8,1.8l0.4,0.4c0.7,-0.6 1.1,-1.4 1.1,-2.4c0,-0.8 -0.3,-1.5 -0.8,-2.3c-0.6,-0.6 -1.4,-0.8 -2.3,-0.8c-1.7,0 -3.1,1.4 -3.1,3.1c0.1,1 0.6,1.8 1.3,2.4zm-1.3,1.4l0.4,-0.4l-0.1,-0.1c-0.8,-0.8 -1.3,-1.8 -1.3,-3c0,-2.3 1.8,-4.1 4.1,-4.1c1.1,0 2.1,0.4 3,1.3c0.8,0.8 1.3,1.8 1.3,3c0,1.3 -0.6,2.4 -1.4,3.1l0.4,0.4c1,-0.8 1.5,-2.1 1.5,-3.5c0,-1.3 -0.6,-2.5 -1.4,-3.4c-0.8,-0.8 -2.1,-1.4 -3.4,-1.4c-2.7,0 -4.8,2.1 -4.8,4.8c0,1.3 0.6,2.5 1.4,3.4c0.2,-0.4 0.3,-0.4 0.3,-0.1z"/>
     <rect id="svg_23" height="7.9" width="48.7" y="235.6" x="107.6"/>
     <path id="svg_24" d="m98,245.2l-2,-2c-0.1,-0.1 -0.1,-0.4 0,-0.6l2,-2c0.1,-0.1 0.4,-0.1 0.6,0l2,2c0.1,0.1 0.1,0.4 0,0.6l-2,2c-0.3,0.2 -0.5,0.2 -0.6,0zm-1.8,-4.3l0.4,-0.4c-0.6,-0.4 -1,-1.1 -1,-1.8c0,-1.3 1.1,-2.4 2.4,-2.4c0.7,0 1.3,0.3 1.7,0.7c0.4,0.4 0.7,1.1 0.7,1.7c0,0.7 -0.3,1.4 -0.8,1.8l0.4,0.4c0.7,-0.6 1.1,-1.4 1.1,-2.4c0,-0.8 -0.3,-1.5 -0.8,-2.3c-0.6,-0.6 -1.4,-0.8 -2.3,-0.8c-1.7,0 -3.1,1.4 -3.1,3.1c0.1,1 0.6,2 1.3,2.4zm-1.3,1.3l0.4,-0.4l-0.1,-0.1c-0.8,-0.8 -1.3,-1.8 -1.3,-3c0,-2.3 1.8,-4.1 4.1,-4.1c1.1,0 2.1,0.4 3,1.3c0.8,0.8 1.3,1.8 1.3,3c0,1.3 -0.6,2.4 -1.4,3.1l0.4,0.4c1,-0.8 1.5,-2.1 1.5,-3.5c0,-1.3 -0.6,-2.5 -1.4,-3.4s-2.1,-1.4 -3.4,-1.4c-2.7,0 -4.8,2.1 -4.8,4.8c0,1.3 0.6,2.5 1.4,3.4c0.2,-0.1 0.3,-0.1 0.3,-0.1z"/>
    </g>
    <g id="proximity1">
     <path id="svg_25" d="m170.8,277.7l-93.1,0l0,-161.7l93.1,0l0,161.7z" class="white"/>
     <rect id="svg_26" height="7.9" width="48.6" y="150.2" x="107.7"/>
     <rect id="svg_27" height="7.9" width="48.6" y="178.6" x="107.7"/>
     <rect id="svg_28" height="18.7" width="81.3" y="119.9" x="84.6" class="white"/>
     <rect id="svg_29" height="7.9" width="74.3" class="grey-light" y="128.3" x="88.1"/>
     <rect id="svg_30" height="3.1" width="4.8" y="122.7" x="157.7"/>
     <rect id="svg_31" height="3.1" width="10.4" y="122.7" x="88.1"/>
     <path id="svg_32" d="m98,159.7l-2,-2c-0.1,-0.1 -0.1,-0.4 0,-0.6l2,-2c0.1,-0.1 0.4,-0.1 0.6,0l2,2c0.1,0.1 0.1,0.4 0,0.6l-2,2c-0.2,0.2 -0.5,0.2 -0.6,0zm-1.7,-4.2l0.4,-0.4c-0.6,-0.4 -1,-1.1 -1,-1.8c0,-1.3 1.1,-2.4 2.4,-2.4c0.7,0 1.3,0.3 1.7,0.7c0.4,0.4 0.7,1.1 0.7,1.7c0,0.7 -0.3,1.4 -0.8,1.8l0.4,0.4c0.7,-0.6 1.1,-1.4 1.1,-2.4c0,-0.8 -0.3,-1.5 -0.8,-2.3c-0.6,-0.6 -1.4,-0.8 -2.3,-0.8c-1.7,0 -3.1,1.4 -3.1,3.1c0.2,0.9 0.6,1.8 1.3,2.4zm-1.3,1.1l0.4,-0.4l-0.1,-0.1c-0.8,-0.8 -1.3,-1.8 -1.3,-3c0,-2.3 1.8,-4.1 4.1,-4.1c1.1,0 2.1,0.4 3,1.3c0.8,0.8 1.3,1.8 1.3,3c0,1.3 -0.6,2.4 -1.4,3.1l0.4,0.4c1,-0.8 1.5,-2.1 1.5,-3.5c0,-1.3 -0.6,-2.5 -1.4,-3.4c-0.8,-0.8 -2.1,-1.4 -3.4,-1.4c-2.7,0 -4.8,2.1 -4.8,4.8c0,1.3 0.6,2.5 1.4,3.4c0.2,-0.2 0.3,-0.1 0.3,-0.1z"/>
     <path id="svg_33" d="m98,188.2l-2,-2c-0.1,-0.1 -0.1,-0.4 0,-0.6l2,-2c0.1,-0.1 0.4,-0.1 0.6,0l2,2c0.1,0.1 0.1,0.4 0,0.6l-2,2c-0.2,0.1 -0.5,0.1 -0.6,0zm-1.7,-4.3l0.4,-0.4c-0.6,-0.4 -1,-1.1 -1,-1.8c0,-1.3 1.1,-2.4 2.4,-2.4c0.7,0 1.3,0.3 1.7,0.7c0.4,0.4 0.7,1.1 0.7,1.7c0,0.7 -0.3,1.4 -0.8,1.8l0.4,0.4c0.7,-0.6 1.1,-1.4 1.1,-2.4c0,-0.8 -0.3,-1.5 -0.8,-2.3c-0.6,-0.6 -1.4,-0.8 -2.3,-0.8c-1.7,0 -3.1,1.4 -3.1,3.1c0.2,1 0.6,1.9 1.3,2.4zm-1.3,1.2l0.4,-0.4l-0.1,-0.1c-0.8,-0.8 -1.3,-1.8 -1.3,-3c0,-2.3 1.8,-4.1 4.1,-4.1c1.1,0 2.1,0.4 3,1.3c0.8,0.8 1.3,1.8 1.3,3c0,1.3 -0.6,2.4 -1.4,3.1l0.4,0.4c1,-0.8 1.5,-2.1 1.5,-3.5c0,-1.3 -0.6,-2.5 -1.4,-3.4c-0.8,-0.8 -2.1,-1.4 -3.4,-1.4c-2.7,0 -4.8,2.1 -4.8,4.8c0,1.3 0.6,2.5 1.4,3.4c0.2,-0.1 0.3,-0.1 0.3,-0.1z"/>
     <rect id="svg_34" height="7.9" width="48.6" y="207" x="107.7"/>
     <path id="svg_35" d="m98,216.7l-2,-2c-0.1,-0.1 -0.1,-0.4 0,-0.6l2,-2c0.1,-0.1 0.4,-0.1 0.6,0l2,2c0.1,0.1 0.1,0.4 0,0.6l-2,2c-0.2,0.2 -0.5,0.2 -0.6,0zm-1.7,-4.3l0.4,-0.4c-0.6,-0.4 -1,-1.1 -1,-1.8c0,-1.3 1.1,-2.4 2.4,-2.4c0.7,0 1.3,0.3 1.7,0.7c0.4,0.4 0.7,1.1 0.7,1.7c0,0.7 -0.3,1.4 -0.8,1.8l0.4,0.4c0.7,-0.6 1.1,-1.4 1.1,-2.4c0,-0.8 -0.3,-1.5 -0.8,-2.3c-0.6,-0.6 -1.4,-0.8 -2.3,-0.8c-1.7,0 -3.1,1.4 -3.1,3.1c0.2,1 0.6,1.8 1.3,2.4zm-1.3,1.2l0.4,-0.4l-0.1,-0.1c-0.8,-0.8 -1.3,-1.8 -1.3,-3c0,-2.3 1.8,-4.1 4.1,-4.1c1.1,0 2.1,0.4 3,1.3c0.8,0.8 1.3,1.8 1.3,3c0,1.3 -0.6,2.4 -1.4,3.1l0.4,0.4c1,-0.8 1.5,-2.1 1.5,-3.5c0,-1.3 -0.6,-2.5 -1.4,-3.4s-2.1,-1.4 -3.4,-1.4c-2.7,0 -4.8,2.1 -4.8,4.8c0,1.3 0.6,2.5 1.4,3.4c0.2,-0.2 0.3,-0.2 0.3,-0.1z"/>
     <rect id="svg_36" height="7.9" width="48.6" y="235.6" x="107.7"/>
     <path id="svg_37" d="m98,245.2l-2,-2c-0.1,-0.1 -0.1,-0.4 0,-0.6l2,-2c0.1,-0.1 0.4,-0.1 0.6,0l2,2c0.1,0.1 0.1,0.4 0,0.6l-2,2c-0.2,0.1 -0.5,0.1 -0.6,0zm-1.7,-4.3l0.4,-0.4c-0.6,-0.4 -1,-1.1 -1,-1.8c0,-1.3 1.1,-2.4 2.4,-2.4c0.7,0 1.3,0.3 1.7,0.7c0.4,0.4 0.7,1.1 0.7,1.7c0,0.7 -0.3,1.4 -0.8,1.8l0.4,0.4c0.7,-0.6 1.1,-1.4 1.1,-2.4c0,-0.8 -0.3,-1.5 -0.8,-2.3c-0.6,-0.6 -1.4,-0.8 -2.3,-0.8c-1.7,0 -3.1,1.4 -3.1,3.1c0.2,1 0.6,1.9 1.3,2.4zm-1.3,1.2l0.4,-0.4l-0.1,-0.1c-0.8,-0.8 -1.3,-1.8 -1.3,-3c0,-2.3 1.8,-4.1 4.1,-4.1c1.1,0 2.1,0.4 3,1.3c0.8,0.8 1.3,1.8 1.3,3c0,1.3 -0.6,2.4 -1.4,3.1l0.4,0.4c1,-0.8 1.5,-2.1 1.5,-3.5c0,-1.3 -0.6,-2.5 -1.4,-3.4c-0.8,-0.8 -2.1,-1.4 -3.4,-1.4c-2.7,0 -4.8,2.1 -4.8,4.8c0,1.3 0.6,2.5 1.4,3.4c0.2,-0.1 0.3,-0.1 0.3,-0.1z"/>
    </g>
   </g>
   <g class="phone_content" id="artist_content">
    <path id="svg_38" d="m170.8,277.7l-93.1,0l0,-161.7l93.1,0l0,161.7z" class="white"/>
    <rect id="svg_39" height="5.6" width="66.5" y="212.9" x="91.2" class="grey"/>
    <rect id="svg_40" height="5.6" width="66.5" y="227.1" x="91.2" class="grey"/>
    <rect id="svg_41" height="5.6" width="66.5" y="241.1" x="91.2" class="grey"/>
    <rect id="svg_42" height="5.6" width="66.5" y="255.3" x="91.2" class="grey"/>
    <g id="svg_43">
     <path id="svg_44" d="m88.3,195.7l72.1,0l0,-66.3l-72.1,0l0,66.3zm19.3,-39.8c0.4,0.1 0.8,0.3 1.2,0.4c-0.3,1.1 -0.4,2.2 -0.5,3.4c-0.5,-1.3 -0.7,-2.6 -0.7,-3.8zm-1.9,-3.3c3.4,-5 9.2,-8.8 13.8,-8.9c4.6,0 7.4,1.9 8.8,5.9c-2.3,3.6 -6.1,5.7 -10.3,5.7c-6,-0.2 -10.3,-1.1 -12.3,-2.7zm25,-1.4c2.1,1.2 3.3,4.4 3.4,7.5c-1.9,-1.9 -3.1,-4.6 -3.4,-7.5zm-20.3,9.1c0,-1.2 0.2,-2.4 0.4,-3.6c2.4,0.4 4.9,0.5 7.1,0.5c4.1,0 8,-1.8 10.7,-4.8c0.6,3 1.9,5.7 3.8,7.7c0,0.1 0,0.1 0,0.2c0,7.2 -4.9,13 -11,13s-11,-5.7 -11,-13zm-16.5,-25.2l60.9,0l0,55.1l-12,0l1.6,-9.6l-16.6,-5l0,-1.7c3.8,-2.3 6.4,-6.6 6.9,-11.7l1.4,1l0.2,-1.8c0.6,-5.3 -1.4,-11.2 -5.8,-12.4c-1.7,-4.8 -5.4,-7.3 -10.8,-7.3c-5.7,0.1 -12.4,4.6 -16.1,10.6l-0.4,0.6l0.5,0.6c0.5,0.7 1.2,1.2 2,1.7c0,0.3 0,0.5 0,0.8c0,3.2 1.4,6.8 3.6,9.6c1,3.2 2.8,5.9 5.2,7.7l0,2.5l-16.6,5l1.6,9.6l-5.2,0l0,-55.3l-0.4,0l0,0z"/>
     <path id="svg_45" d="m113.3,163.1c0,1.9 1.6,3.5 3.5,3.5s3.5,-1.6 3.5,-3.5l0,-1l2.2,0l0,1c0,1.9 1.6,3.5 3.5,3.5s3.5,-1.6 3.5,-3.5l0,-1l1.3,0l0,-2.2l-1.3,0l-7,0l-2.2,0l-7,0l-1.3,0l0,2.2l1.3,0l0,1zm14,-1l0,1c0,0.7 -0.6,1.3 -1.3,1.3s-1.3,-0.6 -1.3,-1.3l0,-1l2.6,0zm-9.1,0l0,1c0,0.7 -0.6,1.3 -1.3,1.3c-0.7,0 -1.3,-0.6 -1.3,-1.3l0,-1l2.6,0z"/>
     <rect id="svg_46" height="2.2" width="4.8" y="168.2" x="120.6" class="grey"/>
    </g>
   </g>
   <g class="phone_content" id="art_content">
    <path id="svg_47" d="m170.8,277.7l-93.1,0l0,-161.7l93.1,0l0,161.7z" class="white"/>
    <rect id="svg_48" height="5.6" width="53.3" y="202.6" x="98" class="grey"/>
    <rect id="svg_49" height="5.6" width="66.4" y="224.1" x="91.6" class="grey"/>
    <rect id="svg_50" height="5.6" width="66.4" y="238.2" x="91.6" class="grey"/>
    <rect id="svg_51" height="5.6" width="66.4" y="252.2" x="91.6" class="grey"/>
    <rect id="svg_52" height="5.6" width="66.4" y="266.5" x="91.6" class="grey"/>
    <path id="svg_53" d="m98.2,123.7l0,66.3l53,0l0,-66.3l-53,0zm47.5,60.7l-41.9,0l0,-55.1l41.8,0l0,55.1l0.1,0z"/>
    <path id="svg_54" d="m118.7,175.2c2.1,0.3 4.3,0.5 6.5,0.5s4.5,-0.2 6.5,-0.5l0,-3.1c-1.8,0.3 -4,0.5 -6.5,0.5c-2.6,0 -4.8,-0.2 -6.5,-0.5l0,3.1zm21,-0.2c0.5,0.5 0.8,1.1 0.8,1.7c0,3.2 -6.8,4.5 -12.3,4.8c-1,0.1 -1.9,0.1 -2.9,0.1c-0.2,0 -0.4,0 -0.6,0s-0.4,0 -0.6,0c-1,0 -1.9,0 -2.9,-0.1c-5.5,-0.4 -12.3,-1.6 -12.3,-4.8c0,-0.7 0.3,-1.2 0.8,-1.7l0,-18c0,1.1 0.8,2 2.2,2.7l0,17c0,0.7 4,2.8 12.8,2.8c8.3,0 12.8,-2 12.8,-2.8l0,-17c1.3,-0.7 2.2,-1.6 2.2,-2.7l0,18zm-30,-18l0,-17.6c-0.5,-0.5 -0.8,-1.1 -0.8,-1.7c0,-3.9 10.3,-5 15.8,-5s15.8,1 15.8,5c0,0.7 -0.3,1.2 -0.8,1.7l0,17.6c0,1.1 -0.8,2 -2.2,2.7c-1.9,1 -4.8,1.7 -8,2c-0.4,2.3 -2.4,4 -4.8,4s-4.3,-1.7 -4.8,-4c-3.2,-0.3 -6.1,-1 -8,-2c-1.5,-0.7 -2.2,-1.6 -2.2,-2.7zm17.6,3.8c0,-1.5 -1.2,-2.7 -2.7,-2.7s-2.7,1.2 -2.7,2.7s1.2,2.7 2.7,2.7c1.6,0 2.7,-1.2 2.7,-2.7zm7.4,-16c-2.1,0.7 -5.4,1.2 -10,1.2s-7.9,-0.6 -10,-1.2l0,5c2.8,0.8 6.5,1.2 10,1.2s7.2,-0.4 10,-1.2l0,-5zm0,-6c-0.1,0 -0.1,-0.1 -0.2,-0.1c-1.1,-0.6 -4.5,-1.5 -9.8,-1.5c-5.4,0 -8.7,0.8 -9.8,1.5c-0.1,0 -0.1,0.1 -0.2,0.1c0.9,0.6 4.3,1.6 10,1.6c5.6,0 9,-1 10,-1.6zm-23.7,-1.2c0,0.2 0.5,0.6 1.3,0.9c0.1,-0.9 0.9,-1.5 2.1,-2c3.3,-1.4 9.3,-1.5 10.2,-1.5s7,0.1 10.2,1.5c1.1,0.5 2,1.1 2.1,2c0.8,-0.4 1.2,-0.7 1.3,-0.9c0,-0.3 -0.6,-0.7 -1.6,-1.1c-2,-0.8 -6,-1.7 -12,-1.7s-10,0.9 -12,1.7c-0.9,0.5 -1.6,0.9 -1.6,1.1z"/>
   </g>
   <g class="phone_content" id="pet_content">
    <path id="svg_55" d="m170.8,277.7l-93.1,0l0,-161.7l93.1,0l0,161.7z" class="white"/>
    <path id="svg_56" d="m124.1,156.8c1,0 1.2,-0.5 1.2,-1c-0.1,0 -0.2,0 -0.3,0l-1.8,0c-0.1,0 -0.2,0 -0.3,0c0,0.3 0.2,1 1.2,1z"/>
    <path id="svg_57" d="m124.2,183c15.7,0 28.5,-12.8 28.5,-28.5s-12.8,-28.5 -28.5,-28.5s-28.5,12.8 -28.5,28.5s12.8,28.5 28.5,28.5zm-17.4,-30.7c1.7,-1.5 2.2,-3 2.7,-4.3c0.3,-1 0.6,-1.9 1.4,-2.6c0.8,-0.8 1.8,-0.7 2.6,-0.7c0.5,0 0.9,0.1 1.2,0c0.8,-0.2 1.4,-0.6 2.2,-1c1.6,-0.8 3.6,-1.9 7.2,-1.9l0,0c3.6,0 5.7,1.1 7.3,1.9c0.7,0.4 1.4,0.7 2,0.9c0.3,0.1 0.7,0 1.1,0c0.8,-0.1 1.9,-0.1 2.7,0.7c0.8,0.7 1.1,1.7 1.4,2.7c0.4,1.3 0.9,2.7 2.6,4.2c1.8,1.5 2.5,2.7 2.6,3.9c0,1.1 -0.6,1.9 -1.3,2.7c-1,1 -1.9,2 -2.6,2.8l-0.4,0.5c-1,1.2 -2.3,1.9 -3.4,1.9c-0.1,0 -0.1,0 -0.2,0c-3.2,2.9 -7.4,4.6 -11.9,4.6c-4.4,0 -8.6,-1.6 -11.8,-4.6c-1.3,0.2 -2.8,-0.5 -3.9,-1.9c-0.5,-0.6 -1.1,-1.3 -1.9,-2.1c-0.3,-0.4 -0.7,-0.7 -1,-1.1c-0.7,-0.7 -1.3,-1.6 -1.3,-2.7c0.2,-1.2 1,-2.4 2.7,-3.9z"/>
    <path id="svg_58" d="m122.8,162.3c0,0.7 0.6,1.3 1.3,1.3c0.7,0 1.3,-0.6 1.3,-1.3l0,-0.4c-0.2,-0.2 -0.3,-0.3 -0.5,-0.5c-0.4,-0.4 -0.6,-0.7 -0.9,-0.7c-0.2,0 -0.6,0.3 -0.9,0.7c-0.1,0.1 -0.3,0.3 -0.4,0.4l0,0.5l0.1,0z"/>
    <path id="svg_59" d="m107.9,158.8c0.8,0.9 1.5,1.6 2,2.3c0.7,0.9 1.7,1.5 2.3,1.3c0.7,-0.2 1.2,-1.4 1.3,-3.3c0.1,-3.5 -0.2,-6.3 -1,-8.2l1.6,-0.7c0.9,2.2 1.3,5.1 1.2,9c-0.1,2.1 -0.6,3.3 -1.2,4c2.9,2.5 6.5,3.8 10.3,3.8s7.3,-1.3 10.2,-3.6c-0.7,-0.7 -1.2,-1.9 -1.4,-4.1c-0.2,-3.8 0.2,-6.8 1.2,-9l1.6,0.7c-0.8,1.9 -1.2,4.8 -1,8.2c0.1,1.8 0.6,3 1.2,3.3c0.6,0.2 1.5,-0.3 2.3,-1.3l0.4,-0.5c0.7,-0.8 1.6,-1.8 2.6,-2.9c0.6,-0.6 0.9,-1 0.8,-1.4c0,-0.4 -0.4,-1.2 -2,-2.7c-2.1,-1.8 -2.6,-3.5 -3.1,-4.9c-0.3,-0.8 -0.5,-1.5 -1,-2c-0.3,-0.3 -0.7,-0.3 -1.4,-0.2c-0.5,0 -1.1,0.1 -1.7,-0.1c-0.9,-0.3 -1.6,-0.6 -2.4,-1c-1.5,-0.8 -3.3,-1.7 -6.5,-1.7s-4.8,0.9 -6.4,1.7c-0.8,0.4 -1.6,0.8 -2.5,1.1c-0.6,0.2 -1.3,0.2 -1.9,0.1c-0.7,-0.1 -1,-0.1 -1.3,0.2c-0.5,0.5 -0.7,1.1 -1,1.9c-0.5,1.4 -1.1,3.2 -3.2,5c-1.6,1.4 -1.9,2.2 -2,2.6c0,0.4 0.3,0.8 0.8,1.4c0.5,0.3 0.8,0.7 1.2,1zm21.2,-8.7c1,0 2,0.5 2.5,1.4l-1.4,1c-0.2,-0.4 -0.7,-0.6 -1.1,-0.6c-0.3,0 -0.6,0.1 -0.9,0.3l-1,-1.4c0.6,-0.4 1.2,-0.7 1.9,-0.7zm-5.9,4l1.8,0c0.8,0 2.1,0 2.1,1.7c0,1.3 -0.9,2.8 -3,2.8c-2.2,0 -3,-1.7 -3,-2.8c0,-1.5 1,-1.7 2.1,-1.7zm-4.1,-4c0.7,0 1.3,0.2 1.9,0.7l-1,1.4c-0.3,-0.2 -0.6,-0.3 -0.9,-0.3c-0.4,0 -0.8,0.2 -1.1,0.6l-1.4,-1c0.5,-0.8 1.5,-1.4 2.5,-1.4zm-1.2,8.9c0,0 0.3,2.4 1.9,2.4c1,0 1.5,-0.5 2.1,-1.2c0.6,-0.6 1.2,-1.2 2.2,-1.2s1.6,0.6 2.1,1.2c0.6,0.6 1.1,1.2 2.2,1.2c1.7,0 1.9,-2.3 1.9,-2.4l1.7,0.2c-0.1,1.4 -1.1,4 -3.7,4c-0.5,0 -0.9,-0.1 -1.3,-0.2c-0.3,1.4 -1.5,2.4 -3,2.4s-2.7,-1 -3,-2.4c-0.4,0.1 -0.8,0.2 -1.3,0.2c-2.5,0 -3.5,-2.6 -3.7,-4l1.9,-0.2z"/>
    <path id="svg_60" d="m106.4,160.1c0.8,0.8 1.4,1.5 1.9,2.1c1.1,1.4 2.6,2.1 3.9,1.9c3.2,3 7.4,4.6 11.8,4.6c4.5,0 8.6,-1.6 11.9,-4.6c0.1,0 0.1,0 0.2,0c1.1,0 2.4,-0.7 3.4,-1.9l0.4,-0.5c0.7,-0.8 1.5,-1.7 2.6,-2.8c0.7,-0.7 1.4,-1.5 1.3,-2.7c0,-1.2 -0.8,-2.4 -2.6,-3.9c-1.7,-1.5 -2.2,-2.9 -2.6,-4.2c-0.3,-1 -0.6,-1.9 -1.4,-2.7s-1.9,-0.8 -2.7,-0.7c-0.4,0 -0.8,0.1 -1.1,0c-0.7,-0.2 -1.3,-0.5 -2,-0.9c-1.6,-0.9 -3.7,-1.9 -7.3,-1.9l0,0c-3.6,0 -5.6,1.1 -7.2,1.9c-0.8,0.4 -1.4,0.7 -2.2,1c-0.3,0.1 -0.8,0.1 -1.2,0c-0.8,-0.1 -1.8,-0.1 -2.6,0.7c-0.7,0.7 -1,1.6 -1.4,2.6c-0.4,1.3 -0.9,2.7 -2.7,4.3c-1.7,1.5 -2.5,2.7 -2.5,3.8c-0.1,1.2 0.6,2 1.3,2.7c0.1,0.5 0.5,0.8 0.8,1.2zm1.5,-6.3c2.1,-1.8 2.7,-3.6 3.2,-5c0.3,-0.8 0.5,-1.5 1,-1.9c0.2,-0.2 0.6,-0.2 1.3,-0.2c0.6,0 1.2,0.1 1.9,-0.1c0.9,-0.3 1.7,-0.7 2.5,-1.1c1.6,-0.8 3.2,-1.7 6.4,-1.7c3.2,0 4.9,0.9 6.5,1.7c0.8,0.4 1.5,0.8 2.4,1c0.6,0.1 1.2,0.1 1.7,0.1c0.7,0 1.1,-0.1 1.4,0.2c0.5,0.5 0.7,1.1 1,2c0.5,1.4 1.1,3.1 3.1,4.9c1.6,1.4 2,2.2 2,2.7c0,0.4 -0.2,0.7 -0.8,1.4c-1.1,1.1 -2,2.1 -2.6,2.9l-0.4,0.5c-0.8,0.9 -1.7,1.5 -2.3,1.3c-0.7,-0.2 -1.1,-1.4 -1.2,-3.3c-0.1,-3.5 0.2,-6.3 1,-8.2l-1.6,-0.7c-0.9,2.2 -1.3,5.2 -1.2,9c0.1,2.2 0.7,3.4 1.4,4.1c-2.8,2.4 -6.4,3.6 -10.2,3.6c-3.8,0 -7.4,-1.4 -10.3,-3.8c0.6,-0.7 1.1,-1.9 1.2,-4c0.1,-3.8 -0.2,-6.8 -1.2,-9l-1.6,0.7c0.8,1.9 1.2,4.7 1,8.2c-0.1,1.8 -0.6,3.1 -1.3,3.3c-0.6,0.2 -1.5,-0.3 -2.3,-1.3c-0.5,-0.7 -1.2,-1.4 -2,-2.3c-0.3,-0.3 -0.7,-0.7 -1,-1.1c-0.6,-0.6 -0.8,-1 -0.8,-1.4c-0.2,-0.4 0.2,-1.2 1.8,-2.5z" class="white"/>
    <path id="svg_61" d="m119.8,163.2c0.5,0 0.9,-0.1 1.3,-0.2c0.3,1.4 1.5,2.4 3,2.4s2.7,-1 3,-2.4c0.4,0.1 0.8,0.2 1.3,0.2c2.6,0 3.5,-2.6 3.7,-4l-1.7,-0.2c0,0.1 -0.3,2.4 -1.9,2.4c-1.1,0 -1.6,-0.5 -2.2,-1.2c-0.5,-0.6 -1.1,-1.2 -2.1,-1.2s-1.6,0.6 -2.2,1.2s-1.1,1.2 -2.1,1.2c-1.6,0 -1.9,-2.4 -1.9,-2.4l-1.7,0.2c0,1.4 1,4 3.5,4zm3.4,-1.7c0.4,-0.4 0.7,-0.7 0.9,-0.7c0.2,0 0.5,0.3 0.9,0.7c0.1,0.2 0.3,0.3 0.5,0.5l0,0.4c0,0.7 -0.6,1.3 -1.3,1.3s-1.3,-0.6 -1.3,-1.3l0,-0.4c0,-0.3 0.2,-0.4 0.3,-0.5z" class="white"/>
    <path id="svg_62" d="m124.1,158.6c2,0 3,-1.4 3,-2.8c0,-1.7 -1.3,-1.7 -2.1,-1.7l-1.8,0c-1.1,0 -2.1,0.2 -2.1,1.7c0,1.1 0.8,2.8 3,2.8zm-0.9,-2.7l1.8,0c0.1,0 0.2,0 0.3,0c0,0.5 -0.3,1 -1.2,1c-1,0 -1.2,-0.7 -1.2,-1c0.1,0 0.2,0 0.3,0z" class="white"/>
    <path id="svg_63" d="m119.1,151.9c0.3,0 0.6,0.1 0.9,0.3l1,-1.4c-0.6,-0.4 -1.3,-0.7 -1.9,-0.7c-1,0 -2,0.5 -2.5,1.4l1.4,1c0.3,-0.4 0.7,-0.6 1.1,-0.6z" class="white"/>
    <path id="svg_64" d="m129.1,151.9c0.4,0 0.8,0.2 1.1,0.6l1.4,-1c-0.6,-0.9 -1.5,-1.4 -2.5,-1.4c-0.7,0 -1.3,0.2 -1.9,0.7l1,1.4c0.3,-0.2 0.6,-0.3 0.9,-0.3z" class="white"/>
    <text x="-201" y="0" class="grey st4 st5" transform="matrix(1,0,0,1,306.3426,207.4081) " id="spot">Spot</text>
    <g id="call_button">
     <path d="m85.7,269.8l77.1,0l0,-49l-77.1,0l0,49zm30.8,-19.8l3.5,-0.6l1.2,4c0.3,0.8 -0.9,2 -0.9,2c0.6,2.3 3.5,5.2 5.8,5.8c0,0 1.1,-1.2 2,-0.9l4,1.2l-0.6,3.5c-8.1,0.6 -15.6,-6.9 -15,-15z" id="call_button_bg"/>
     <path id="svg_65" d="m131.5,265l0.6,-3.5l-4,-1.2c-0.9,-0.3 -2,0.9 -2,0.9c-2.3,-0.6 -5.2,-3.5 -5.8,-5.8c0,0 1.2,-1.2 0.9,-2l-1.2,-4l-3.5,0.6c-0.6,8.1 6.9,15.6 15,15z" class="white"/>
     <text x="-201" y="0" id="svg_66" class="white st6 st7" transform="matrix(1,0,0,1,298.9803,234.4096) ">Call Humane</text>
     <text x="-201" y="0" id="svg_67" class="white st6 st7" transform="matrix(1,0,0,1,310.4803,243.4096) ">Society</text>
    </g>
   </g>
   <g class="phone_content" id="meter_content">
    <path id="svg_68" d="m170.8,277.7l-93.1,0l0,-161.7l93.1,0l0,161.7z" class="white"/>
    <rect id="svg_69" height="29.9" width="84.4" y="225.3" x="82.2" class="active"/>
    <text x="-201" y="0" id="svg_70" class="white st8 st9" transform="matrix(1,0,0,1,308.4347,246.9947) ">PAID</text>
    <g id="pay_button">
     <rect id="svg_71" height="29.9" width="84.4" y="225.3" x="82.2" class="grey"/>
     <text x="-201" y="0" id="svg_72" class="white st8 st9" transform="matrix(1,0,0,1,308.4347,246.9947) ">PAY</text>
    </g>
    <g id="svg_73" class="timer">
     <g id="svg_74" class="text">
      <rect id="svg_75" height="35" width="84.4" y="150" x="82.2" class="white"/>
      <text x="-201" y="0" id="svg_76" class="grey st8 st10" transform="matrix(1,0,0,1,293.0308,176.8834) ">00:00</text>
     </g>
     <g id="svg_77" class="text">
      <rect id="svg_78" height="35" width="84.4" y="150" x="82.2" class="white"/>
      <text x="-201" y="0" id="svg_79" class="grey st8 st10" transform="matrix(1,0,0,1,293.0308,176.8834) ">00:10</text>
     </g>
     <g id="svg_80" class="text">
      <rect id="svg_81" height="35" width="84.4" y="150" x="82.2" class="white"/>
      <text x="-201" y="0" id="svg_82" class="grey st8 st10" transform="matrix(1,0,0,1,293.0308,176.8834) ">00:20</text>
     </g>
     <g id="svg_83" class="text">
      <rect id="svg_84" height="35" width="84.4" y="150" x="82.2" class="white"/>
      <text x="-201" y="0" id="svg_85" class="grey st8 st10" transform="matrix(1,0,0,1,293.0308,176.8834) ">00:30</text>
     </g>
    </g>
    <polygon points="135.5,149.60000610351562 124.39999389648438,140.6999969482422 113.39999389648438,149.60000610351562 109.89999389648438,145.1999969482422 124.39999389648438,133.5 139,145.1999969482422 " class="grey" id="add_time"/>
    <polygon points="124.39999389648438,204.5 109.89999389648438,192.79998779296875 113.39999389648438,188.39999389648438 124.39999389648438,197.30001831054688 135.5,188.39999389648438 139,192.79998779296875 " class="grey" id="subtract_time"/>
   </g>
   <g id="content_mask">
    <rect id="svg_86" height="200" width="150" y="-100" x="49" class="grey-light"/>
    <rect id="svg_87" height="200" width="150" y="300" x="49" class="grey-light"/>
    <path id="svg_88" d="m124.4,290.4c-2.5,0 -4.6,2.1 -4.6,4.6s2.1,4.6 4.6,4.6s4.6,-2.1 4.6,-4.6s-2.1,-4.6 -4.6,-4.6z" class="white"/>
    <path id="svg_89" d="m124.4,284.8c-5.6,0 -10.2,4.6 -10.2,10.2c0,5.6 4.6,10.2 10.2,10.2s10.2,-4.6 10.2,-10.2c0,-5.6 -4.6,-10.2 -10.2,-10.2zm0,14.8c-2.5,0 -4.6,-2.1 -4.6,-4.6s2.1,-4.6 4.6,-4.6s4.6,2.1 4.6,4.6s-2.1,4.6 -4.6,4.6z"/>
    <path id="svg_90" d="m72.1,283.3l104.3,0l0,-172.9l-104.3,0l0,172.9zm5.6,-167.3l93.1,0l0,161.7l-93.1,0l0,-161.7z"/>
    <path id="svg_91" d="m172.6,95.1l-96.7,0c-4.7,0 -8.6,3.9 -8.6,8.6l0,194.5c0,4.7 3.9,8.6 8.6,8.6l96.7,0c2.3,0 4.5,-0.9 6.1,-2.6c1.6,-1.6 2.5,-3.8 2.5,-6.1l0,-194.4c0,-4.7 -3.9,-8.6 -8.6,-8.6zm-48.2,210.1c-5.6,0 -10.2,-4.6 -10.2,-10.2c0,-5.6 4.6,-10.2 10.2,-10.2s10.2,4.6 10.2,10.2c0,5.6 -4.6,10.2 -10.2,10.2zm52,-21.9l-104.3,0l0,-172.9l104.3,0l0,172.9l0,0z" class="white"/>
    <path id="svg_92" d="m172.6,89.5l-96.7,0c-7.8,0 -14.2,6.4 -14.2,14.2l0,194.5c0,7.8 6.4,14.2 14.2,14.2l96.7,0c3.8,0 7.4,-1.5 10.1,-4.3c2.7,-2.7 4.1,-6.3 4.1,-10l0,-194.4c0,-7.8 -6.4,-14.2 -14.2,-14.2zm8.6,208.6c0,2.3 -0.8,4.4 -2.5,6.1c-1.6,1.7 -3.8,2.6 -6.1,2.6l-96.7,0c-4.7,0 -8.6,-3.9 -8.6,-8.6l0,-194.5c0,-4.7 3.9,-8.6 8.6,-8.6l96.7,0c4.7,0 8.6,3.9 8.6,8.6l0,194.4l0,0z"/>
   </g>
  </g>
  <g class="target" id="proximity">
   <g id="circles">
    <path id="svg_93" d="m413.4,330.1c-73.7,0 -133.7,-60 -133.7,-133.7s60,-133.7 133.7,-133.7s133.7,60 133.7,133.7s-60,133.7 -133.7,133.7zm0,-261.7c-70.6,0 -128.1,57.4 -128.1,128s57.5,128.1 128.1,128.1s128.1,-57.4 128.1,-128c0,-70.7 -57.5,-128.1 -128.1,-128.1z"/>
    <path id="svg_94" d="m413.4,300.1c-57.2,0 -103.7,-46.5 -103.7,-103.7s46.5,-103.7 103.7,-103.7s103.7,46.5 103.7,103.7s-46.5,103.7 -103.7,103.7zm0,-201.7c-54.1,0 -98.1,44 -98.1,98c0,54.1 44,98.1 98.1,98.1c54.1,0 98.1,-44 98.1,-98c0,-54.1 -44,-98.1 -98.1,-98.1z"/>
    <path id="svg_95" d="m413.4,270.2c-40.6,0 -73.7,-33.1 -73.7,-73.7s33.1,-73.8 73.7,-73.8c40.6,0 73.7,33.1 73.7,73.7s-33.1,73.8 -73.7,73.8zm0,-141.8c-37.5,0 -68.1,30.5 -68.1,68.1c0,37.5 30.5,68.1 68.1,68.1c37.6,0 68.1,-30.5 68.1,-68.1s-30.6,-68.1 -68.1,-68.1z"/>
   </g>
  </g>
  <g class="target" id="art">
   <g id="soup_can">
    <path id="svg_96" d="m459.8,277.2l-142.1,0l0,-161.7l142.1,0l0,161.7l0,0z" class="white"/>
    <path id="svg_97" d="m312.1,109.9l0,172.9l153.3,0l0,-172.9l-153.3,0zm147.7,167.3l-142.1,0l0,-161.7l142.1,0l0,161.7l0,0zm-135.7,-155.3l0,148.9l129.3,0l0,-148.9l-129.3,0zm123.7,143.3l-118.1,0l0,-137.7l118.1,0l0,137.7z"/>
    <path id="svg_98" d="m371.7,242.3c5.4,0.8 11.3,1.2 17,1.2s11.6,-0.4 17,-1.2l0,-8.1c-4.6,0.7 -10.3,1.2 -17,1.2s-12.4,-0.5 -17,-1.2l0,8.1zm54.3,-0.6c1.3,1.3 2.1,2.8 2.1,4.5c0,8.3 -17.8,11.7 -32,12.6c-2.5,0.2 -5,0.3 -7.5,0.3c-0.5,0 -1,0 -1.5,0s-1,0 -1.5,0c-2.5,0 -5,-0.1 -7.5,-0.3c-14.3,-1 -32,-4.3 -32,-12.6c0,-1.7 0.8,-3.2 2.1,-4.5l0,-46.8c0,2.9 2.1,5.2 5.6,7.1l0,44.2c0,1.7 10.4,7.3 33.3,7.3c21.6,0 33.3,-5.2 33.3,-7.3l0,-44.2c3.5,-1.9 5.6,-4.3 5.6,-7.1l0,46.8zm-77.9,-46.8l0,-45.9c-1.3,-1.3 -2.1,-2.8 -2.1,-4.5c0,-10.2 26.8,-12.9 41,-12.9s41,2.7 41,12.9c0,1.7 -0.8,3.2 -2.1,4.5l0,45.9c0,2.9 -2.1,5.2 -5.6,7.1c-4.9,2.7 -12.6,4.4 -20.9,5.2c-1.1,5.9 -6.2,10.3 -12.4,10.3c-6.2,0 -11.3,-4.4 -12.4,-10.3c-8.3,-0.8 -16,-2.5 -20.9,-5.2c-3.4,-1.9 -5.6,-4.2 -5.6,-7.1zm45.9,10c0,-3.9 -3.1,-7 -7,-7c-3.9,0 -7,3.1 -7,7s3.1,7 7,7c3.9,0 7,-3.1 7,-7zm19.1,-41.6c-5.4,1.7 -14,3.2 -26,3.2c-12,0.1 -20.6,-1.5 -26,-3.2l0,13.1c7.3,2 16.8,3 26,3c9.2,0 18.7,-1 26,-3l0,-13.1zm0,-15.7c-0.1,-0.1 -0.3,-0.2 -0.5,-0.3c-2.9,-1.6 -11.7,-3.8 -25.6,-3.8c-13.9,0 -22.6,2.2 -25.6,3.8c-0.2,0.1 -0.3,0.2 -0.5,0.3c2.4,1.6 11.3,4.1 26.1,4.1s23.8,-2.5 26.1,-4.1zm-61.4,-3.1c0.1,0.6 1.2,1.5 3.3,2.5c0.3,-2.3 2.4,-4 5.4,-5.3c8.5,-3.7 24.2,-3.8 26.6,-3.8c2.4,0 18.1,0.1 26.6,3.8c3,1.3 5.1,3 5.4,5.3c2.1,-1 3.2,-1.9 3.3,-2.5c-0.1,-0.7 -1.5,-1.7 -4.2,-2.8c-5.3,-2.1 -15.5,-4.5 -31.2,-4.5s-26,2.3 -31.2,4.5c-2.5,1.1 -3.9,2.1 -4,2.8z"/>
   </g>
  </g>
  <g class="target" id="pet">
   <g id="tail">
    <path id="svg_99" d="m456.3,261.6l0,-5.6c16,-0.1 27.7,-14 31.5,-19.2l-6.9,-6.2l3.8,-1.8c12.7,-6.1 18.5,-25.3 19.9,-30.8l-4.3,-4.2l0.5,-1.6c2.5,-8.2 0.3,-12.7 -2,-15.1c-3.2,15.8 -20.7,31.3 -21.5,32l-1.9,1.7l-3.8,-3.5c-1.6,6.4 -6.4,17.2 -20.3,26.4l-3.1,-4.7c18.5,-12.3 18.6,-27.2 18.6,-27.3l0,-6.4l8.6,7.9c5,-4.8 18.3,-18.8 18.3,-30.9l0,-4l3.7,1.3c4.8,1.7 12.7,8.5 9.2,22.5l4.1,4l-0.3,1.5c-0.2,1.1 -5.3,24.1 -19.8,34.1l4.5,4l-1.2,2c-0.6,1 -14.9,23.8 -37.6,23.9z"/>
    <path id="svg_100" d="m456.3,255.9c16,-0.1 27.7,-14 31.5,-19.2l-6.9,-6.2l3.8,-1.8c12.7,-6.1 18.5,-25.3 19.9,-30.8l-4.3,-4.2l0.5,-1.6c2.5,-8.2 0.3,-12.7 -2,-15.1c-3.2,15.8 -20.7,31.3 -21.5,32l-1.9,1.7l-3.8,-3.5c-1.6,6.4 -6.4,17.2 -20.3,26.4l5,22.3z" class="white"/>
   </g>
   <g id="svg_101">
    <path id="svg_102" d="m394.1,178.7c5.6,0 10.1,4.5 10.1,10.1s-4.5,10.1 -10.1,10.1c-5.6,0 -10.1,-4.5 -10.1,-10.1s4.5,-10.1 10.1,-10.1zm-33,-64.9l5.2,-2.1c3.6,9.3 3.4,20.8 3.2,25.3c-0.3,6.2 -1.9,9.7 -3.8,11.7l6,4.8l-5.7,5.3c7.2,7.9 17.4,12.3 28.3,12.3c10.9,0 21,-4.4 28.2,-12.1l-6,-5.5l6,-4.8c-1.9,-2 -3.4,-5.5 -3.8,-11.7c-0.3,-4.5 -0.4,-16 3.2,-25.3l5.2,2.1c-3.2,8.2 -3,18.8 -2.8,22.9c0.3,5.8 1.8,8.3 3.2,8.8c1.5,0.5 4,-0.9 5.9,-3.4c2.2,-2.7 5.1,-6.1 8.4,-9.4c1.7,-1.7 2.3,-2.7 2.2,-3.6c0,-1.1 -1,-3.3 -5.3,-7.1c-5.9,-5.1 -7.5,-10.1 -8.8,-14.1c-0.8,-2.3 -1.3,-4.1 -2.6,-5.4c-0.5,-0.5 -1.4,-0.5 -3.4,-0.4c-1.6,0.1 -3.4,0.2 -5.2,-0.3c-2.4,-0.7 -4.4,-1.8 -6.6,-3c-4.5,-2.4 -9.1,-4.8 -18,-4.8c-8.9,0 -13.5,2.4 -17.9,4.8c-2.2,1.2 -4.3,2.2 -6.7,3c-1.9,0.6 -3.7,0.4 -5.3,0.3c-1.9,-0.1 -2.8,-0.1 -3.4,0.4c-1.3,1.3 -1.9,3.1 -2.6,5.4c-1.3,4 -2.9,9 -8.8,14.1c-4.3,3.8 -5.3,5.9 -5.3,7.1c0,1 0.6,2 2.2,3.6c3.4,3.4 6.5,6.9 8.5,9.5c1.9,2.4 4.4,3.8 5.8,3.3c1.3,-0.4 2.9,-3 3.2,-8.8c0.3,-4.1 0.5,-14.6 -2.7,-22.9zm-20,119.3c-3.9,4.9 -6.3,10.8 -6.7,17c-0.8,12.2 6.4,23 6.4,23.2l2.1,3.1l-3.5,1.2c-0.1,0 -12.9,4.3 -16.7,5.9c-0.6,0.3 -1.1,1.4 -0.9,2.4c0.3,1.5 2,2.3 4.7,2.3l0.1,0l21,-0.6c0.1,-0.1 0.1,-0.3 0.2,-0.4c1.5,-3 3,-6.1 3,-10.7l0,-19.1c-5.8,-4.2 -8.6,-13.5 -9.7,-24.3zm93.6,54.3c-1.3,-2.9 -2.6,-6.4 -2.6,-11.1l0,-65.2l5.6,0l0,37.7c7.1,-12.5 4.6,-46.6 0.7,-68.2l-0.3,-1.9l3.5,-2.2c-1.7,-4.3 -6.6,-7.9 -11.8,-11.7c-1,-0.7 -2,-1.5 -3.1,-2.3c-6.3,6.9 -14.6,11.6 -23.8,13.4c4,2.8 6.7,7.5 6.7,12.9c0,8.7 -7,15.7 -15.7,15.7s-15.7,-7 -15.7,-15.7c0,-5.3 2.7,-10.1 6.8,-12.9c-9.1,-1.9 -17.2,-6.5 -23.5,-13.3c-1,0.8 -2,1.5 -3.1,2.3c-5.2,3.8 -10.1,7.4 -11.8,11.7l3.5,2.2l-0.3,1.9c-3.9,21.7 -6.4,56 0.8,68.4l0,-37.9l5.6,0l0,65.2c0,4.7 -1.3,8.2 -2.6,11.1l-2.5,5.6c-0.3,0.8 -0.4,1.5 -0.4,2.3c0,1.3 0,3.4 6.4,3.4c0.5,0 1.1,0 1.8,0.1c2.1,0.1 4.7,0.3 6,-1c1.1,-1.1 1.4,-3.1 1.5,-4.8l0,-5.6l0,-44.6l5.8,2.6l0,-12.8l5.6,0l0,21.3l-5.8,-2.6l0,35.9l44.1,0l0,-35.9l-5.8,2.6l0,-21.3l5.6,0l0,12.7l5.8,-2.6l0,44.6l0,5.6c0,1.7 0.3,3.7 1.5,4.8c1.4,1.3 3.9,1.1 6,1c0.7,0 1.3,-0.1 1.8,-0.1c6.4,0 6.4,-2.1 6.4,-3.4c0,-0.8 -0.2,-1.5 -0.4,-2.3l-2.3,-5.6zm31.2,-4c-3.7,-1.6 -16.5,-5.9 -16.7,-5.9l-3.5,-1.2l2.1,-3.1c0.1,-0.1 7.2,-10.9 6.4,-23.1c-0.4,-6.2 -2.8,-12.2 -6.7,-17c-1.1,10.8 -3.8,20 -9.7,24l0,19.2c0,4.6 1.5,7.7 3,10.7c0.1,0.1 0.1,0.3 0.2,0.4l21,0.6l0.1,0c2.6,0 4.4,-0.8 4.7,-2.3c0.2,-0.9 -0.3,-2.1 -0.9,-2.3z" class="white"/>
    <path id="svg_103" d="m468.1,278.2c-2.8,-1.2 -9.7,-3.6 -13.8,-5c2.4,-4.5 6.2,-13.5 5.5,-23.5c-0.6,-9.2 -4.9,-18 -11.8,-24.3c0.5,-17.7 -2.4,-37.1 -3.6,-43.9l3.7,-2.3l-0.3,-1.9c-1.3,-7.3 -8,-12.2 -14.5,-17c-1.7,-1.2 -3.4,-2.5 -5,-3.8l-2.2,-1.8l0,0l-1,-0.9l3.2,-2.6l0,-0.1c3.3,0 6.7,-2 9.6,-5.6c2,-2.6 4.9,-5.8 8,-9c1.4,-1.4 4,-4.1 3.8,-7.8c-0.1,-3.4 -2.3,-6.8 -7.2,-11.1c-4.7,-4.1 -6,-7.9 -7.2,-11.6c-0.9,-2.8 -1.8,-5.4 -4,-7.6c-2.4,-2.4 -5.4,-2.2 -7.7,-2c-1.2,0.1 -2.4,0.2 -3.2,-0.1c-1.9,-0.6 -3.6,-1.5 -5.6,-2.5c-4.6,-2.4 -10.3,-5.4 -20.6,-5.5l-0.2,0c-10.2,0 -15.9,3 -20.4,5.4c-2,1.1 -3.8,2 -5.7,2.6c-0.9,0.3 -2,0.2 -3.3,0.1c-2.4,-0.2 -5.3,-0.4 -7.7,2c-2.2,2.2 -3.1,4.8 -4,7.6c-1.2,3.7 -2.5,7.5 -7.2,11.6c-4.9,4.2 -7.2,7.8 -7.3,11.2c-0.1,3.4 1.9,5.8 3.9,7.7c3.2,3.2 6.1,6.5 8,9c2.8,3.6 6.3,5.6 9.6,5.6l0,0l3.2,2.6l-2.9,2.7l0,0.1c-1.6,1.3 -3.3,2.5 -4.9,3.7c-6.5,4.8 -13.2,9.7 -14.5,17l-0.3,1.9l3.7,2.3c-1.2,6.8 -4.1,26.2 -3.6,43.9c-7,6.3 -11.3,15.1 -11.8,24.3c-0.7,10 3.1,19 5.5,23.5c-4.2,1.4 -11.1,3.8 -13.9,5c-3.2,1.4 -4.9,5.1 -4.2,8.8c0.4,1.7 2.2,6.8 10.4,6.8c0.1,0 0.1,0 0.2,0l18.8,-0.6c-0.1,0.7 -0.2,1.4 -0.2,2.2c0,4.1 2.1,9 12,9c0.4,0 0.9,0 1.4,0.1c0.8,0.1 1.6,0.1 2.6,0.1c2.5,0 5.4,-0.4 7.7,-2.6c2.1,-2 3.2,-5 3.2,-8.9l44.1,0c0.1,4 1.2,7 3.2,8.9c2.3,2.1 5.2,2.6 7.7,2.6c0.9,0 1.8,-0.1 2.6,-0.1c0.5,0 1,-0.1 1.4,-0.1c9.9,0 12,-4.9 12,-9c0,-0.7 -0.1,-1.5 -0.2,-2.2l18.8,0.6c0.1,0 0.1,0 0.2,0c8.1,0 9.9,-5.1 10.2,-6.7c0.8,-3.6 -1,-7.4 -4.2,-8.8zm-107.4,-132.6c-1.5,0.5 -4,-1 -5.8,-3.3c-2,-2.6 -5.1,-6.1 -8.5,-9.5c-1.6,-1.6 -2.3,-2.6 -2.2,-3.6c0,-1.2 1,-3.3 5.3,-7.1c5.9,-5.1 7.5,-10.1 8.8,-14.1c0.8,-2.3 1.3,-4.1 2.6,-5.4c0.5,-0.5 1.4,-0.5 3.4,-0.4c1.6,0.1 3.4,0.2 5.3,-0.3c2.4,-0.7 4.5,-1.8 6.7,-3c4.5,-2.4 9.1,-4.8 17.9,-4.8c8.9,0 13.5,2.5 18,4.8c2.2,1.1 4.2,2.2 6.6,3c1.9,0.5 3.7,0.4 5.2,0.3c1.9,-0.1 2.8,-0.1 3.4,0.4c1.3,1.3 1.8,3.1 2.6,5.4c1.3,4 2.9,9 8.8,14.1c4.3,3.8 5.2,6 5.3,7.1c0,0.9 -0.6,1.9 -2.2,3.6c-3.2,3.3 -6.2,6.7 -8.4,9.4c-1.9,2.4 -4.4,3.9 -5.9,3.4c-1.3,-0.4 -2.9,-3 -3.2,-8.8c-0.2,-4.1 -0.4,-14.7 2.8,-22.9l-5.2,-2.1c-3.6,9.3 -3.4,20.8 -3.2,25.3c0.3,6.2 1.9,9.7 3.8,11.7l-6,4.8l6,5.5c-7.2,7.7 -17.3,12.1 -28.2,12.1c-11,0 -21.2,-4.5 -28.3,-12.3l5.7,-5.3l-6,-4.8c1.9,-2 3.4,-5.5 3.8,-11.7c0.3,-4.5 0.5,-16 -3.2,-25.3l-5.2,2.1c3.2,8.3 3,18.8 2.8,22.9c-0.4,5.8 -2,8.3 -3.3,8.8zm43.5,43.2c0,5.6 -4.5,10.1 -10.1,10.1c-5.6,0 -10.1,-4.5 -10.1,-10.1s4.5,-10.1 10.1,-10.1c5.6,0 10.1,4.5 10.1,10.1zm-56.3,98.2c-0.1,0.1 -0.1,0.3 -0.2,0.4l-21,0.6l-0.1,0c-2.7,0 -4.4,-0.8 -4.7,-2.3c-0.2,-1 0.3,-2.2 0.9,-2.4c3.7,-1.6 16.5,-5.9 16.7,-5.9l3.5,-1.2l-2.1,-3.1c-0.1,-0.1 -7.3,-11 -6.4,-23.2c0.4,-6.2 2.8,-12.2 6.7,-17c1.1,10.8 3.9,20.1 9.8,24.1l0,19.1c-0.1,4.8 -1.6,7.9 -3.1,10.9zm83.4,11.7c-0.5,0 -1.1,0 -1.8,0.1c-2.1,0.1 -4.7,0.3 -6,-1c-1.1,-1.1 -1.4,-3.1 -1.5,-4.8l0,-5.6l0,-44.6l-5.8,2.6l0,-12.7l-5.6,0l0,21.3l5.8,-2.6l0,35.9l-44.1,0l0,-35.9l5.8,2.6l0,-21.3l-5.6,0l0,12.7l-5.8,-2.6l0,44.6l0,5.6c0,1.7 -0.3,3.7 -1.5,4.8c-1.4,1.3 -4,1.1 -6,1c-0.7,0 -1.3,-0.1 -1.8,-0.1c-6.4,0 -6.4,-2.1 -6.4,-3.4c0,-0.8 0.2,-1.5 0.4,-2.3l2.5,-5.6c1.3,-2.9 2.6,-6.4 2.6,-11.1l0,-65.2l-5.6,0l0,37.9c-7.3,-12.4 -4.7,-46.7 -0.8,-68.4l0.3,-1.9l-3.5,-2.2c1.7,-4.3 6.6,-7.9 11.8,-11.7c1,-0.7 2,-1.5 3.1,-2.3c6.2,6.8 14.4,11.5 23.5,13.3c-4.1,2.8 -6.8,7.6 -6.8,12.9c0,8.7 7,15.7 15.7,15.7s15.7,-7 15.7,-15.7c0,-5.3 -2.7,-10 -6.7,-12.9c9.2,-1.8 17.5,-6.4 23.8,-13.4c1,0.8 2,1.5 3.1,2.3c5.2,3.8 10.1,7.4 11.8,11.7l-3.5,2.2l0.3,1.9c3.9,21.6 6.4,55.6 -0.7,68.2l0,-37.7l-5.6,0l0,65.2c0,4.7 1.3,8.2 2.6,11.1l2.5,5.6c0.3,0.8 0.4,1.5 0.4,2.3c-0.2,1.4 -0.2,3.5 -6.6,3.5zm35.5,-12.9c-0.3,1.5 -2,2.3 -4.7,2.3l-0.1,0l-21,-0.6c-0.1,-0.1 -0.1,-0.3 -0.2,-0.4c-1.5,-3 -3,-6.1 -3,-10.7l0,-19.2c5.8,-4 8.6,-13.3 9.7,-24c3.9,4.9 6.3,10.8 6.7,17c0.8,12.2 -6.4,23 -6.4,23.1l-2.1,3.1l3.5,1.2c0.1,0 12.9,4.3 16.7,5.9c0.6,0.1 1.1,1.3 0.9,2.3z"/>
    <path id="svg_104" d="m396.6,122.4l-5,0c-2,0 -6,0 -6,5c0,4 2.7,8.2 8.5,8.2s8.5,-4.3 8.5,-8.2c0,-5 -3.9,-5 -6,-5zm-2.5,7.6c-2,0 -2.7,-1 -2.8,-2c0.1,0 0.2,0 0.3,0l5,0c0.1,0 0.2,0 0.3,0c-0.1,1 -0.8,2 -2.8,2z"/>
    <path id="svg_105" d="m377.5,118.4l-4.6,-3.2c1.7,-2.5 4.4,-3.9 7.3,-3.9c2.3,0 4.4,0.8 5.9,2.3l-4,4c-0.4,-0.4 -1.1,-0.7 -1.9,-0.7c-1.1,0 -2,0.6 -2.7,1.5z"/>
    <path id="svg_106" d="m410.7,118.4c-0.6,-0.9 -1.6,-1.5 -2.7,-1.5c-0.8,0 -1.5,0.2 -1.9,0.7l-4,-4c1.5,-1.5 3.6,-2.3 5.9,-2.3c2.9,0 5.6,1.5 7.3,3.9l-4.6,3.2z"/>
    <path id="svg_107" d="m411.1,136.7c0,0.1 -0.6,6.5 -4.9,6.5c-2.7,0 -4.1,-1.4 -5.8,-3.1c-1.5,-1.6 -3.4,-3.5 -6.3,-3.5c-2.9,0 -4.8,1.9 -6.3,3.5c-1.6,1.7 -3.1,3.1 -5.8,3.1c-4.2,0 -4.9,-6.3 -4.9,-6.5l-5.6,0.5c0.4,4 3,11.7 10.5,11.7c1.3,0 2.4,-0.2 3.4,-0.5c1,3.8 4.5,6.7 8.7,6.7s7.7,-2.8 8.7,-6.7c1,0.3 2.1,0.5 3.4,0.5c7.5,0 10.1,-7.6 10.5,-11.7l-5.6,-0.5zm-13.6,9.3c0,1.8 -1.6,3.4 -3.4,3.4s-3.4,-1.6 -3.4,-3.4l0,-0.9c0.4,-0.4 0.8,-0.7 1.1,-1.1c0.9,-0.9 1.7,-1.8 2.3,-1.8c0.6,0 1.4,0.9 2.3,1.8c0.3,0.3 0.7,0.7 1.1,1.1l0,0.9z"/>
   </g>
   <g id="svg_108" class="device_signal">
    <path id="svg_109" d="m393.8,197.1l-2.6,-2.6c-0.2,-0.2 -0.2,-0.5 0,-0.7l2.6,-2.6c0.2,-0.2 0.5,-0.2 0.7,0l2.6,2.6c0.2,0.2 0.2,0.5 0,0.7l-2.6,2.6c-0.2,0.2 -0.5,0.2 -0.7,0z"/>
    <path id="svg_110" d="m391.5,191.5l0.6,-0.6c-0.7,-0.6 -1.2,-1.5 -1.2,-2.5c0,-1.7 1.4,-3.2 3.2,-3.2c0.8,0 1.6,0.3 2.2,0.9c0.6,0.6 0.9,1.4 0.9,2.2c0,1 -0.5,1.9 -1.2,2.5l0.6,0.6c0.9,-0.7 1.4,-1.9 1.4,-3.1c0,-1.1 -0.4,-2.1 -1.2,-2.9c-0.8,-0.8 -1.8,-1.2 -2.9,-1.2c-2.2,0 -4.1,1.8 -4.1,4.1c0.3,1.3 0.8,2.4 1.7,3.2z"/>
    <path id="svg_111" d="m389.9,193.1l0.6,-0.6c-0.1,-0.1 -0.2,-0.2 -0.3,-0.2c-1,-1 -1.6,-2.4 -1.6,-3.8c0,-3 2.4,-5.4 5.4,-5.4c1.5,0 2.8,0.6 3.8,1.6s1.6,2.4 1.6,3.8c0,1.6 -0.7,3.1 -1.8,4.1l0.6,0.6c1.3,-1.2 2.1,-2.8 2.1,-4.7c0,-1.7 -0.7,-3.3 -1.9,-4.5s-2.8,-1.9 -4.5,-1.9c-3.5,0 -6.3,2.8 -6.3,6.3c0,1.7 0.7,3.3 1.9,4.5c0.2,0 0.3,0.1 0.4,0.2z"/>
   </g>
  </g>
  <g class="target" id="meter">
   <g id="svg_112">
    <path id="svg_113" d="m413.4,77.3c-37.7,0 -68.4,30.7 -68.4,68.4c0,5.5 0.6,10.9 1.9,16.2l23,83.5c2.6,9.8 8.8,21.4 23.6,21.4l10,0l0,-8.5l-9.9,0c-4.9,0 -11.9,-1.5 -15.4,-14.9l-18.8,-66.2l-4.3,-17.2c-1.1,-4.4 -1.7,-9.3 -1.7,-14.3c0,-32 25.2,-58.2 56.9,-59.8c1,-0.1 2,-0.1 3,-0.1s2,0 3,0.1c31.6,1.6 56.9,27.8 56.9,59.8c0,5 -0.6,9.8 -1.7,14.3l-4.3,17.4l-18.8,66.2c-3.5,13.3 -10.5,14.8 -15.4,14.8l-9.9,0l0,8.5l9.9,0c11.8,0 20,-7.4 23.6,-21.4l23,-83.6c1.4,-5 2.1,-10.4 2.1,-16.2c0.1,-37.7 -30.6,-68.4 -68.3,-68.4z" class="white"/>
    <path id="svg_114" d="m413.4,71.7c-40.8,0 -74,33.2 -74,74c0,5.9 0.7,11.8 2.1,17.6l23,83.6c4.4,16.5 14.7,25.6 29,25.6l10,0l0,48.7l19.7,0l0,-48.7l9.9,0c14.5,0 24.8,-9.1 29,-25.6l23,-83.6c1.5,-5.5 2.3,-11.4 2.3,-17.7c0,-40.7 -33.2,-73.9 -74,-73.9zm66.3,90.2l-23,83.6c-3.6,14 -11.8,21.4 -23.6,21.4l-9.9,0l0,-8.5l9.9,0c4.9,0 11.9,-1.5 15.4,-14.8l18.8,-66.2l4.3,-17.4c1.1,-4.5 1.7,-9.3 1.7,-14.3c0,-32 -25.2,-58.2 -56.9,-59.8c-1,-0.1 -2,-0.1 -3,-0.1s-2,0 -3,0.1c-31.6,1.6 -56.9,27.8 -56.9,59.8c0,5 0.6,9.8 1.7,14.3l4.2,17.4l18.8,66.2c3.5,13.3 10.5,14.9 15.4,14.9l9.9,0l0,8.5l-10,0c-14.8,0 -21,-11.6 -23.6,-21.4l-23,-83.5c-1.3,-5.3 -1.9,-10.8 -1.9,-16.2c0,-37.7 30.7,-68.4 68.4,-68.4s68.4,30.7 68.4,68.4c0,5.5 -0.7,10.9 -2.1,16zm-70.6,153.7l0,-65.7l8.5,0l0,65.7l-8.5,0zm58,-170.5c0,29.6 -24.1,53.7 -53.7,53.7c-29.6,0 -53.7,-24.1 -53.7,-53.7s24.1,-53.7 53.7,-53.7c29.6,0 53.7,24.1 53.7,53.7zm-53.7,59.3c19.1,0 36.1,-9.1 47,-23.2l-17.3,60.8c-2.8,10.7 -7.5,10.7 -10,10.7l-9.9,0l0,-8.5l-19.7,0l0,8.5l-9.9,0c-2.5,0 -7.1,0 -10,-10.8l-17.3,-61c10.8,14.3 27.9,23.5 47.1,23.5z"/>
    <path id="svg_115" d="m359.7,145.1c0,29.6 24.1,53.7 53.7,53.7c29.6,0 53.7,-24.1 53.7,-53.7s-24.1,-53.7 -53.7,-53.7c-29.6,0 -53.7,24.1 -53.7,53.7zm96.3,0l0,3.4l-85.2,0l0,-3.4c0,-23.5 19.1,-42.6 42.6,-42.6s42.6,19.1 42.6,42.6z" class="white"/>
    <path id="svg_116" d="m413.4,108.1c-19.6,0 -35.8,15.4 -36.9,34.8l73.8,0c-1.2,-19.4 -17.3,-34.8 -36.9,-34.8z" class="white"/>
    <path id="svg_117" d="m370.8,145.1l0,3.4l85.2,0l0,-3.4c0,-23.5 -19.1,-42.6 -42.6,-42.6s-42.6,19.1 -42.6,42.6zm5.7,-2.2c1.2,-19.4 17.3,-34.8 36.9,-34.8c19.6,0 35.8,15.4 36.9,34.8l-73.8,0z"/>
    <rect id="svg_118" height="65.7" width="8.5" class="white" y="249.9" x="409.1"/>
   </g>
   <g id="svg_119" class="device_signal">
    <path id="svg_120" d="m412.8,187.7l-4.6,-4.6c-0.3,-0.3 -0.3,-0.9 0,-1.2l4.6,-4.6c0.3,-0.3 0.9,-0.3 1.2,0l4.6,4.6c0.3,0.3 0.3,0.9 0,1.2l-4.6,4.6c-0.3,0.3 -0.8,0.3 -1.2,0z"/>
    <path id="svg_121" d="m408.8,177.9l1.1,-1.1c-1.3,-1 -2.1,-2.6 -2.1,-4.3c0,-3.1 2.5,-5.5 5.5,-5.5c1.5,0 2.9,0.6 3.9,1.6s1.6,2.4 1.6,3.9c0,1.7 -0.8,3.3 -2.1,4.3l1.1,1.1c1.5,-1.3 2.5,-3.2 2.5,-5.4c0,-1.9 -0.7,-3.7 -2.1,-5c-1.3,-1.3 -3.1,-2.1 -5,-2.1c-3.9,0 -7.1,3.2 -7.1,7.1c0.2,2.1 1.2,4.1 2.7,5.4z"/>
    <path id="svg_122" d="m406,180.7l1.1,-1.1c-0.2,-0.1 -0.3,-0.3 -0.5,-0.4c-1.8,-1.8 -2.8,-4.2 -2.8,-6.7c0,-5.2 4.3,-9.5 9.5,-9.5c2.5,0 4.9,1 6.7,2.8s2.8,4.2 2.8,6.7c0,2.8 -1.2,5.4 -3.2,7.1l1.1,1.1c2.2,-2 3.7,-5 3.7,-8.2c0,-3 -1.2,-5.7 -3.2,-7.8c-2.1,-2.1 -4.9,-3.2 -7.8,-3.2c-6.1,0 -11.1,5 -11.1,11.1c0,3 1.2,5.7 3.2,7.8c0.2,0 0.3,0.1 0.5,0.3z"/>
   </g>
   <g id="meter_time">
    <g id="svg_123" class="text">
     <rect id="svg_124" height="17" width="45" y="121" x="389" class="white"/>
     <text x="-201" y="0" id="svg_125" class="grey st11 st12" transform="matrix(1,0,0,1,592.8517,135.975) ">00:00</text>
    </g>
    <g id="svg_126" class="text">
     <rect id="svg_127" height="17" width="45" y="121" x="389" class="white"/>
     <text x="-201" y="0" id="svg_128" class="grey st11 st12" transform="matrix(1,0,0,1,592.8517,135.975) ">00:10</text>
    </g>
    <g id="svg_129" class="text">
     <rect id="svg_130" height="17" width="45" y="121" x="389" class="white"/>
     <text x="-201" y="0" id="svg_131" class="grey st11 st12" transform="matrix(1,0,0,1,592.8517,135.975) ">00:20</text>
    </g>
    <g id="svg_132" class="text">
     <rect id="svg_133" height="17" width="45" y="121" x="389" class="white"/>
     <text x="-201" y="0" id="svg_134" class="grey st11 st12" transform="matrix(1,0,0,1,592.8517,135.975) ">00:30</text>
    </g>
   </g>
  </g>
  <g id="signal">
   <rect id="svg_135" height="100" width="120" class="white" y="145" x="354"/>
   <path id="svg_136" d="m412.7,225.6l-8.6,-8.6c-0.7,-0.7 -0.7,-1.7 0,-2.3l8.6,-8.6c0.7,-0.7 1.7,-0.7 2.3,0l8.6,8.6c0.7,0.7 0.7,1.7 0,2.3l-8.6,8.6c-0.9,0.6 -1.9,0.6 -2.3,0zm-7.6,-18.6l2,-2c-2.3,-2 -4,-5 -4,-8.3c0,-5.6 4.6,-10.6 10.6,-10.6c2.6,0 5.3,1 7.3,3c2,2 3,4.6 3,7.3c0,3.3 -1.7,6.3 -4,8.3l2,2c3,-2.3 4.6,-6.3 4.6,-10.3c0,-3.6 -1.3,-7 -4,-9.6c-2.6,-2.6 -6,-4 -9.6,-4c-7.3,0 -13.6,6 -13.6,13.6c0.8,4.3 2.7,8.3 5.7,10.6zm-5.3,5.3l2,-2c-0.3,-0.3 -0.7,-0.7 -1,-0.7c-3.3,-3.3 -5.3,-7.9 -5.3,-12.6c0,-9.9 7.9,-17.9 17.9,-17.9c5,0 9.3,2 12.6,5.3c3.3,3.3 5.3,7.9 5.3,12.6c0,5.3 -2.3,10.3 -6,13.6l2,2c4.3,-4 7,-9.3 7,-15.6c0,-5.6 -2.3,-10.9 -6.3,-14.9c-4,-4 -9.3,-6.3 -14.9,-6.3c-11.6,0 -20.9,9.3 -20.9,20.9c0,5.6 2.3,10.9 6.3,14.9c0.7,0.1 1,0.4 1.3,0.7z" class="active"/>
  </g>
 </g>
</svg>