<svg width="600" height="450" xmlns="http://www.w3.org/2000/svg" viewBox="0 0 600 450">
 <style type="text/css">
  .st1{fill:#0563C9;}
  .st3{fill:#1871E8;}
  .st4{font-weight:400;}
  .st5{font-size:16.3187px;}
  .st6{font-weight:700;}
  .st7{font-size:8px;}
  .st8{font-weight: 800;}
  .st9{font-size:16.8388px;}
  .st10{font-size:24.635px;}
  .st11{font-weight: 400;}
  .st12{font-size:16.3299px;}</style>

 <g>
  <title>background</title>
  <rect fill="none" id="canvas_background" height="450" width="600" y="-1" x="-1" class="grey-lighter" />
 </g>
 <g>
  <title>Layer 1</title>
  <g class="phone">
   <path d="m170.8,277.7l-93.1,0l0,-161.7l93.1,0l0,161.7z" class="white"/>
   
   <g class="phone_content" id="pet_content">
    <path d="m170.8,277.7l-93.1,0l0,-161.7l93.1,0l0,161.7z" class="white"/>
    <path d="m124.1,156.8c1,0 1.2,-0.5 1.2,-1c-0.1,0 -0.2,0 -0.3,0l-1.8,0c-0.1,0 -0.2,0 -0.3,0c0,0.3 0.2,1 1.2,1z"/>
    <path d="m124.2,183c15.7,0 28.5,-12.8 28.5,-28.5s-12.8,-28.5 -28.5,-28.5s-28.5,12.8 -28.5,28.5s12.8,28.5 28.5,28.5zm-17.4,-30.7c1.7,-1.5 2.2,-3 2.7,-4.3c0.3,-1 0.6,-1.9 1.4,-2.6c0.8,-0.8 1.8,-0.7 2.6,-0.7c0.5,0 0.9,0.1 1.2,0c0.8,-0.2 1.4,-0.6 2.2,-1c1.6,-0.8 3.6,-1.9 7.2,-1.9l0,0c3.6,0 5.7,1.1 7.3,1.9c0.7,0.4 1.4,0.7 2,0.9c0.3,0.1 0.7,0 1.1,0c0.8,-0.1 1.9,-0.1 2.7,0.7c0.8,0.7 1.1,1.7 1.4,2.7c0.4,1.3 0.9,2.7 2.6,4.2c1.8,1.5 2.5,2.7 2.6,3.9c0,1.1 -0.6,1.9 -1.3,2.7c-1,1 -1.9,2 -2.6,2.8l-0.4,0.5c-1,1.2 -2.3,1.9 -3.4,1.9c-0.1,0 -0.1,0 -0.2,0c-3.2,2.9 -7.4,4.6 -11.9,4.6c-4.4,0 -8.6,-1.6 -11.8,-4.6c-1.3,0.2 -2.8,-0.5 -3.9,-1.9c-0.5,-0.6 -1.1,-1.3 -1.9,-2.1c-0.3,-0.4 -0.7,-0.7 -1,-1.1c-0.7,-0.7 -1.3,-1.6 -1.3,-2.7c0.2,-1.2 1,-2.4 2.7,-3.9z"/>
    <path d="m122.8,162.3c0,0.7 0.6,1.3 1.3,1.3c0.7,0 1.3,-0.6 1.3,-1.3l0,-0.4c-0.2,-0.2 -0.3,-0.3 -0.5,-0.5c-0.4,-0.4 -0.6,-0.7 -0.9,-0.7c-0.2,0 -0.6,0.3 -0.9,0.7c-0.1,0.1 -0.3,0.3 -0.4,0.4l0,0.5l0.1,0z"/>
    <path d="m107.9,158.8c0.8,0.9 1.5,1.6 2,2.3c0.7,0.9 1.7,1.5 2.3,1.3c0.7,-0.2 1.2,-1.4 1.3,-3.3c0.1,-3.5 -0.2,-6.3 -1,-8.2l1.6,-0.7c0.9,2.2 1.3,5.1 1.2,9c-0.1,2.1 -0.6,3.3 -1.2,4c2.9,2.5 6.5,3.8 10.3,3.8s7.3,-1.3 10.2,-3.6c-0.7,-0.7 -1.2,-1.9 -1.4,-4.1c-0.2,-3.8 0.2,-6.8 1.2,-9l1.6,0.7c-0.8,1.9 -1.2,4.8 -1,8.2c0.1,1.8 0.6,3 1.2,3.3c0.6,0.2 1.5,-0.3 2.3,-1.3l0.4,-0.5c0.7,-0.8 1.6,-1.8 2.6,-2.9c0.6,-0.6 0.9,-1 0.8,-1.4c0,-0.4 -0.4,-1.2 -2,-2.7c-2.1,-1.8 -2.6,-3.5 -3.1,-4.9c-0.3,-0.8 -0.5,-1.5 -1,-2c-0.3,-0.3 -0.7,-0.3 -1.4,-0.2c-0.5,0 -1.1,0.1 -1.7,-0.1c-0.9,-0.3 -1.6,-0.6 -2.4,-1c-1.5,-0.8 -3.3,-1.7 -6.5,-1.7s-4.8,0.9 -6.4,1.7c-0.8,0.4 -1.6,0.8 -2.5,1.1c-0.6,0.2 -1.3,0.2 -1.9,0.1c-0.7,-0.1 -1,-0.1 -1.3,0.2c-0.5,0.5 -0.7,1.1 -1,1.9c-0.5,1.4 -1.1,3.2 -3.2,5c-1.6,1.4 -1.9,2.2 -2,2.6c0,0.4 0.3,0.8 0.8,1.4c0.5,0.3 0.8,0.7 1.2,1zm21.2,-8.7c1,0 2,0.5 2.5,1.4l-1.4,1c-0.2,-0.4 -0.7,-0.6 -1.1,-0.6c-0.3,0 -0.6,0.1 -0.9,0.3l-1,-1.4c0.6,-0.4 1.2,-0.7 1.9,-0.7zm-5.9,4l1.8,0c0.8,0 2.1,0 2.1,1.7c0,1.3 -0.9,2.8 -3,2.8c-2.2,0 -3,-1.7 -3,-2.8c0,-1.5 1,-1.7 2.1,-1.7zm-4.1,-4c0.7,0 1.3,0.2 1.9,0.7l-1,1.4c-0.3,-0.2 -0.6,-0.3 -0.9,-0.3c-0.4,0 -0.8,0.2 -1.1,0.6l-1.4,-1c0.5,-0.8 1.5,-1.4 2.5,-1.4zm-1.2,8.9c0,0 0.3,2.4 1.9,2.4c1,0 1.5,-0.5 2.1,-1.2c0.6,-0.6 1.2,-1.2 2.2,-1.2s1.6,0.6 2.1,1.2c0.6,0.6 1.1,1.2 2.2,1.2c1.7,0 1.9,-2.3 1.9,-2.4l1.7,0.2c-0.1,1.4 -1.1,4 -3.7,4c-0.5,0 -0.9,-0.1 -1.3,-0.2c-0.3,1.4 -1.5,2.4 -3,2.4s-2.7,-1 -3,-2.4c-0.4,0.1 -0.8,0.2 -1.3,0.2c-2.5,0 -3.5,-2.6 -3.7,-4l1.9,-0.2z"/>
    <path d="m106.4,160.1c0.8,0.8 1.4,1.5 1.9,2.1c1.1,1.4 2.6,2.1 3.9,1.9c3.2,3 7.4,4.6 11.8,4.6c4.5,0 8.6,-1.6 11.9,-4.6c0.1,0 0.1,0 0.2,0c1.1,0 2.4,-0.7 3.4,-1.9l0.4,-0.5c0.7,-0.8 1.5,-1.7 2.6,-2.8c0.7,-0.7 1.4,-1.5 1.3,-2.7c0,-1.2 -0.8,-2.4 -2.6,-3.9c-1.7,-1.5 -2.2,-2.9 -2.6,-4.2c-0.3,-1 -0.6,-1.9 -1.4,-2.7s-1.9,-0.8 -2.7,-0.7c-0.4,0 -0.8,0.1 -1.1,0c-0.7,-0.2 -1.3,-0.5 -2,-0.9c-1.6,-0.9 -3.7,-1.9 -7.3,-1.9l0,0c-3.6,0 -5.6,1.1 -7.2,1.9c-0.8,0.4 -1.4,0.7 -2.2,1c-0.3,0.1 -0.8,0.1 -1.2,0c-0.8,-0.1 -1.8,-0.1 -2.6,0.7c-0.7,0.7 -1,1.6 -1.4,2.6c-0.4,1.3 -0.9,2.7 -2.7,4.3c-1.7,1.5 -2.5,2.7 -2.5,3.8c-0.1,1.2 0.6,2 1.3,2.7c0.1,0.5 0.5,0.8 0.8,1.2zm1.5,-6.3c2.1,-1.8 2.7,-3.6 3.2,-5c0.3,-0.8 0.5,-1.5 1,-1.9c0.2,-0.2 0.6,-0.2 1.3,-0.2c0.6,0 1.2,0.1 1.9,-0.1c0.9,-0.3 1.7,-0.7 2.5,-1.1c1.6,-0.8 3.2,-1.7 6.4,-1.7c3.2,0 4.9,0.9 6.5,1.7c0.8,0.4 1.5,0.8 2.4,1c0.6,0.1 1.2,0.1 1.7,0.1c0.7,0 1.1,-0.1 1.4,0.2c0.5,0.5 0.7,1.1 1,2c0.5,1.4 1.1,3.1 3.1,4.9c1.6,1.4 2,2.2 2,2.7c0,0.4 -0.2,0.7 -0.8,1.4c-1.1,1.1 -2,2.1 -2.6,2.9l-0.4,0.5c-0.8,0.9 -1.7,1.5 -2.3,1.3c-0.7,-0.2 -1.1,-1.4 -1.2,-3.3c-0.1,-3.5 0.2,-6.3 1,-8.2l-1.6,-0.7c-0.9,2.2 -1.3,5.2 -1.2,9c0.1,2.2 0.7,3.4 1.4,4.1c-2.8,2.4 -6.4,3.6 -10.2,3.6c-3.8,0 -7.4,-1.4 -10.3,-3.8c0.6,-0.7 1.1,-1.9 1.2,-4c0.1,-3.8 -0.2,-6.8 -1.2,-9l-1.6,0.7c0.8,1.9 1.2,4.7 1,8.2c-0.1,1.8 -0.6,3.1 -1.3,3.3c-0.6,0.2 -1.5,-0.3 -2.3,-1.3c-0.5,-0.7 -1.2,-1.4 -2,-2.3c-0.3,-0.3 -0.7,-0.7 -1,-1.1c-0.6,-0.6 -0.8,-1 -0.8,-1.4c-0.2,-0.4 0.2,-1.2 1.8,-2.5z" class="white"/>
    <path d="m119.8,163.2c0.5,0 0.9,-0.1 1.3,-0.2c0.3,1.4 1.5,2.4 3,2.4s2.7,-1 3,-2.4c0.4,0.1 0.8,0.2 1.3,0.2c2.6,0 3.5,-2.6 3.7,-4l-1.7,-0.2c0,0.1 -0.3,2.4 -1.9,2.4c-1.1,0 -1.6,-0.5 -2.2,-1.2c-0.5,-0.6 -1.1,-1.2 -2.1,-1.2s-1.6,0.6 -2.2,1.2s-1.1,1.2 -2.1,1.2c-1.6,0 -1.9,-2.4 -1.9,-2.4l-1.7,0.2c0,1.4 1,4 3.5,4zm3.4,-1.7c0.4,-0.4 0.7,-0.7 0.9,-0.7c0.2,0 0.5,0.3 0.9,0.7c0.1,0.2 0.3,0.3 0.5,0.5l0,0.4c0,0.7 -0.6,1.3 -1.3,1.3s-1.3,-0.6 -1.3,-1.3l0,-0.4c0,-0.3 0.2,-0.4 0.3,-0.5z" class="white"/>
    <path d="m124.1,158.6c2,0 3,-1.4 3,-2.8c0,-1.7 -1.3,-1.7 -2.1,-1.7l-1.8,0c-1.1,0 -2.1,0.2 -2.1,1.7c0,1.1 0.8,2.8 3,2.8zm-0.9,-2.7l1.8,0c0.1,0 0.2,0 0.3,0c0,0.5 -0.3,1 -1.2,1c-1,0 -1.2,-0.7 -1.2,-1c0.1,0 0.2,0 0.3,0z" class="white"/>
    <path d="m119.1,151.9c0.3,0 0.6,0.1 0.9,0.3l1,-1.4c-0.6,-0.4 -1.3,-0.7 -1.9,-0.7c-1,0 -2,0.5 -2.5,1.4l1.4,1c0.3,-0.4 0.7,-0.6 1.1,-0.6z" class="white"/>
    <path d="m129.1,151.9c0.4,0 0.8,0.2 1.1,0.6l1.4,-1c-0.6,-0.9 -1.5,-1.4 -2.5,-1.4c-0.7,0 -1.3,0.2 -1.9,0.7l1,1.4c0.3,-0.2 0.6,-0.3 0.9,-0.3z" class="white"/>
    <text x="-201" y="0" class="grey st4 st5" transform="matrix(1,0,0,1,306.3426,207.4081) " id="spot">Spot</text>
    <g id="call_button">
     <path d="m85.7,269.8l77.1,0l0,-49l-77.1,0l0,49zm30.8,-19.8l3.5,-0.6l1.2,4c0.3,0.8 -0.9,2 -0.9,2c0.6,2.3 3.5,5.2 5.8,5.8c0,0 1.1,-1.2 2,-0.9l4,1.2l-0.6,3.5c-8.1,0.6 -15.6,-6.9 -15,-15z" id="call_button_bg"/>
     <path d="m131.5,265l0.6,-3.5l-4,-1.2c-0.9,-0.3 -2,0.9 -2,0.9c-2.3,-0.6 -5.2,-3.5 -5.8,-5.8c0,0 1.2,-1.2 0.9,-2l-1.2,-4l-3.5,0.6c-0.6,8.1 6.9,15.6 15,15z" class="white"/>
     <text x="-201" y="0"  class="white st6 st7" transform="matrix(1,0,0,1,298.9803,234.4096) ">Call Humane</text>
     <text x="-201" y="0"  class="white st6 st7" transform="matrix(1,0,0,1,310.4803,243.4096) ">Society</text>
    </g>
   </g>
   <g id="content_mask">
    <rect height="200" width="150" y="-100" x="49" class="grey-lighter"/>
    <rect height="200" width="150" y="300" x="49" class="grey-lighter"/>
    <path d="m124.4,290.4c-2.5,0 -4.6,2.1 -4.6,4.6s2.1,4.6 4.6,4.6s4.6,-2.1 4.6,-4.6s-2.1,-4.6 -4.6,-4.6z" class="white"/>
    <path  d="m124.4,284.8c-5.6,0 -10.2,4.6 -10.2,10.2c0,5.6 4.6,10.2 10.2,10.2s10.2,-4.6 10.2,-10.2c0,-5.6 -4.6,-10.2 -10.2,-10.2zm0,14.8c-2.5,0 -4.6,-2.1 -4.6,-4.6s2.1,-4.6 4.6,-4.6s4.6,2.1 4.6,4.6s-2.1,4.6 -4.6,4.6z"/>
    <path d="m72.1,283.3l104.3,0l0,-172.9l-104.3,0l0,172.9zm5.6,-167.3l93.1,0l0,161.7l-93.1,0l0,-161.7z"/>
    <path d="m172.6,95.1l-96.7,0c-4.7,0 -8.6,3.9 -8.6,8.6l0,194.5c0,4.7 3.9,8.6 8.6,8.6l96.7,0c2.3,0 4.5,-0.9 6.1,-2.6c1.6,-1.6 2.5,-3.8 2.5,-6.1l0,-194.4c0,-4.7 -3.9,-8.6 -8.6,-8.6zm-48.2,210.1c-5.6,0 -10.2,-4.6 -10.2,-10.2c0,-5.6 4.6,-10.2 10.2,-10.2s10.2,4.6 10.2,10.2c0,5.6 -4.6,10.2 -10.2,10.2zm52,-21.9l-104.3,0l0,-172.9l104.3,0l0,172.9l0,0z" class="white"/>
    <path  d="m172.6,89.5l-96.7,0c-7.8,0 -14.2,6.4 -14.2,14.2l0,194.5c0,7.8 6.4,14.2 14.2,14.2l96.7,0c3.8,0 7.4,-1.5 10.1,-4.3c2.7,-2.7 4.1,-6.3 4.1,-10l0,-194.4c0,-7.8 -6.4,-14.2 -14.2,-14.2zm8.6,208.6c0,2.3 -0.8,4.4 -2.5,6.1c-1.6,1.7 -3.8,2.6 -6.1,2.6l-96.7,0c-4.7,0 -8.6,-3.9 -8.6,-8.6l0,-194.5c0,-4.7 3.9,-8.6 8.6,-8.6l96.7,0c4.7,0 8.6,3.9 8.6,8.6l0,194.4l0,0z"/>
   </g>
  </g>

  <g class="target" id="pet">
   <g id="tail">
    <path d="m456.3,261.6l0,-5.6c16,-0.1 27.7,-14 31.5,-19.2l-6.9,-6.2l3.8,-1.8c12.7,-6.1 18.5,-25.3 19.9,-30.8l-4.3,-4.2l0.5,-1.6c2.5,-8.2 0.3,-12.7 -2,-15.1c-3.2,15.8 -20.7,31.3 -21.5,32l-1.9,1.7l-3.8,-3.5c-1.6,6.4 -6.4,17.2 -20.3,26.4l-3.1,-4.7c18.5,-12.3 18.6,-27.2 18.6,-27.3l0,-6.4l8.6,7.9c5,-4.8 18.3,-18.8 18.3,-30.9l0,-4l3.7,1.3c4.8,1.7 12.7,8.5 9.2,22.5l4.1,4l-0.3,1.5c-0.2,1.1 -5.3,24.1 -19.8,34.1l4.5,4l-1.2,2c-0.6,1 -14.9,23.8 -37.6,23.9z"/>
    <path d="m456.3,255.9c16,-0.1 27.7,-14 31.5,-19.2l-6.9,-6.2l3.8,-1.8c12.7,-6.1 18.5,-25.3 19.9,-30.8l-4.3,-4.2l0.5,-1.6c2.5,-8.2 0.3,-12.7 -2,-15.1c-3.2,15.8 -20.7,31.3 -21.5,32l-1.9,1.7l-3.8,-3.5c-1.6,6.4 -6.4,17.2 -20.3,26.4l5,22.3z" class="white"/>
   </g>
   <g>
    <path d="m394.1,178.7c5.6,0 10.1,4.5 10.1,10.1s-4.5,10.1 -10.1,10.1c-5.6,0 -10.1,-4.5 -10.1,-10.1s4.5,-10.1 10.1,-10.1zm-33,-64.9l5.2,-2.1c3.6,9.3 3.4,20.8 3.2,25.3c-0.3,6.2 -1.9,9.7 -3.8,11.7l6,4.8l-5.7,5.3c7.2,7.9 17.4,12.3 28.3,12.3c10.9,0 21,-4.4 28.2,-12.1l-6,-5.5l6,-4.8c-1.9,-2 -3.4,-5.5 -3.8,-11.7c-0.3,-4.5 -0.4,-16 3.2,-25.3l5.2,2.1c-3.2,8.2 -3,18.8 -2.8,22.9c0.3,5.8 1.8,8.3 3.2,8.8c1.5,0.5 4,-0.9 5.9,-3.4c2.2,-2.7 5.1,-6.1 8.4,-9.4c1.7,-1.7 2.3,-2.7 2.2,-3.6c0,-1.1 -1,-3.3 -5.3,-7.1c-5.9,-5.1 -7.5,-10.1 -8.8,-14.1c-0.8,-2.3 -1.3,-4.1 -2.6,-5.4c-0.5,-0.5 -1.4,-0.5 -3.4,-0.4c-1.6,0.1 -3.4,0.2 -5.2,-0.3c-2.4,-0.7 -4.4,-1.8 -6.6,-3c-4.5,-2.4 -9.1,-4.8 -18,-4.8c-8.9,0 -13.5,2.4 -17.9,4.8c-2.2,1.2 -4.3,2.2 -6.7,3c-1.9,0.6 -3.7,0.4 -5.3,0.3c-1.9,-0.1 -2.8,-0.1 -3.4,0.4c-1.3,1.3 -1.9,3.1 -2.6,5.4c-1.3,4 -2.9,9 -8.8,14.1c-4.3,3.8 -5.3,5.9 -5.3,7.1c0,1 0.6,2 2.2,3.6c3.4,3.4 6.5,6.9 8.5,9.5c1.9,2.4 4.4,3.8 5.8,3.3c1.3,-0.4 2.9,-3 3.2,-8.8c0.3,-4.1 0.5,-14.6 -2.7,-22.9zm-20,119.3c-3.9,4.9 -6.3,10.8 -6.7,17c-0.8,12.2 6.4,23 6.4,23.2l2.1,3.1l-3.5,1.2c-0.1,0 -12.9,4.3 -16.7,5.9c-0.6,0.3 -1.1,1.4 -0.9,2.4c0.3,1.5 2,2.3 4.7,2.3l0.1,0l21,-0.6c0.1,-0.1 0.1,-0.3 0.2,-0.4c1.5,-3 3,-6.1 3,-10.7l0,-19.1c-5.8,-4.2 -8.6,-13.5 -9.7,-24.3zm93.6,54.3c-1.3,-2.9 -2.6,-6.4 -2.6,-11.1l0,-65.2l5.6,0l0,37.7c7.1,-12.5 4.6,-46.6 0.7,-68.2l-0.3,-1.9l3.5,-2.2c-1.7,-4.3 -6.6,-7.9 -11.8,-11.7c-1,-0.7 -2,-1.5 -3.1,-2.3c-6.3,6.9 -14.6,11.6 -23.8,13.4c4,2.8 6.7,7.5 6.7,12.9c0,8.7 -7,15.7 -15.7,15.7s-15.7,-7 -15.7,-15.7c0,-5.3 2.7,-10.1 6.8,-12.9c-9.1,-1.9 -17.2,-6.5 -23.5,-13.3c-1,0.8 -2,1.5 -3.1,2.3c-5.2,3.8 -10.1,7.4 -11.8,11.7l3.5,2.2l-0.3,1.9c-3.9,21.7 -6.4,56 0.8,68.4l0,-37.9l5.6,0l0,65.2c0,4.7 -1.3,8.2 -2.6,11.1l-2.5,5.6c-0.3,0.8 -0.4,1.5 -0.4,2.3c0,1.3 0,3.4 6.4,3.4c0.5,0 1.1,0 1.8,0.1c2.1,0.1 4.7,0.3 6,-1c1.1,-1.1 1.4,-3.1 1.5,-4.8l0,-5.6l0,-44.6l5.8,2.6l0,-12.8l5.6,0l0,21.3l-5.8,-2.6l0,35.9l44.1,0l0,-35.9l-5.8,2.6l0,-21.3l5.6,0l0,12.7l5.8,-2.6l0,44.6l0,5.6c0,1.7 0.3,3.7 1.5,4.8c1.4,1.3 3.9,1.1 6,1c0.7,0 1.3,-0.1 1.8,-0.1c6.4,0 6.4,-2.1 6.4,-3.4c0,-0.8 -0.2,-1.5 -0.4,-2.3l-2.3,-5.6zm31.2,-4c-3.7,-1.6 -16.5,-5.9 -16.7,-5.9l-3.5,-1.2l2.1,-3.1c0.1,-0.1 7.2,-10.9 6.4,-23.1c-0.4,-6.2 -2.8,-12.2 -6.7,-17c-1.1,10.8 -3.8,20 -9.7,24l0,19.2c0,4.6 1.5,7.7 3,10.7c0.1,0.1 0.1,0.3 0.2,0.4l21,0.6l0.1,0c2.6,0 4.4,-0.8 4.7,-2.3c0.2,-0.9 -0.3,-2.1 -0.9,-2.3z" class="white"/>
    <path d="m468.1,278.2c-2.8,-1.2 -9.7,-3.6 -13.8,-5c2.4,-4.5 6.2,-13.5 5.5,-23.5c-0.6,-9.2 -4.9,-18 -11.8,-24.3c0.5,-17.7 -2.4,-37.1 -3.6,-43.9l3.7,-2.3l-0.3,-1.9c-1.3,-7.3 -8,-12.2 -14.5,-17c-1.7,-1.2 -3.4,-2.5 -5,-3.8l-2.2,-1.8l0,0l-1,-0.9l3.2,-2.6l0,-0.1c3.3,0 6.7,-2 9.6,-5.6c2,-2.6 4.9,-5.8 8,-9c1.4,-1.4 4,-4.1 3.8,-7.8c-0.1,-3.4 -2.3,-6.8 -7.2,-11.1c-4.7,-4.1 -6,-7.9 -7.2,-11.6c-0.9,-2.8 -1.8,-5.4 -4,-7.6c-2.4,-2.4 -5.4,-2.2 -7.7,-2c-1.2,0.1 -2.4,0.2 -3.2,-0.1c-1.9,-0.6 -3.6,-1.5 -5.6,-2.5c-4.6,-2.4 -10.3,-5.4 -20.6,-5.5l-0.2,0c-10.2,0 -15.9,3 -20.4,5.4c-2,1.1 -3.8,2 -5.7,2.6c-0.9,0.3 -2,0.2 -3.3,0.1c-2.4,-0.2 -5.3,-0.4 -7.7,2c-2.2,2.2 -3.1,4.8 -4,7.6c-1.2,3.7 -2.5,7.5 -7.2,11.6c-4.9,4.2 -7.2,7.8 -7.3,11.2c-0.1,3.4 1.9,5.8 3.9,7.7c3.2,3.2 6.1,6.5 8,9c2.8,3.6 6.3,5.6 9.6,5.6l0,0l3.2,2.6l-2.9,2.7l0,0.1c-1.6,1.3 -3.3,2.5 -4.9,3.7c-6.5,4.8 -13.2,9.7 -14.5,17l-0.3,1.9l3.7,2.3c-1.2,6.8 -4.1,26.2 -3.6,43.9c-7,6.3 -11.3,15.1 -11.8,24.3c-0.7,10 3.1,19 5.5,23.5c-4.2,1.4 -11.1,3.8 -13.9,5c-3.2,1.4 -4.9,5.1 -4.2,8.8c0.4,1.7 2.2,6.8 10.4,6.8c0.1,0 0.1,0 0.2,0l18.8,-0.6c-0.1,0.7 -0.2,1.4 -0.2,2.2c0,4.1 2.1,9 12,9c0.4,0 0.9,0 1.4,0.1c0.8,0.1 1.6,0.1 2.6,0.1c2.5,0 5.4,-0.4 7.7,-2.6c2.1,-2 3.2,-5 3.2,-8.9l44.1,0c0.1,4 1.2,7 3.2,8.9c2.3,2.1 5.2,2.6 7.7,2.6c0.9,0 1.8,-0.1 2.6,-0.1c0.5,0 1,-0.1 1.4,-0.1c9.9,0 12,-4.9 12,-9c0,-0.7 -0.1,-1.5 -0.2,-2.2l18.8,0.6c0.1,0 0.1,0 0.2,0c8.1,0 9.9,-5.1 10.2,-6.7c0.8,-3.6 -1,-7.4 -4.2,-8.8zm-107.4,-132.6c-1.5,0.5 -4,-1 -5.8,-3.3c-2,-2.6 -5.1,-6.1 -8.5,-9.5c-1.6,-1.6 -2.3,-2.6 -2.2,-3.6c0,-1.2 1,-3.3 5.3,-7.1c5.9,-5.1 7.5,-10.1 8.8,-14.1c0.8,-2.3 1.3,-4.1 2.6,-5.4c0.5,-0.5 1.4,-0.5 3.4,-0.4c1.6,0.1 3.4,0.2 5.3,-0.3c2.4,-0.7 4.5,-1.8 6.7,-3c4.5,-2.4 9.1,-4.8 17.9,-4.8c8.9,0 13.5,2.5 18,4.8c2.2,1.1 4.2,2.2 6.6,3c1.9,0.5 3.7,0.4 5.2,0.3c1.9,-0.1 2.8,-0.1 3.4,0.4c1.3,1.3 1.8,3.1 2.6,5.4c1.3,4 2.9,9 8.8,14.1c4.3,3.8 5.2,6 5.3,7.1c0,0.9 -0.6,1.9 -2.2,3.6c-3.2,3.3 -6.2,6.7 -8.4,9.4c-1.9,2.4 -4.4,3.9 -5.9,3.4c-1.3,-0.4 -2.9,-3 -3.2,-8.8c-0.2,-4.1 -0.4,-14.7 2.8,-22.9l-5.2,-2.1c-3.6,9.3 -3.4,20.8 -3.2,25.3c0.3,6.2 1.9,9.7 3.8,11.7l-6,4.8l6,5.5c-7.2,7.7 -17.3,12.1 -28.2,12.1c-11,0 -21.2,-4.5 -28.3,-12.3l5.7,-5.3l-6,-4.8c1.9,-2 3.4,-5.5 3.8,-11.7c0.3,-4.5 0.5,-16 -3.2,-25.3l-5.2,2.1c3.2,8.3 3,18.8 2.8,22.9c-0.4,5.8 -2,8.3 -3.3,8.8zm43.5,43.2c0,5.6 -4.5,10.1 -10.1,10.1c-5.6,0 -10.1,-4.5 -10.1,-10.1s4.5,-10.1 10.1,-10.1c5.6,0 10.1,4.5 10.1,10.1zm-56.3,98.2c-0.1,0.1 -0.1,0.3 -0.2,0.4l-21,0.6l-0.1,0c-2.7,0 -4.4,-0.8 -4.7,-2.3c-0.2,-1 0.3,-2.2 0.9,-2.4c3.7,-1.6 16.5,-5.9 16.7,-5.9l3.5,-1.2l-2.1,-3.1c-0.1,-0.1 -7.3,-11 -6.4,-23.2c0.4,-6.2 2.8,-12.2 6.7,-17c1.1,10.8 3.9,20.1 9.8,24.1l0,19.1c-0.1,4.8 -1.6,7.9 -3.1,10.9zm83.4,11.7c-0.5,0 -1.1,0 -1.8,0.1c-2.1,0.1 -4.7,0.3 -6,-1c-1.1,-1.1 -1.4,-3.1 -1.5,-4.8l0,-5.6l0,-44.6l-5.8,2.6l0,-12.7l-5.6,0l0,21.3l5.8,-2.6l0,35.9l-44.1,0l0,-35.9l5.8,2.6l0,-21.3l-5.6,0l0,12.7l-5.8,-2.6l0,44.6l0,5.6c0,1.7 -0.3,3.7 -1.5,4.8c-1.4,1.3 -4,1.1 -6,1c-0.7,0 -1.3,-0.1 -1.8,-0.1c-6.4,0 -6.4,-2.1 -6.4,-3.4c0,-0.8 0.2,-1.5 0.4,-2.3l2.5,-5.6c1.3,-2.9 2.6,-6.4 2.6,-11.1l0,-65.2l-5.6,0l0,37.9c-7.3,-12.4 -4.7,-46.7 -0.8,-68.4l0.3,-1.9l-3.5,-2.2c1.7,-4.3 6.6,-7.9 11.8,-11.7c1,-0.7 2,-1.5 3.1,-2.3c6.2,6.8 14.4,11.5 23.5,13.3c-4.1,2.8 -6.8,7.6 -6.8,12.9c0,8.7 7,15.7 15.7,15.7s15.7,-7 15.7,-15.7c0,-5.3 -2.7,-10 -6.7,-12.9c9.2,-1.8 17.5,-6.4 23.8,-13.4c1,0.8 2,1.5 3.1,2.3c5.2,3.8 10.1,7.4 11.8,11.7l-3.5,2.2l0.3,1.9c3.9,21.6 6.4,55.6 -0.7,68.2l0,-37.7l-5.6,0l0,65.2c0,4.7 1.3,8.2 2.6,11.1l2.5,5.6c0.3,0.8 0.4,1.5 0.4,2.3c-0.2,1.4 -0.2,3.5 -6.6,3.5zm35.5,-12.9c-0.3,1.5 -2,2.3 -4.7,2.3l-0.1,0l-21,-0.6c-0.1,-0.1 -0.1,-0.3 -0.2,-0.4c-1.5,-3 -3,-6.1 -3,-10.7l0,-19.2c5.8,-4 8.6,-13.3 9.7,-24c3.9,4.9 6.3,10.8 6.7,17c0.8,12.2 -6.4,23 -6.4,23.1l-2.1,3.1l3.5,1.2c0.1,0 12.9,4.3 16.7,5.9c0.6,0.1 1.1,1.3 0.9,2.3z"/>
    <path d="m396.6,122.4l-5,0c-2,0 -6,0 -6,5c0,4 2.7,8.2 8.5,8.2s8.5,-4.3 8.5,-8.2c0,-5 -3.9,-5 -6,-5zm-2.5,7.6c-2,0 -2.7,-1 -2.8,-2c0.1,0 0.2,0 0.3,0l5,0c0.1,0 0.2,0 0.3,0c-0.1,1 -0.8,2 -2.8,2z"/>
    <path d="m377.5,118.4l-4.6,-3.2c1.7,-2.5 4.4,-3.9 7.3,-3.9c2.3,0 4.4,0.8 5.9,2.3l-4,4c-0.4,-0.4 -1.1,-0.7 -1.9,-0.7c-1.1,0 -2,0.6 -2.7,1.5z"/>
    <path d="m410.7,118.4c-0.6,-0.9 -1.6,-1.5 -2.7,-1.5c-0.8,0 -1.5,0.2 -1.9,0.7l-4,-4c1.5,-1.5 3.6,-2.3 5.9,-2.3c2.9,0 5.6,1.5 7.3,3.9l-4.6,3.2z"/>
    <path d="m411.1,136.7c0,0.1 -0.6,6.5 -4.9,6.5c-2.7,0 -4.1,-1.4 -5.8,-3.1c-1.5,-1.6 -3.4,-3.5 -6.3,-3.5c-2.9,0 -4.8,1.9 -6.3,3.5c-1.6,1.7 -3.1,3.1 -5.8,3.1c-4.2,0 -4.9,-6.3 -4.9,-6.5l-5.6,0.5c0.4,4 3,11.7 10.5,11.7c1.3,0 2.4,-0.2 3.4,-0.5c1,3.8 4.5,6.7 8.7,6.7s7.7,-2.8 8.7,-6.7c1,0.3 2.1,0.5 3.4,0.5c7.5,0 10.1,-7.6 10.5,-11.7l-5.6,-0.5zm-13.6,9.3c0,1.8 -1.6,3.4 -3.4,3.4s-3.4,-1.6 -3.4,-3.4l0,-0.9c0.4,-0.4 0.8,-0.7 1.1,-1.1c0.9,-0.9 1.7,-1.8 2.3,-1.8c0.6,0 1.4,0.9 2.3,1.8c0.3,0.3 0.7,0.7 1.1,1.1l0,0.9z"/>
   </g>
   <g class="device_signal">
    <path d="m393.8,197.1l-2.6,-2.6c-0.2,-0.2 -0.2,-0.5 0,-0.7l2.6,-2.6c0.2,-0.2 0.5,-0.2 0.7,0l2.6,2.6c0.2,0.2 0.2,0.5 0,0.7l-2.6,2.6c-0.2,0.2 -0.5,0.2 -0.7,0z"/>
    <path d="m391.5,191.5l0.6,-0.6c-0.7,-0.6 -1.2,-1.5 -1.2,-2.5c0,-1.7 1.4,-3.2 3.2,-3.2c0.8,0 1.6,0.3 2.2,0.9c0.6,0.6 0.9,1.4 0.9,2.2c0,1 -0.5,1.9 -1.2,2.5l0.6,0.6c0.9,-0.7 1.4,-1.9 1.4,-3.1c0,-1.1 -0.4,-2.1 -1.2,-2.9c-0.8,-0.8 -1.8,-1.2 -2.9,-1.2c-2.2,0 -4.1,1.8 -4.1,4.1c0.3,1.3 0.8,2.4 1.7,3.2z"/>
    <path d="m389.9,193.1l0.6,-0.6c-0.1,-0.1 -0.2,-0.2 -0.3,-0.2c-1,-1 -1.6,-2.4 -1.6,-3.8c0,-3 2.4,-5.4 5.4,-5.4c1.5,0 2.8,0.6 3.8,1.6s1.6,2.4 1.6,3.8c0,1.6 -0.7,3.1 -1.8,4.1l0.6,0.6c1.3,-1.2 2.1,-2.8 2.1,-4.7c0,-1.7 -0.7,-3.3 -1.9,-4.5s-2.8,-1.9 -4.5,-1.9c-3.5,0 -6.3,2.8 -6.3,6.3c0,1.7 0.7,3.3 1.9,4.5c0.2,0 0.3,0.1 0.4,0.2z"/>
   </g>
  </g>
  
 </g>
</svg>