<?xml version="1.0" encoding="utf-8"?>
<!-- Generator: Adobe Illustrator 19.1.0, SVG Export Plug-In . SVG Version: 6.00 Build 0)  -->
<svg version="1.1" id="Layer_1" xmlns="http://www.w3.org/2000/svg" xmlns:xlink="http://www.w3.org/1999/xlink" x="0px" y="0px"
	 viewBox="88 -88 256 256" style="enable-background:new 88 -88 256 256;" xml:space="preserve">
<style type="text/css">
	.st0{fill:#0563C9;}
</style>
<g>
	<g>
		<path class="st0" d="M137,71.9l-3.8-2.5l22.3-33.6L173-26.5h-22.1c-7.4,0-13.4,6-13.4,13.4s6,13.4,13.4,13.4v4.6
			c-9.9,0-18-8.1-18-18s8.1-18,18-18H179l-19.3,68.7L137,71.9z"/>
	</g>
	<g>
		<rect x="166.8" y="1.7" class="st0" width="78.9" height="4.6"/>
	</g>
	<g>
		
			<rect x="240.5" y="-30.4" transform="matrix(0.9621 0.2727 -0.2727 0.9621 13.0713 -65.6554)" class="st0" width="4.6" height="89.2"/>
	</g>
	<g>
		<rect x="226.4" y="-31.2" class="st0" width="41.9" height="4.6"/>
	</g>
	<g>
		<path class="st0" d="M226.8,87.2c-9.1,0-16.6-7.4-16.6-16.6c0-9.1,7.4-16.6,16.6-16.6s16.6,7.4,16.6,16.6
			C243.4,79.7,235.9,87.2,226.8,87.2z M226.8,58.6c-6.6,0-12,5.4-12,12c0,6.6,5.4,12,12,12s12-5.4,12-12
			C238.8,64,233.4,58.6,226.8,58.6z"/>
	</g>
	<g>
		<path class="st0" d="M135.1,111.2c-22.4,0-40.6-18.2-40.6-40.6S112.7,30,135.1,30c22.4,0,40.6,18.2,40.6,40.6
			S157.5,111.2,135.1,111.2z M135.1,34.6c-19.9,0-36,16.2-36,36c0,19.9,16.2,36,36,36c19.9,0,36-16.2,36-36
			C171.1,50.7,155,34.6,135.1,34.6z"/>
	</g>
	<g>
		<path class="st0" d="M296.9,111.2c-22.4,0-40.6-18.2-40.6-40.6S274.5,30,296.9,30s40.6,18.2,40.6,40.6S319.3,111.2,296.9,111.2z
			 M296.9,34.6c-19.9,0-36,16.2-36,36c0,19.9,16.2,36,36,36c19.9,0,36-16.2,36-36C332.9,50.7,316.8,34.6,296.9,34.6z"/>
	</g>
	<g>
		<polygon class="st0" points="296.4,72.8 226.3,58.5 227.3,54.1 291.4,67.1 243.9,5.4 247.5,2.6 298.7,69.2 		"/>
	</g>
	<g>
		
			<rect x="259.6" y="41.9" transform="matrix(0.1985 0.9801 -0.9801 0.1985 286.0246 -194.3634)" class="st0" width="4.6" height="71.5"/>
	</g>
</g>
</svg>
