<?xml version="1.0" encoding="utf-8"?>
<!-- Generator: Adobe Illustrator 19.1.0, SVG Export Plug-In . SVG Version: 6.00 Build 0)  -->
<svg version="1.1" id="Layer_1" xmlns="http://www.w3.org/2000/svg" xmlns:xlink="http://www.w3.org/1999/xlink" x="0px" y="0px"
	 viewBox="88 -88 256 256" style="enable-background:new 88 -88 256 256;" xml:space="preserve">
<style type="text/css">
	.st0{fill:#0563C9;}
</style>
<g>
	<g>
		<path class="st0" d="M338.3,110.9H158.9v-153c0-10.5,8.5-19,19-19h141.4c10.5,0,19,8.5,19,19V110.9z M163.5,106.3h170.2V-42.1
			c0-8-6.5-14.4-14.4-14.4H177.9c-8,0-14.4,6.5-14.4,14.4V106.3z"/>
	</g>
	<g>
		<g>
			<path class="st0" d="M201,142h-9.7c-8,0-14.6-6.5-14.6-14.6v-21.1h38.9v21.1C215.6,135.4,209,142,201,142z M181.3,110.9v16.5
				c0,5.5,4.5,10,10,10h9.7c5.5,0,10-4.5,10-10v-16.5H181.3z"/>
		</g>
		<g>
			<path class="st0" d="M305.8,142h-9.7c-8,0-14.6-6.5-14.6-14.6v-21.1h38.9v21.1C320.4,135.4,313.8,142,305.8,142z M286.1,110.9
				v16.5c0,5.5,4.5,10,10,10h9.7c5.5,0,10-4.5,10-10v-16.5H286.1z"/>
		</g>
	</g>
	<g>
		<path class="st0" d="M314.8,29.3H182.4l5.9-50.5h120.5L314.8,29.3z M187.6,24.7h122.1l-4.9-41.3H192.4L187.6,24.7z"/>
	</g>
	<g>
		<path class="st0" d="M196.2,80c-7.7,0-13.9-6.2-13.9-13.9s6.2-13.9,13.9-13.9s13.9,6.2,13.9,13.9S203.9,80,196.2,80z M196.2,56.8
			c-5.1,0-9.3,4.2-9.3,9.3c0,5.1,4.2,9.3,9.3,9.3s9.3-4.2,9.3-9.3C205.5,61,201.3,56.8,196.2,56.8z"/>
	</g>
	<g>
		<path class="st0" d="M301,80c-7.7,0-13.9-6.2-13.9-13.9s6.2-13.9,13.9-13.9s13.9,6.2,13.9,13.9S308.7,80,301,80z M301,56.8
			c-5.1,0-9.3,4.2-9.3,9.3c0,5.1,4.2,9.3,9.3,9.3s9.3-4.2,9.3-9.3C310.3,61,306.1,56.8,301,56.8z"/>
	</g>
	<g>
		<path class="st0" d="M286.2-29.8h-75.1V-48h75.1V-29.8z M215.7-34.4h65.9v-9h-65.9V-34.4z"/>
	</g>
	<g>
		<g>
			<path class="st0" d="M115.6,9C102.5,9,91.8-1.7,91.8-14.8s10.7-23.8,23.8-23.8s23.8,10.7,23.8,23.8S128.7,9,115.6,9z M115.6-34
				c-10.6,0-19.2,8.6-19.2,19.2S105,4.4,115.6,4.4s19.2-8.6,19.2-19.2S126.2-34,115.6-34z"/>
		</g>
		<g>
			<rect x="113.3" y="6.6" class="st0" width="4.6" height="133.2"/>
		</g>
		<g>
			<rect x="98" y="137.5" class="st0" width="35.2" height="4.6"/>
		</g>
	</g>
</g>
</svg>
