<?xml version="1.0" encoding="utf-8"?>
<!-- Generator: Adobe Illustrator 19.1.0, SVG Export Plug-In . SVG Version: 6.00 Build 0)  -->
<svg version="1.1" id="Layer_1" xmlns="http://www.w3.org/2000/svg" xmlns:xlink="http://www.w3.org/1999/xlink" x="0px" y="0px"
	 viewBox="88 -88 256 256" style="enable-background:new 88 -88 256 256;" xml:space="preserve">
<style type="text/css">
	.st0{fill:#0563C9;}
</style>
<g>
	<g>
		<path class="st0" d="M322.1,81.4H165.7L134.1-30.1L338.9-9.9L322.1,81.4z M169.1,76.8h149.2l15.2-82.7l-193.2-19L169.1,76.8z"/>
	</g>
	<g>
		<polygon class="st0" points="165.2,79.7 126.3,-57.4 95.6,-60.3 96,-64.9 129.9,-61.6 169.6,78.5 		"/>
	</g>
	<g>
		
			<rect x="136.2" y="26.1" transform="matrix(0.2767 0.9609 -0.9609 0.2767 163.9891 -161.0786)" class="st0" width="105.5" height="4.6"/>
	</g>
	<g>
		
			<rect x="172.4" y="26.1" transform="matrix(0.2767 0.961 -0.961 0.2767 190.1733 -195.8649)" class="st0" width="105.5" height="4.6"/>
	</g>
	<g>
		
			<rect x="212" y="28.7" transform="matrix(0.2764 0.961 -0.961 0.2764 219.4258 -229.5404)" class="st0" width="100.2" height="4.6"/>
	</g>
	<g>
		
			<rect x="251.2" y="30.9" transform="matrix(0.2761 0.9611 -0.9611 0.2761 248.3051 -263.3799)" class="st0" width="95.6" height="4.6"/>
	</g>
	<g>
		<rect x="152.3" y="28.3" class="st0" width="176.8" height="4.6"/>
	</g>
	<g>
		<path class="st0" d="M320.3,120.8H167.4c-12.1,0-22-9.9-22-22s9.9-22,22-22v4.6c-9.6,0-17.4,7.8-17.4,17.4s7.8,17.4,17.4,17.4
			h152.9V120.8z"/>
	</g>
	<g>
		<path class="st0" d="M167.4,145c-7.9,0-14.4-6.5-14.4-14.4c0-7.9,6.4-14.4,14.4-14.4s14.4,6.5,14.4,14.4
			C181.8,138.5,175.3,145,167.4,145z M167.4,120.8c-5.4,0-9.8,4.4-9.8,9.8s4.4,9.8,9.8,9.8s9.8-4.4,9.8-9.8S172.8,120.8,167.4,120.8
			z"/>
	</g>
	<g>
		<path class="st0" d="M293,145c-7.9,0-14.4-6.5-14.4-14.4c0-7.9,6.5-14.4,14.4-14.4s14.4,6.5,14.4,14.4
			C307.4,138.5,300.9,145,293,145z M293,120.8c-5.4,0-9.8,4.4-9.8,9.8s4.4,9.8,9.8,9.8s9.8-4.4,9.8-9.8S298.4,120.8,293,120.8z"/>
	</g>
</g>
</svg>
