<?xml version="1.0" encoding="utf-8"?>
<!-- Generator: Adobe Illustrator 19.1.0, SVG Export Plug-In . SVG Version: 6.00 Build 0)  -->
<svg version="1.1" id="Layer_1" xmlns="http://www.w3.org/2000/svg" xmlns:xlink="http://www.w3.org/1999/xlink" x="0px" y="0px"
	 viewBox="88 -88 256 256" style="enable-background:new 88 -88 256 256;" xml:space="preserve">
<style type="text/css">
	.st0{fill:#0563C9;}
</style>
<g>
	<g>
		<path class="st0" d="M202.5,149C142.7,149,94,100.3,94,40.5C94-19.3,142.7-68,202.5-68C262.3-68,311-19.3,311,40.5
			C311,100.3,262.3,149,202.5,149z M202.5-63.4c-57.3,0-103.9,46.6-103.9,103.9s46.6,103.9,103.9,103.9S306.4,97.8,306.4,40.5
			S259.8-63.4,202.5-63.4z"/>
	</g>
	<g>
		<polygon class="st0" points="227.2,81.3 200.2,40.2 200.2,-28.8 204.8,-28.8 204.8,38.8 231,78.9 		"/>
	</g>
	<g>
		<path class="st0" d="M304.2,61.1l0.5-2.7c2.4-13.1,2.3-26.5-0.4-39.8l-0.5-2.7l13.4-0.1c0.1,0,0.1,0,0.2,0
			c11.3,0,20.6,9.1,20.7,20.5V40c0.1,5.5-2,10.7-5.8,14.7c-3.9,4-9.1,6.2-14.6,6.3h0L304.2,61.1z M309.2,20.4
			c2.1,12.1,2.3,24.2,0.4,36.1l7.9-0.1c4.3,0,8.4-1.8,11.4-4.9c3-3.1,4.6-7.2,4.5-11.5l0-3.8c-0.1-8.8-7.3-15.9-16.1-15.9
			c-0.1,0-0.1,0-0.2,0L309.2,20.4z"/>
	</g>
	<g>
		<rect x="200.2" y="-66.7" class="st0" width="4.6" height="18.1"/>
	</g>
	<g>
		<rect x="200.2" y="127.6" class="st0" width="4.6" height="18.1"/>
	</g>
	<g>
		
			<rect x="297.3" y="29.5" transform="matrix(1.114734e-02 0.9999 -0.9999 1.114734e-02 334.8578 -261.4119)" class="st0" width="4.6" height="18.2"/>
	</g>
	<g>
		
			<rect x="103" y="31.3" transform="matrix(1.093299e-02 0.9999 -0.9999 1.093299e-02 144.5461 -65.3358)" class="st0" width="4.6" height="18.2"/>
	</g>
</g>
</svg>
