<?xml version="1.0" encoding="utf-8"?>
<!-- Generator: Adobe Illustrator 19.1.0, SVG Export Plug-In . SVG Version: 6.00 Build 0)  -->
<svg version="1.1" id="Layer_1" xmlns="http://www.w3.org/2000/svg" xmlns:xlink="http://www.w3.org/1999/xlink" x="0px" y="0px"
	 viewBox="88 -88 256 256" style="enable-background:new 88 -88 256 256;" xml:space="preserve">
<style type="text/css">
	.st0{fill:#0563C9;}
</style>
<g>
	<path class="st0" d="M291,106.9H131.1c-20.9,0-38-17-38-38c0-20.9,17-38,38-38c4.3,0,8.5,0.7,12.6,2.2
		c3.1-33.8,31.4-59.9,65.8-59.9c27.5,0,52,16.9,61.7,42.4c6.2-2.8,13-4.3,19.8-4.3c26.3,0,47.8,21.4,47.8,47.8
		S317.3,106.9,291,106.9z M131.1,35.5c-18.4,0-33.4,15-33.4,33.4s15,33.4,33.4,33.4H291c23.8,0,43.2-19.4,43.2-43.2
		c0-23.8-19.4-43.2-43.2-43.2c-6.9,0-13.9,1.7-20,4.9l-2.4,1.2l-0.9-2.5c-8.4-25-31.8-41.8-58.2-41.8c-33,0-60,25.8-61.4,58.7
		l-0.1,3.3l-3.1-1.4C140.4,36.5,135.8,35.5,131.1,35.5z"/>
</g>
</svg>
