<?xml version="1.0" encoding="utf-8"?>
<!-- Generator: Adobe Illustrator 19.1.0, SVG Export Plug-In . SVG Version: 6.00 Build 0)  -->
<svg version="1.1" id="Layer_1" xmlns="http://www.w3.org/2000/svg" xmlns:xlink="http://www.w3.org/1999/xlink" x="0px" y="0px"
	 viewBox="88 -88 256 256" style="enable-background:new 88 -88 256 256;" xml:space="preserve">
<style type="text/css">
	.st0{fill:#0563C9;}
</style>
<g>
	<g>
		<path class="st0" d="M335.8,82.3h-4.6V52c0-16.7-12-31.1-28.4-34.2l0.8-4.5c18.6,3.5,32.2,19.7,32.2,38.6V82.3z"/>
	</g>
	<g>
		<path class="st0" d="M170.7,161.4H96.2V-64.4c0-9.4,7.7-17.1,17.1-17.1h183.2c4.6,0,8.8,1.8,12.1,5.1c3.2,3.2,4.9,7.5,4.9,12
			l0,41.3c0,9.4-7.7,17.1-17.1,17.1H170.7V161.4z M100.8,156.8h65.3V-10.6h130.3c6.8,0,12.5-5.7,12.5-12.5v-41.3
			c0-3.3-1.2-6.4-3.6-8.8c-2.4-2.4-5.5-3.7-8.8-3.7H113.3c-6.8,0-12.5,5.7-12.5,12.5V156.8z"/>
	</g>
	<g>
		<rect x="168.5" y="156.9" class="st0" width="150.5" height="4.6"/>
	</g>
	<g>
		<path class="st0" d="M306.7,139.9H197.3c-3.7,0-6.9-3.1-6.9-6.9V41.7c0-3.7,3.1-6.9,6.9-6.9h109.5c3.7,0,6.9,3.1,6.9,6.9V133
			C313.5,136.8,310.4,139.9,306.7,139.9z M197.3,39.4c-1.2,0-2.3,1.1-2.3,2.3V133c0,1.2,1.1,2.3,2.3,2.3h109.4
			c1.3,0,2.4-1.1,2.4-2.4l0-91.2c0-1.2-1.1-2.3-2.3-2.3H197.3z"/>
	</g>
	<g>
		<path class="st0" d="M300.3,39.5h-94.3l-10.3-26.2h104.6V39.5z M209.1,34.9h86.7v-17h-93.4L209.1,34.9z"/>
	</g>
</g>
</svg>
