<?xml version="1.0" encoding="utf-8"?>
<!-- Generator: Adobe Illustrator 19.1.0, SVG Export Plug-In . SVG Version: 6.00 Build 0)  -->
<svg version="1.1" id="Layer_1" xmlns="http://www.w3.org/2000/svg" xmlns:xlink="http://www.w3.org/1999/xlink" x="0px" y="0px"
	 viewBox="88 -88 256 256" style="enable-background:new 88 -88 256 256;" xml:space="preserve">
<style type="text/css">
	.st0{fill:#0563C9;}
</style>
<g>
	<g>
		<path class="st0" d="M281.8,15.4H150.3v-85.3c0-6.5,5.3-11.9,11.9-11.9h107.6c5.8,0,10.6,4.1,11.7,9.6h0.3V15.4z M154.9,10.8
			h122.3v-78.4l-0.1-2.3c0-4-3.3-7.3-7.3-7.3H162.2c-4,0-7.3,3.3-7.3,7.3V10.8z"/>
	</g>
	<g>
		<path class="st0" d="M269.9,161.8H162.2c-6.5,0-11.9-5.3-11.9-11.9V10.8h131.5v139.1C281.8,156.5,276.5,161.8,269.9,161.8z
			 M154.9,15.4v134.5c0,4,3.3,7.3,7.3,7.3h107.7c4,0,7.3-3.3,7.3-7.3V15.4H154.9z"/>
	</g>
	<g>
		<rect x="254.2" y="31.7" class="st0" width="4.6" height="72.3"/>
	</g>
	<g>
		<rect x="254.2" y="-55.3" class="st0" width="4.6" height="44.2"/>
	</g>
</g>
</svg>
