<?xml version="1.0" encoding="utf-8"?>
<!-- Generator: Adobe Illustrator 19.1.0, SVG Export Plug-In . SVG Version: 6.00 Build 0)  -->
<svg version="1.1" id="Layer_1" xmlns="http://www.w3.org/2000/svg" xmlns:xlink="http://www.w3.org/1999/xlink" x="0px" y="0px"
	 viewBox="88 -88 256 256" style="enable-background:new 88 -88 256 256;" xml:space="preserve">
<style type="text/css">
	.st0{fill:#0563C9;}
</style>
<g>
	<g>
		<path class="st0" d="M186.3,90.9l-41.2-47.3c-0.6-0.7-1.6-0.9-2.5-0.6L106,58.5c-1.1,0.5-2.4-0.1-2.8-1.2l0,0
			c-0.5-1.1,0-2.4,1.2-2.9l39.4-16.6c0.9-0.4,1.8-0.1,2.5,0.6l39,44.6c1,1.2,3,0.9,3.6-0.6l39.7-89.6c0.7-1.6,2.8-1.8,3.7-0.4
			l41.6,59.7c0.7,1.1,2.2,1.2,3.2,0.4l50-42.5c0.9-0.8,2.2-0.7,3,0.2v0c0.8,0.9,0.7,2.4-0.2,3.2L276.2,59c-1,0.8-2.4,0.6-3.2-0.4
			L232.9,1.4c-1-1.4-3.1-1.2-3.7,0.4l-39.3,88.6C189.3,91.8,187.4,92.1,186.3,90.9z"/>
	</g>
	<g>
		<polygon class="st0" points="330.5,141.9 101.5,141.9 101.5,-62 106.1,-62 106.1,137.3 330.5,137.3 		"/>
	</g>
</g>
</svg>
