<?xml version="1.0" encoding="utf-8"?>
<!-- Generator: Adobe Illustrator 19.1.0, SVG Export Plug-In . SVG Version: 6.00 Build 0)  -->
<svg version="1.1" id="Layer_1" xmlns="http://www.w3.org/2000/svg" xmlns:xlink="http://www.w3.org/1999/xlink" x="0px" y="0px"
	 viewBox="0 0 58.8 58.8" style="enable-background:new 0 0 58.8 58.8;" xml:space="preserve">
<style type="text/css">
	.st0{fill:#FFFFFF;}
</style>
<g>
	<path class="st0" d="M29.4,58.8C13.2,58.8,0,45.6,0,29.4S13.2,0,29.4,0s29.4,13.2,29.4,29.4S45.6,58.8,29.4,58.8z M29.4,4.6
		C15.7,4.6,4.6,15.7,4.6,29.4s11.1,24.8,24.8,24.8c13.7,0,24.8-11.1,24.8-24.8S43.1,4.6,29.4,4.6z"/>
</g>
<g>
	<g>
		<path class="st0" d="M30.3,37.5c-0.1,0.6-0.2,1.1-0.2,1.5c0,0.8,0.5,1.1,1.5,1.1c0.4,0,0.8,0,1.2-0.1l0.1,1.5
			c-1.6,0.8-3.1,1.2-4.8,1.2c-2.3,0-3.3-1.1-3.3-3.2c0-0.6,0.1-1.4,0.3-2.1l1.9-7.7c0.1-0.5,0.2-1,0.2-1.4c0-1.2-0.8-1.7-2.5-1.7
			l0.3-1.4c1.1-0.6,2.8-1.2,4.5-1.2c2,0,3.1,0.9,3.1,2.9c0,0.6-0.1,1.2-0.2,1.9L30.3,37.5z M31.1,22c-1.6,0-3-1.3-3-3s1.4-3,3.1-3
			c1.6,0,3,1.4,3,3S32.8,22,31.1,22z"/>
	</g>
</g>
</svg>
