<?xml version="1.0" encoding="utf-8"?>
<!-- Generator: Adobe Illustrator 19.1.0, SVG Export Plug-In . SVG Version: 6.00 Build 0)  -->
<svg version="1.1" id="Layer_1" xmlns="http://www.w3.org/2000/svg" xmlns:xlink="http://www.w3.org/1999/xlink" x="0px" y="0px"
	 viewBox="88 -88 256 256" style="enable-background:new 88 -88 256 256;" xml:space="preserve">
<style type="text/css">
	.st0{fill:#0563C9;}
</style>
<g>
	<g>
		<path class="st0" d="M216,161.7l-1.6-1.7c-0.2-0.2-23.2-24.2-45.8-54c-30.6-40.3-46.1-71.6-46.1-93.1c0-51.6,42-93.6,93.6-93.6
			c51.6,0,93.6,42,93.6,93.6c0,21.4-15.5,52.7-46.1,93c-22.6,29.8-45.6,53.8-45.8,54.1L216,161.7z M216-76.1c-49.1,0-89,39.9-89,89
			c0,45.3,76.7,129.1,89,142.2c12.3-13.1,89-97,89-142.2C305-36.2,265.1-76.1,216-76.1z"/>
	</g>
	<g>
		<path class="st0" d="M216,44.3c-19.3,0-35-15.7-35-35c0-19.3,15.7-35,35-35s35,15.7,35,35C251,28.6,235.3,44.3,216,44.3z
			 M216-21.1c-16.8,0-30.4,13.6-30.4,30.4c0,16.8,13.6,30.4,30.4,30.4c16.8,0,30.4-13.6,30.4-30.4C246.4-7.5,232.8-21.1,216-21.1z"
			/>
	</g>
</g>
</svg>
