<?xml version="1.0" encoding="utf-8"?>
<!-- Generator: Adobe Illustrator 19.1.0, SVG Export Plug-In . SVG Version: 6.00 Build 0)  -->
<svg version="1.1" id="Layer_1" xmlns="http://www.w3.org/2000/svg" xmlns:xlink="http://www.w3.org/1999/xlink" x="0px" y="0px"
	 viewBox="88 -88 256 256" style="enable-background:new 88 -88 256 256;" xml:space="preserve">
<style type="text/css">
	.st0{fill:#0563C9;}
</style>
<g>
	<g>
		<rect x="156.9" y="2.9" class="st0" width="118.2" height="4.6"/>
	</g>
	<g>
		<rect x="213.8" y="5.2" class="st0" width="4.6" height="71.3"/>
	</g>
	<g>
		<rect x="187.4" y="74.2" class="st0" width="57.4" height="4.6"/>
	</g>
	<g>
		<polygon class="st0" points="165.4,82.2 160.8,82.2 160.8,35 128.2,35 114.4,-28.3 118.8,-29.3 131.8,30.5 165.4,30.5 		"/>
	</g>
	<g>
		<polygon class="st0" points="128.4,32.2 132.2,33.2 117,83 113.2,82 		"/>
	</g>
	<g>
		<polygon class="st0" points="271.3,82.2 266.8,82.2 266.8,30.5 300.3,30.5 313.3,-29.3 317.8,-28.3 303.9,35 271.3,35 		"/>
	</g>
	<g>
		<polygon class="st0" points="303.5,32.2 317.8,82 314.2,83 299.9,33.2 		"/>
	</g>
</g>
</svg>
