<?xml version="1.0" encoding="utf-8"?>
<!-- Generator: Adobe Illustrator 19.1.0, SVG Export Plug-In . SVG Version: 6.00 Build 0)  -->
<svg version="1.1" id="Layer_1" xmlns="http://www.w3.org/2000/svg" xmlns:xlink="http://www.w3.org/1999/xlink" x="0px" y="0px"
	 viewBox="88 -88 256 256" style="enable-background:new 88 -88 256 256;" xml:space="preserve">
<style type="text/css">
	.st0{fill:#0563C9;}
</style>
<g>
	<g>
		<path class="st0" d="M304.6,162H127.4c-4.3,0-7.8-3.5-7.8-7.8V-74.2c0-4.3,3.5-7.8,7.8-7.8h177.2c4.3,0,7.8,3.5,7.8,7.8v228.4
			C312.4,158.5,308.9,162,304.6,162z M127.4-77.4c-1.7,0-3.2,1.5-3.2,3.2v228.4c0,1.7,1.5,3.2,3.2,3.2h177.2c1.7,0,3.2-1.5,3.2-3.2
			V-74.2c0-1.7-1.5-3.2-3.2-3.2H127.4z"/>
	</g>
	<g>
		<path class="st0" d="M216,119c-32.9,0-59.6-27-59.6-60.3S183.1-1.6,216-1.6c32.9,0,59.6,27,59.6,60.3S248.9,119,216,119z M216,3
			c-30.3,0-55,25-55,55.7c0,30.7,24.7,55.7,55,55.7c30.3,0,55-25,55-55.7C271,28,246.3,3,216,3z"/>
	</g>
	<g>
		<rect x="147.8" y="-47.9" class="st0" width="45.5" height="4.6"/>
	</g>
	<g>
		<rect x="242.6" y="-47.9" class="st0" width="17.8" height="4.6"/>
	</g>
	<g>
		<rect x="267.8" y="-47.9" class="st0" width="17.8" height="4.6"/>
	</g>
	<g>
		<rect x="243.8" y="7.3" class="st0" width="4.6" height="99.6"/>
	</g>
</g>
</svg>
