<?xml version="1.0" encoding="utf-8"?>
<!-- Generator: Adobe Illustrator 19.1.0, SVG Export Plug-In . SVG Version: 6.00 Build 0)  -->
<svg version="1.1" id="Layer_1" xmlns="http://www.w3.org/2000/svg" xmlns:xlink="http://www.w3.org/1999/xlink" x="0px" y="0px"
	 viewBox="88 -88 256 256" style="enable-background:new 88 -88 256 256;" xml:space="preserve">
<style type="text/css">
	.st0{fill:#0563C9;}
</style>
<g>
	<g>
		<path class="st0" d="M333.7-0.1c-32.6-28.3-72.5-44.6-115.3-47.1c-42.9-2.6-84.5,8.7-120.3,32.6l-2.5-3.8
			c36.6-24.5,79.2-36,123.1-33.4c43.9,2.6,84.7,19.3,118.1,48.3L333.7-0.1z"/>
	</g>
	<g>
		<path class="st0" d="M297.6,41.6c-23.4-20.2-52-31.9-82.8-33.9c-30.6-1.9-60.4,6.2-86.2,23.4l-2.5-3.8
			c26.6-17.8,57.4-26.1,89-24.2c31.7,2,61.3,14,85.4,34.9L297.6,41.6z"/>
	</g>
	<g>
		<path class="st0" d="M261.6,83.3c-14.2-12.3-31.5-19.3-50-20.5c-18.6-1.1-36.6,3.8-52.2,14.1l-2.5-3.8
			c16.4-10.9,35.4-16.1,55-14.9c19.6,1.2,37.8,8.6,52.7,21.5L261.6,83.3z"/>
	</g>
	<g>
		<path class="st0" d="M208.2,132.1c-8.8,0-15.9-7.1-15.9-15.9c0-8.8,7.1-15.9,15.9-15.9c8.8,0,15.9,7.1,15.9,15.9
			C224.1,125,217,132.1,208.2,132.1z M208.2,104.9c-6.2,0-11.3,5.1-11.3,11.3s5.1,11.3,11.3,11.3c6.2,0,11.3-5.1,11.3-11.3
			S214.4,104.9,208.2,104.9z"/>
	</g>
</g>
</svg>
