<svg version="1.1" xmlns="http://www.w3.org/2000/svg" xmlns:xlink="http://www.w3.org/1999/xlink" xml:space="preserve"
    viewBox="12.7 289.7 202.6 173">

<g id="signal" >
  <path class="white" d="M209.7,457.1h-28.1v-24.3h28.1V457.1z"/>
  <path class="grey" d="M176,427.2v35.5h39.3v-35.5H176z M209.7,457.1h-28.1v-24.3h28.1V457.1z"/>
  <path class="blue" d="M195.4,453.5l-2.6-2.6c-0.2-0.2-0.2-0.5,0-0.7l2.6-2.6c0.2-0.2,0.5-0.2,0.7,0l2.6,2.6c0.2,0.2,0.2,0.5,0,0.7
    l-2.6,2.6C195.8,453.7,195.5,453.7,195.4,453.5z M193.1,447.9l0.6-0.6c-0.7-0.6-1.2-1.5-1.2-2.5c0-1.7,1.4-3.2,3.2-3.2
    c0.8,0,1.6,0.3,2.2,0.9s0.9,1.4,0.9,2.2c0,1-0.5,1.9-1.2,2.5l0.6,0.6c0.9-0.7,1.4-1.9,1.4-3.1c0-1.1-0.4-2.1-1.2-2.9
    s-1.8-1.2-2.9-1.2c-2.2,0-4.1,1.8-4.1,4.1C191.6,446,192.2,447.2,193.1,447.9z M191.5,449.5l0.6-0.6c-0.1-0.1-0.2-0.2-0.3-0.2
    c-1-1-1.6-2.4-1.6-3.8c0-3,2.4-5.4,5.4-5.4c1.5,0,2.8,0.6,3.8,1.6s1.6,2.4,1.6,3.8c0,1.6-0.7,3.1-1.8,4.1l0.6,0.6
    c1.3-1.2,2.1-2.8,2.1-4.7c0-1.7-0.7-3.3-1.9-4.5s-2.8-1.9-4.5-1.9c-3.5,0-6.3,2.8-6.3,6.3c0,1.7,0.7,3.3,1.9,4.5
    C191.3,449.3,191.4,449.4,191.5,449.5z"/>
</g>
<g id="soup_can">
  <path class="white" d="M160.4,457H18.3V295.3h142.1V457z"/>
  <path d="M12.7,289.7v172.9H166V289.7H12.7z M160.4,457H18.3V295.3h142.1L160.4,457L160.4,457z M24.7,301.7
    v148.9H154V301.7H24.7z M148.4,445H30.3V307.3h118.1V445z"/>
  <path d="M72.3,422.1c5.4,0.8,11.3,1.2,17,1.2s11.6-0.4,17-1.2V414c-4.6,0.7-10.3,1.2-17,1.2s-12.4-0.5-17-1.2
    V422.1z M126.6,421.5c1.3,1.3,2.1,2.8,2.1,4.5c0,8.3-17.8,11.7-32,12.6c-2.5,0.2-5,0.3-7.5,0.3c-0.5,0-1,0-1.5,0s-1,0-1.5,0
    c-2.5,0-5-0.1-7.5-0.3c-14.3-1-32-4.3-32-12.6c0-1.7,0.8-3.2,2.1-4.5v-46.8c0,2.9,2.1,5.2,5.6,7.1V426c0,1.7,10.4,7.3,33.3,7.3
    c21.6,0,33.3-5.2,33.3-7.3v-44.2c3.5-1.9,5.6-4.3,5.6-7.1V421.5z M48.7,374.7v-45.9c-1.3-1.3-2.1-2.8-2.1-4.5
    c0-10.2,26.8-12.9,41-12.9s41,2.7,41,12.9c0,1.7-0.8,3.2-2.1,4.5v45.9c0,2.9-2.1,5.2-5.6,7.1c-4.9,2.7-12.6,4.4-20.9,5.2
    c-1.1,5.9-6.2,10.3-12.4,10.3c-6.2,0-11.3-4.4-12.4-10.3c-8.3-0.8-16-2.5-20.9-5.2C50.9,379.9,48.7,377.6,48.7,374.7z M94.6,384.7
    c0-3.9-3.1-7-7-7s-7,3.1-7,7s3.1,7,7,7S94.6,388.6,94.6,384.7z M113.7,343.1c-5.4,1.7-14,3.2-26,3.2c-12,0.1-20.6-1.5-26-3.2v13.1
    c7.3,2,16.8,3,26,3s18.7-1,26-3V343.1z M113.7,327.4c-0.1-0.1-0.3-0.2-0.5-0.3c-2.9-1.6-11.7-3.8-25.6-3.8S65,325.5,62,327.1
    c-0.2,0.1-0.3,0.2-0.5,0.3c2.4,1.6,11.3,4.1,26.1,4.1S111.4,329,113.7,327.4z M52.3,324.3c0.1,0.6,1.2,1.5,3.3,2.5
    c0.3-2.3,2.4-4,5.4-5.3c8.5-3.7,24.2-3.8,26.6-3.8s18.1,0.1,26.6,3.8c3,1.3,5.1,3,5.4,5.3c2.1-1,3.2-1.9,3.3-2.5
    c-0.1-0.7-1.5-1.7-4.2-2.8c-5.3-2.1-15.5-4.5-31.2-4.5s-26,2.3-31.2,4.5C53.8,322.6,52.4,323.6,52.3,324.3z"/>
</g>
</svg>
