<?xml version="1.0" encoding="utf-8"?>
<!-- Generator: Adobe Illustrator 19.1.0, SVG Export Plug-In . SVG Version: 6.00 Build 0)  -->
<svg version="1.1" id="Layer_1" xmlns="http://www.w3.org/2000/svg" xmlns:xlink="http://www.w3.org/1999/xlink" x="0px" y="0px"
	 viewBox="0 0 256 256" style="enable-background:new 0 0 256 256;" xml:space="preserve">
<style type="text/css">
	.st0{fill:#FFFFFF;stroke:#999999;stroke-width:5.6273;stroke-miterlimit:10;}
	.st1{fill:#999999;stroke:#999999;stroke-width:5.6273;stroke-miterlimit:10;}
	.st2{fill:#999999;}
	.st3{fill:#FFFFFF;}
	.st4{fill:#1871E8;}
</style>
<g>
	<rect x="9.5" y="26.8" class="st0" width="178.6" height="202.4"/>
	<rect x="24" y="41.3" class="st0" width="149.6" height="173.3"/>
	<ellipse class="st0" cx="98.8" cy="188.7" rx="46.2" ry="12.2"/>
	<path class="st0" d="M55.1,65.6v123.1c0,6.7,19.6,12.2,43.7,12.2c24.1,0,43.7-5.5,43.7-12.2V65.6H55.1z"/>
	<path class="st1" d="M142.5,65.6c0,6.7-19.6,12.2-43.7,12.2c-24.1,0-43.7-5.5-43.7-12.2l0,0v60.9c0,6.7,19.6,12.2,43.7,12.2
		c24.1,0,43.7-5.5,43.7-12.2V65.6L142.5,65.6z"/>
	<circle class="st0" cx="98.8" cy="138.7" r="11.8"/>
	<ellipse class="st0" cx="98.8" cy="65.6" rx="46.2" ry="12.2"/>
	<ellipse class="st0" cx="98.8" cy="69.4" rx="35.5" ry="8.4"/>
	<path class="st2" d="M78.2,178.5c6.5,0.9,13.6,1.4,20.6,1.4c6.9,0,14-0.5,20.6-1.4v-9.8c-5.6,0.9-12.4,1.5-20.6,1.5
		c-8.1,0-15-0.6-20.6-1.5V178.5z"/>
	<path class="st3" d="M67.4,88.4v15.8c8.9,2.4,20.4,3.6,31.5,3.6s22.6-1.2,31.5-3.6V88.4c-6.6,2.1-16.9,3.9-31.5,3.9
		C84.3,92.3,73.9,90.5,67.4,88.4z"/>
	<rect x="205.8" y="193" class="st0" width="40.7" height="36.1"/>
	<g>
		<path class="st4" d="M225.8,221.5l-3.3-3.3c-0.2-0.2-0.2-0.5,0-0.7l3.3-3.3c0.2-0.2,0.5-0.2,0.7,0l3.3,3.3c0.2,0.2,0.2,0.5,0,0.7
			l-3.3,3.3C226.3,221.7,226,221.7,225.8,221.5z"/>
		<path class="st4" d="M223,214.7l0.8-0.8c-0.9-0.7-1.5-1.8-1.5-3c0-2.1,1.7-3.8,3.8-3.8c1,0,2,0.4,2.7,1.1c0.7,0.7,1.1,1.7,1.1,2.7
			c0,1.2-0.6,2.3-1.4,3l0.8,0.8c1.1-0.9,1.7-2.2,1.7-3.7c0-1.3-0.5-2.5-1.4-3.5c-0.9-0.9-2.2-1.4-3.5-1.4c-2.7,0-4.9,2.2-4.9,4.9
			C221.2,212.4,221.9,213.8,223,214.7z"/>
		<path class="st4" d="M221.1,216.6l0.8-0.8c-0.1-0.1-0.2-0.2-0.3-0.3c-1.2-1.2-1.9-2.9-1.9-4.7c0-3.6,3-6.6,6.6-6.6
			c1.8,0,3.4,0.7,4.7,1.9c1.2,1.2,1.9,2.9,1.9,4.7c0,2-0.9,3.7-2.2,4.9l0.8,0.8c1.6-1.4,2.5-3.4,2.5-5.7c0-2-0.8-4-2.2-5.4
			c-1.4-1.4-3.4-2.2-5.4-2.2c-4.2,0-7.7,3.4-7.7,7.7c0,2,0.8,4,2.2,5.4C220.8,216.4,220.9,216.5,221.1,216.6z"/>
	</g>
</g>
</svg>
