<svg version="1.1" xmlns="http://www.w3.org/2000/svg" xmlns:xlink="http://www.w3.org/1999/xlink" xml:space="preserve"
    x="0px" y="0px"
    viewBox="18 271.7 148 249.5">
<style type="text/css">
  .st5{font-size:16.3299px;}
</style>
<g>
  <path class="white" d="M92,277.3c-37.7,0-68.4,30.7-68.4,68.4c0,5.5,0.6,10.9,1.9,16.2l23,83.5c2.6,9.8,8.8,21.4,23.6,21.4h10v-8.5
    h-9.9c-4.9,0-11.9-1.5-15.4-14.9L38,377.2L33.7,360c-1.1-4.4-1.7-9.3-1.7-14.3c0-32,25.2-58.2,56.9-59.8c1-0.1,2-0.1,3-0.1
    s2,0,3,0.1c31.6,1.6,56.9,27.8,56.9,59.8c0,5-0.6,9.8-1.7,14.3l-4.3,17.4L127,443.6c-3.5,13.3-10.5,14.8-15.4,14.8h-9.9v8.5h9.9
    c11.8,0,20-7.4,23.6-21.4l23-83.6c1.4-5,2.1-10.4,2.1-16.2C160.4,308,129.7,277.3,92,277.3z"/>
  <path class="grey" d="M92,271.7c-40.8,0-74,33.2-74,74c0,5.9,0.7,11.8,2.1,17.6l23,83.6c4.4,16.5,14.7,25.6,29,25.6h10v48.7h19.7
    v-48.7h9.9c14.5,0,24.8-9.1,29-25.6l23-83.6c1.5-5.5,2.3-11.4,2.3-17.7C166,304.9,132.8,271.7,92,271.7z M158.3,361.9l-23,83.6
    c-3.6,14-11.8,21.4-23.6,21.4h-9.9v-8.5h9.9c4.9,0,11.9-1.5,15.4-14.8l18.8-66.2l4.3-17.4c1.1-4.5,1.7-9.3,1.7-14.3
    c0-32-25.2-58.2-56.9-59.8c-1-0.1-2-0.1-3-0.1s-2,0-3,0.1c-31.6,1.6-56.9,27.8-56.9,59.8c0,5,0.6,9.8,1.7,14.3l4.2,17.4l18.8,66.2
    c3.5,13.3,10.5,14.9,15.4,14.9h9.9v8.5h-10c-14.8,0-21-11.6-23.6-21.4l-23-83.5c-1.3-5.3-1.9-10.8-1.9-16.2
    c0-37.7,30.7-68.4,68.4-68.4s68.4,30.7,68.4,68.4C160.4,351.4,159.7,356.8,158.3,361.9z M87.7,515.6v-65.7h8.5v65.7H87.7z
     M145.7,345.1c0,29.6-24.1,53.7-53.7,53.7s-53.7-24.1-53.7-53.7s24.1-53.7,53.7-53.7S145.7,315.5,145.7,345.1z M92,404.4
    c19.1,0,36.1-9.1,47-23.2L121.7,442c-2.8,10.7-7.5,10.7-10,10.7h-9.9v-8.5H82.1v8.5h-9.9c-2.5,0-7.1,0-10-10.8l-17.3-61
    C55.7,395.2,72.8,404.4,92,404.4z"/>
  <path class="white" d="M38.3,345.1c0,29.6,24.1,53.7,53.7,53.7s53.7-24.1,53.7-53.7s-24.1-53.7-53.7-53.7S38.3,315.5,38.3,345.1z
     M134.6,345.1v3.4H49.4v-3.4c0-23.5,19.1-42.6,42.6-42.6S134.6,321.6,134.6,345.1z"/>
  <path class="white" d="M92,308.1c-19.6,0-35.8,15.4-36.9,34.8h73.8C127.7,323.5,111.6,308.1,92,308.1z"/>
  <path class="grey" d="M49.4,345.1v3.4h85.2v-3.4c0-23.5-19.1-42.6-42.6-42.6S49.4,321.6,49.4,345.1z M55.1,342.9
    c1.2-19.4,17.3-34.8,36.9-34.8s35.8,15.4,36.9,34.8H55.1z"/>
  <rect x="87.7" y="449.9" class="white" width="8.5" height="65.7"/>
</g>
<g class="signal">
  <path d="M91.4,387.7l-4.6-4.6c-0.3-0.3-0.3-0.9,0-1.2l4.6-4.6c0.3-0.3,0.9-0.3,1.2,0l4.6,4.6c0.3,0.3,0.3,0.9,0,1.2
    l-4.6,4.6C92.3,388,91.8,388,91.4,387.7z"/>
  <path d="M87.4,377.9l1.1-1.1c-1.3-1-2.1-2.6-2.1-4.3c0-3.1,2.5-5.5,5.5-5.5c1.5,0,2.9,0.6,3.9,1.6s1.6,2.4,1.6,3.9
    c0,1.7-0.8,3.3-2.1,4.3l1.1,1.1c1.5-1.3,2.5-3.2,2.5-5.4c0-1.9-0.7-3.7-2.1-5c-1.3-1.3-3.1-2.1-5-2.1c-3.9,0-7.1,3.2-7.1,7.1
    C84.9,374.6,85.9,376.6,87.4,377.9z"/>
  <path d="M84.6,380.7l1.1-1.1c-0.2-0.1-0.3-0.3-0.5-0.4c-1.8-1.8-2.8-4.2-2.8-6.7c0-5.2,4.3-9.5,9.5-9.5
    c2.5,0,4.9,1,6.7,2.8c1.8,1.8,2.8,4.2,2.8,6.7c0,2.8-1.2,5.4-3.2,7.1l1.1,1.1c2.2-2,3.7-5,3.7-8.2c0-3-1.2-5.7-3.2-7.8
    c-2.1-2.1-4.9-3.2-7.8-3.2c-6.1,0-11.1,5-11.1,11.1c0,3,1.2,5.7,3.2,7.8C84.3,380.4,84.4,380.5,84.6,380.7z"/>
</g>
<g id="meter_time">
  <text transform="matrix(1 0 0 1 70.4457 336.0125)" class="grey st5">00:00</text>
</g>
</svg>
