<svg version="1.1" xmlns="http://www.w3.org/2000/svg" xmlns:xlink="http://www.w3.org/1999/xlink" x="0px" y="0px"
   viewBox="-104.6 382.4 194.7 216.2" xml:space="preserve">
<g id="tail">
  <path d="M35.7,555.7v-5.6c16-0.1,27.7-14,31.5-19.2l-6.9-6.2l3.8-1.8c12.7-6.1,18.5-25.3,19.9-30.8l-4.3-4.2l0.5-1.6
    c2.5-8.2,0.3-12.7-2-15.1c-3.2,15.8-20.7,31.3-21.5,32l-1.9,1.7l-3.8-3.5c-1.6,6.4-6.4,17.2-20.3,26.4l-3.1-4.7
    c18.5-12.3,18.6-27.2,18.6-27.3v-6.4l8.6,7.9c5-4.8,18.3-18.8,18.3-30.9v-4l3.7,1.3c4.8,1.7,12.7,8.5,9.2,22.5l4.1,4l-0.3,1.5
    c-0.2,1.1-5.3,24.1-19.8,34.1l4.5,4l-1.2,2C72.7,532.8,58.4,555.6,35.7,555.7z"/>
  <path class="white" d="M35.7,550c16-0.1,27.7-14,31.5-19.2l-6.9-6.2l3.8-1.8c12.7-6.1,18.5-25.3,19.9-30.8l-4.3-4.2l0.5-1.6
    c2.5-8.2,0.3-12.7-2-15.1c-3.2,15.8-20.7,31.3-21.5,32l-1.9,1.7l-3.8-3.5c-1.6,6.4-6.4,17.2-20.3,26.4L35.7,550z"/>
</g>
<g>
  <path class="white" d="M-26.5,472.8c5.6,0,10.1,4.5,10.1,10.1S-20.9,493-26.5,493s-10.1-4.5-10.1-10.1S-32.1,472.8-26.5,472.8z M-59.5,407.9
    l5.2-2.1c3.6,9.3,3.4,20.8,3.2,25.3c-0.3,6.2-1.9,9.7-3.8,11.7l6,4.8l-5.7,5.3c7.2,7.9,17.4,12.3,28.3,12.3s21-4.4,28.2-12.1
    l-6-5.5l6-4.8c-1.9-2-3.4-5.5-3.8-11.7c-0.3-4.5-0.4-16,3.2-25.3l5.2,2.1c-3.2,8.2-3,18.8-2.8,22.9c0.3,5.8,1.8,8.3,3.2,8.8
    c1.5,0.5,4-0.9,5.9-3.4c2.2-2.7,5.1-6.1,8.4-9.4c1.7-1.7,2.3-2.7,2.2-3.6c0-1.1-1-3.3-5.3-7.1C12.2,411,10.6,406,9.3,402
    c-0.8-2.3-1.3-4.1-2.6-5.4c-0.5-0.5-1.4-0.5-3.4-0.4c-1.6,0.1-3.4,0.2-5.2-0.3c-2.4-0.7-4.4-1.8-6.6-3c-4.5-2.4-9.1-4.8-18-4.8
    s-13.5,2.4-17.9,4.8c-2.2,1.2-4.3,2.2-6.7,3c-1.9,0.6-3.7,0.4-5.3,0.3c-1.9-0.1-2.8-0.1-3.4,0.4c-1.3,1.3-1.9,3.1-2.6,5.4
    c-1.3,4-2.9,9-8.8,14.1c-4.3,3.8-5.3,5.9-5.3,7.1c0,1,0.6,2,2.2,3.6c3.4,3.4,6.5,6.9,8.5,9.5c1.9,2.4,4.4,3.8,5.8,3.3
    c1.3-0.4,2.9-3,3.2-8.8C-56.5,426.7-56.3,416.2-59.5,407.9z M-79.5,527.2c-3.9,4.9-6.3,10.8-6.7,17c-0.8,12.2,6.4,23,6.4,23.2
    l2.1,3.1l-3.5,1.2c-0.1,0-12.9,4.3-16.7,5.9c-0.6,0.3-1.1,1.4-0.9,2.4c0.3,1.5,2,2.3,4.7,2.3h0.1l21-0.6c0.1-0.1,0.1-0.3,0.2-0.4
    c1.5-3,3-6.1,3-10.7v-19.1C-75.6,547.3-78.4,538-79.5,527.2z M14.1,581.5c-1.3-2.9-2.6-6.4-2.6-11.1v-65.2h5.6v37.7
    c7.1-12.5,4.6-46.6,0.7-68.2l-0.3-1.9l3.5-2.2c-1.7-4.3-6.6-7.9-11.8-11.7c-1-0.7-2-1.5-3.1-2.3c-6.3,6.9-14.6,11.6-23.8,13.4
    c4,2.8,6.7,7.5,6.7,12.9c0,8.7-7,15.7-15.7,15.7s-15.7-7-15.7-15.7c0-5.3,2.7-10.1,6.8-12.9c-9.1-1.9-17.2-6.5-23.5-13.3
    c-1,0.8-2,1.5-3.1,2.3c-5.2,3.8-10.1,7.4-11.8,11.7l3.5,2.2l-0.3,1.9c-3.9,21.7-6.4,56,0.8,68.4v-37.9h5.6v65.2
    c0,4.7-1.3,8.2-2.6,11.1l-2.5,5.6c-0.3,0.8-0.4,1.5-0.4,2.3c0,1.3,0,3.4,6.4,3.4c0.5,0,1.1,0,1.8,0.1c2.1,0.1,4.7,0.3,6-1
    c1.1-1.1,1.4-3.1,1.5-4.8v-5.6V537l5.8,2.6v-12.8h5.6v21.3l-5.8-2.6v35.9h44.1v-35.9l-5.8,2.6v-21.3h5.6v12.7l5.8-2.6v44.6v5.6
    c0,1.7,0.3,3.7,1.5,4.8c1.4,1.3,3.9,1.1,6,1c0.7,0,1.3-0.1,1.8-0.1c6.4,0,6.4-2.1,6.4-3.4c0-0.8-0.2-1.5-0.4-2.3L14.1,581.5z
     M45.3,577.5c-3.7-1.6-16.5-5.9-16.7-5.9l-3.5-1.2l2.1-3.1c0.1-0.1,7.2-10.9,6.4-23.1c-0.4-6.2-2.8-12.2-6.7-17
    c-1.1,10.8-3.8,20-9.7,24v19.2c0,4.6,1.5,7.7,3,10.7c0.1,0.1,0.1,0.3,0.2,0.4l21,0.6h0.1c2.6,0,4.4-0.8,4.7-2.3
    C46.4,578.9,45.9,577.7,45.3,577.5z"/>
  <path d="M47.5,572.3c-2.8-1.2-9.7-3.6-13.8-5c2.4-4.5,6.2-13.5,5.5-23.5c-0.6-9.2-4.9-18-11.8-24.3c0.5-17.7-2.4-37.1-3.6-43.9
    l3.7-2.3l-0.3-1.9c-1.3-7.3-8-12.2-14.5-17c-1.7-1.2-3.4-2.5-5-3.8l-2.2-1.8l0,0l-1-0.9l3.2-2.6v-0.1c3.3,0,6.7-2,9.6-5.6
    c2-2.6,4.9-5.8,8-9c1.4-1.4,4-4.1,3.8-7.8c-0.1-3.4-2.3-6.8-7.2-11.1c-4.7-4.1-6-7.9-7.2-11.6c-0.9-2.8-1.8-5.4-4-7.6
    c-2.4-2.4-5.4-2.2-7.7-2c-1.2,0.1-2.4,0.2-3.2-0.1c-1.9-0.6-3.6-1.5-5.6-2.5c-4.6-2.4-10.3-5.4-20.6-5.5h-0.2
    c-10.2,0-15.9,3-20.4,5.4c-2,1.1-3.8,2-5.7,2.6c-0.9,0.3-2,0.2-3.3,0.1c-2.4-0.2-5.3-0.4-7.7,2c-2.2,2.2-3.1,4.8-4,7.6
    c-1.2,3.7-2.5,7.5-7.2,11.6c-4.9,4.2-7.2,7.8-7.3,11.2c-0.1,3.4,1.9,5.8,3.9,7.7c3.2,3.2,6.1,6.5,8,9c2.8,3.6,6.3,5.6,9.6,5.6l0,0
    l3.2,2.6l-2.9,2.7v0.1c-1.6,1.3-3.3,2.5-4.9,3.7c-6.5,4.8-13.2,9.7-14.5,17l-0.3,1.9l3.7,2.3c-1.2,6.8-4.1,26.2-3.6,43.9
    c-7,6.3-11.3,15.1-11.8,24.3c-0.7,10,3.1,19,5.5,23.5c-4.2,1.4-11.1,3.8-13.9,5c-3.2,1.4-4.9,5.1-4.2,8.8c0.4,1.7,2.2,6.8,10.4,6.8
    c0.1,0,0.1,0,0.2,0l18.8-0.6c-0.1,0.7-0.2,1.4-0.2,2.2c0,4.1,2.1,9,12,9c0.4,0,0.9,0,1.4,0.1c0.8,0.1,1.6,0.1,2.6,0.1
    c2.5,0,5.4-0.4,7.7-2.6c2.1-2,3.2-5,3.2-8.9h44.1c0.1,4,1.2,7,3.2,8.9c2.3,2.1,5.2,2.6,7.7,2.6c0.9,0,1.8-0.1,2.6-0.1
    c0.5,0,1-0.1,1.4-0.1c9.9,0,12-4.9,12-9c0-0.7-0.1-1.5-0.2-2.2l18.8,0.6c0.1,0,0.1,0,0.2,0c8.1,0,9.9-5.1,10.2-6.7
    C52.5,577.5,50.7,573.7,47.5,572.3z M-59.9,439.7c-1.5,0.5-4-1-5.8-3.3c-2-2.6-5.1-6.1-8.5-9.5c-1.6-1.6-2.3-2.6-2.2-3.6
    c0-1.2,1-3.3,5.3-7.1c5.9-5.1,7.5-10.1,8.8-14.1c0.8-2.3,1.3-4.1,2.6-5.4c0.5-0.5,1.4-0.5,3.4-0.4c1.6,0.1,3.4,0.2,5.3-0.3
    c2.4-0.7,4.5-1.8,6.7-3c4.5-2.4,9.1-4.8,17.9-4.8c8.9,0,13.5,2.5,18,4.8c2.2,1.1,4.2,2.2,6.6,3c1.9,0.5,3.7,0.4,5.2,0.3
    c1.9-0.1,2.8-0.1,3.4,0.4c1.3,1.3,1.8,3.1,2.6,5.4c1.3,4,2.9,9,8.8,14.1c4.3,3.8,5.2,6,5.3,7.1c0,0.9-0.6,1.9-2.2,3.6
    c-3.2,3.3-6.2,6.7-8.4,9.4c-1.9,2.4-4.4,3.9-5.9,3.4c-1.3-0.4-2.9-3-3.2-8.8c-0.2-4.1-0.4-14.7,2.8-22.9l-5.2-2.1
    c-3.6,9.3-3.4,20.8-3.2,25.3c0.3,6.2,1.9,9.7,3.8,11.7l-6,4.8l6,5.5c-7.2,7.7-17.3,12.1-28.2,12.1c-11,0-21.2-4.5-28.3-12.3
    l5.7-5.3l-6-4.8c1.9-2,3.4-5.5,3.8-11.7c0.3-4.5,0.5-16-3.2-25.3l-5.2,2.1c3.2,8.3,3,18.8,2.8,22.9
    C-57,436.7-58.6,439.2-59.9,439.7z M-16.4,482.9c0,5.6-4.5,10.1-10.1,10.1s-10.1-4.5-10.1-10.1s4.5-10.1,10.1-10.1
    S-16.4,477.3-16.4,482.9z M-72.7,581.1c-0.1,0.1-0.1,0.3-0.2,0.4l-21,0.6H-94c-2.7,0-4.4-0.8-4.7-2.3c-0.2-1,0.3-2.2,0.9-2.4
    c3.7-1.6,16.5-5.9,16.7-5.9l3.5-1.2l-2.1-3.1c-0.1-0.1-7.3-11-6.4-23.2c0.4-6.2,2.8-12.2,6.7-17c1.1,10.8,3.9,20.1,9.8,24.1v19.1
    C-69.7,575-71.2,578.1-72.7,581.1z M10.7,592.8c-0.5,0-1.1,0-1.8,0.1c-2.1,0.1-4.7,0.3-6-1c-1.1-1.1-1.4-3.1-1.5-4.8v-5.6v-44.6
    l-5.8,2.6v-12.7H-10v21.3l5.8-2.6v35.9h-44.1v-35.9l5.8,2.6v-21.3h-5.6v12.7l-5.8-2.6v44.6v5.6c0,1.7-0.3,3.7-1.5,4.8
    c-1.4,1.3-4,1.1-6,1c-0.7,0-1.3-0.1-1.8-0.1c-6.4,0-6.4-2.1-6.4-3.4c0-0.8,0.2-1.5,0.4-2.3l2.5-5.6c1.3-2.9,2.6-6.4,2.6-11.1v-65.2
    h-5.6v37.9c-7.3-12.4-4.7-46.7-0.8-68.4l0.3-1.9l-3.5-2.2c1.7-4.3,6.6-7.9,11.8-11.7c1-0.7,2-1.5,3.1-2.3
    c6.2,6.8,14.4,11.5,23.5,13.3c-4.1,2.8-6.8,7.6-6.8,12.9c0,8.7,7,15.7,15.7,15.7s15.7-7,15.7-15.7c0-5.3-2.7-10-6.7-12.9
    c9.2-1.8,17.5-6.4,23.8-13.4c1,0.8,2,1.5,3.1,2.3c5.2,3.8,10.1,7.4,11.8,11.7l-3.5,2.2l0.3,1.9c3.9,21.6,6.4,55.6-0.7,68.2v-37.7
    h-5.6v65.2c0,4.7,1.3,8.2,2.6,11.1l2.5,5.6c0.3,0.8,0.4,1.5,0.4,2.3C17.1,590.7,17.1,592.8,10.7,592.8z M46.2,579.9
    c-0.3,1.5-2,2.3-4.7,2.3h-0.1l-21-0.6c-0.1-0.1-0.1-0.3-0.2-0.4c-1.5-3-3-6.1-3-10.7v-19.2c5.8-4,8.6-13.3,9.7-24
    c3.9,4.9,6.3,10.8,6.7,17c0.8,12.2-6.4,23-6.4,23.1l-2.1,3.1l3.5,1.2c0.1,0,12.9,4.3,16.7,5.9C45.9,577.7,46.4,578.9,46.2,579.9z"
    />
  <path d="M-24,416.5h-5c-2,0-6,0-6,5c0,4,2.7,8.2,8.5,8.2s8.5-4.3,8.5-8.2C-18,416.5-21.9,416.5-24,416.5z M-26.5,424.1
    c-2,0-2.7-1-2.8-2c0.1,0,0.2,0,0.3,0h5c0.1,0,0.2,0,0.3,0C-23.8,423.1-24.5,424.1-26.5,424.1z"/>
  <path d="M-43.1,412.5l-4.6-3.2c1.7-2.5,4.4-3.9,7.3-3.9c2.3,0,4.4,0.8,5.9,2.3l-4,4c-0.4-0.4-1.1-0.7-1.9-0.7
    C-41.5,411-42.4,411.6-43.1,412.5z"/>
  <path d="M-9.9,412.5c-0.6-0.9-1.6-1.5-2.7-1.5c-0.8,0-1.5,0.2-1.9,0.7l-4-4c1.5-1.5,3.6-2.3,5.9-2.3c2.9,0,5.6,1.5,7.3,3.9
    L-9.9,412.5z"/>
  <path d="M-9.5,430.8c0,0.1-0.6,6.5-4.9,6.5c-2.7,0-4.1-1.4-5.8-3.1c-1.5-1.6-3.4-3.5-6.3-3.5s-4.8,1.9-6.3,3.5
    c-1.6,1.7-3.1,3.1-5.8,3.1c-4.2,0-4.9-6.3-4.9-6.5l-5.6,0.5c0.4,4,3,11.7,10.5,11.7c1.3,0,2.4-0.2,3.4-0.5c1,3.8,4.5,6.7,8.7,6.7
    s7.7-2.8,8.7-6.7c1,0.3,2.1,0.5,3.4,0.5c7.5,0,10.1-7.6,10.5-11.7L-9.5,430.8z M-23.1,440.1c0,1.8-1.6,3.4-3.4,3.4
    s-3.4-1.6-3.4-3.4v-0.9c0.4-0.4,0.8-0.7,1.1-1.1c0.9-0.9,1.7-1.8,2.3-1.8s1.4,0.9,2.3,1.8c0.3,0.3,0.7,0.7,1.1,1.1V440.1z"/>
</g>
<g class="signal">
  <path d="M-26.8,491.2l-2.6-2.6c-0.2-0.2-0.2-0.5,0-0.7l2.6-2.6c0.2-0.2,0.5-0.2,0.7,0l2.6,2.6c0.2,0.2,0.2,0.5,0,0.7l-2.6,2.6
    C-26.3,491.4-26.6,491.4-26.8,491.2z"/>
  <path d="M-29.1,485.6l0.6-0.6c-0.7-0.6-1.2-1.5-1.2-2.5c0-1.7,1.4-3.2,3.2-3.2c0.8,0,1.6,0.3,2.2,0.9s0.9,1.4,0.9,2.2
    c0,1-0.5,1.9-1.2,2.5l0.6,0.6c0.9-0.7,1.4-1.9,1.4-3.1c0-1.1-0.4-2.1-1.2-2.9c-0.8-0.8-1.8-1.2-2.9-1.2c-2.2,0-4.1,1.8-4.1,4.1
    C-30.5,483.7-30,484.8-29.1,485.6z"/>
  <path d="M-30.7,487.2l0.6-0.6c-0.1-0.1-0.2-0.2-0.3-0.2c-1-1-1.6-2.4-1.6-3.8c0-3,2.4-5.4,5.4-5.4c1.5,0,2.8,0.6,3.8,1.6
    s1.6,2.4,1.6,3.8c0,1.6-0.7,3.1-1.8,4.1l0.6,0.6c1.3-1.2,2.1-2.8,2.1-4.7c0-1.7-0.7-3.3-1.9-4.5s-2.8-1.9-4.5-1.9
    c-3.5,0-6.3,2.8-6.3,6.3c0,1.7,0.7,3.3,1.9,4.5C-30.9,487-30.8,487.1-30.7,487.2z"/>
</g>
</svg>
