<svg version="1.1" xmlns="http://www.w3.org/2000/svg" xmlns:xlink="http://www.w3.org/1999/xlink" x="0px" y="0px"
   viewBox="-479.1 142.1 125.1 222.9" style="enable-background:new -479.1 142.1 125.1 222.9;" xml:space="preserve">
<style type="text/css">
  .st2{fill:#0563C9;}
  .st3{fill:#EAEAEA;}
  .st4{fill:#1871E8;}
  .st5{font-family:'OpenSans';}
  .st6{font-size:16.3187px;}
  .st7{font-family:'OpenSans-Bold';}
  .st8{font-size:8px;}
  .st9{font-family:'OpenSans-Extrabold';}
  .st10{font-size:16.8388px;}
  .st11{font-size:24.635px;}
</style>
<path class="white" d="M-370,330.3h-93.1V168.6h93.1V330.3z"/>
<g id="proximity_content" class="phone_content">
  <g id="proximity3">
    <path class="white" d="M-370,330.3h-93.1V168.6h93.1V330.3z"/>
    <rect x="-456.2" y="172.5" class="st2" width="81.3" height="152"/>
    <rect x="-440" y="226.3" class="white" width="48.8" height="48.8"/>
    <rect x="-439.8" y="288.6" class="white" width="48.6" height="5.6"/>
    <rect x="-439.8" y="207.6" class="white" width="48.6" height="5.6"/>
    <rect x="-456.2" y="311.4" class="st3" width="81.3" height="13.1"/>
    <rect x="-456.2" y="172.5" class="white" width="81.3" height="18.7"/>
    <rect x="-452.7" y="182.1" class="st3" width="74.3" height="5.6"/>
    <rect x="-383.3" y="175.7" class="grey" width="4.9" height="2.2"/>
    <rect x="-452.7" y="175.7" class="grey" width="10.4" height="2.2"/>
  </g>
  <g id="proximity2">
    <path class="white" d="M-370,330.3h-93.1V168.6h93.1V330.3z"/>
    <rect x="-459.5" y="192.5" class="st4" width="86.4" height="28.4"/>
    <rect x="-459.5" y="220.8" class="white" width="86.4" height="28.4"/>
    <rect x="-433.2" y="202.8" class="white" width="48.7" height="7.9"/>
    <rect x="-433.2" y="231.2" class="grey" width="48.7" height="7.9"/>
    <rect x="-456.3" y="172.5" class="white" width="81.3" height="18.7"/>
    <rect x="-452.8" y="180.9" class="st3" width="74.4" height="7.9"/>
    <rect x="-383.3" y="175.3" class="grey" width="4.9" height="3.1"/>
    <rect x="-452.8" y="175.3" class="grey" width="10.4" height="3.1"/>
    <path class="white" d="M-442.8,212.3l-2-2c-0.1-0.1-0.1-0.4,0-0.6l2-2c0.1-0.1,0.4-0.1,0.6,0l2,2c0.1,0.1,0.1,0.4,0,0.6l-2,2
      C-442.5,212.6-442.7,212.6-442.8,212.3z M-444.6,208.1l0.4-0.4c-0.6-0.4-1-1.1-1-1.8c0-1.3,1.1-2.4,2.4-2.4c0.7,0,1.3,0.3,1.7,0.7
      c0.4,0.4,0.7,1.1,0.7,1.7c0,0.7-0.3,1.4-0.8,1.8l0.4,0.4c0.7-0.6,1.1-1.4,1.1-2.4c0-0.8-0.3-1.5-0.8-2.3c-0.6-0.6-1.4-0.8-2.3-0.8
      c-1.7,0-3.1,1.4-3.1,3.1C-445.8,206.6-445.3,207.5-444.6,208.1z M-445.9,209.4l0.4-0.4l-0.1-0.3c-0.8-0.8-1.3-1.8-1.3-3
      c0-2.3,1.8-4.1,4.1-4.1c1.1,0,2.1,0.4,3,1.3c0.8,0.8,1.3,1.8,1.3,3c0,1.3-0.6,2.4-1.4,3.1l0.4,0.4c1-0.8,1.5-2.1,1.5-3.5
      c0-1.3-0.6-2.5-1.4-3.4c-0.8-0.8-2.1-1.4-3.4-1.4c-2.7,0-4.8,2.1-4.8,4.8c0,1.3,0.6,2.5,1.4,3.4
      C-446,209.1-445.9,209.4-445.9,209.4z"/>
    <path class="grey" d="M-442.8,240.8l-2-2c-0.1-0.1-0.1-0.4,0-0.6l2-2c0.1-0.1,0.4-0.1,0.6,0l2,2c0.1,0.1,0.1,0.4,0,0.6l-2,2
      C-442.5,241-442.7,241-442.8,240.8z M-444.6,236.5l0.4-0.4c-0.6-0.4-1-1.1-1-1.8c0-1.3,1.1-2.4,2.4-2.4c0.7,0,1.3,0.3,1.7,0.7
      c0.4,0.4,0.7,1.1,0.7,1.7c0,0.7-0.3,1.4-0.8,1.8l0.4,0.4c0.7-0.6,1.1-1.4,1.1-2.4c0-0.8-0.3-1.5-0.8-2.3c-0.6-0.6-1.4-0.8-2.3-0.8
      c-1.7,0-3.1,1.4-3.1,3.1C-445.8,235.1-445.3,236.1-444.6,236.5z M-445.9,237.7l0.4-0.4l-0.1-0.1c-0.8-0.8-1.3-1.8-1.3-3
      c0-2.3,1.8-4.1,4.1-4.1c1.1,0,2.1,0.4,3,1.3c0.8,0.8,1.3,1.8,1.3,3c0,1.3-0.6,2.4-1.4,3.1l0.4,0.4c1-0.8,1.5-2.1,1.5-3.5
      c0-1.3-0.6-2.5-1.4-3.4c-0.8-0.8-2.1-1.4-3.4-1.4c-2.7,0-4.8,2.1-4.8,4.8c0,1.3,0.6,2.5,1.4,3.4
      C-446,237.7-445.9,237.7-445.9,237.7z"/>
    <rect x="-459.5" y="249.5" class="white" width="86.4" height="28.4"/>
    <rect x="-433.2" y="259.6" class="grey" width="48.7" height="7.9"/>
    <path class="grey" d="M-442.8,269.5l-2-2c-0.1-0.1-0.1-0.4,0-0.6l2-2c0.1-0.1,0.4-0.1,0.6,0l2,2c0.1,0.1,0.1,0.4,0,0.6l-2,2
      C-442.5,269.5-442.7,269.5-442.8,269.5z M-444.6,265l0.4-0.4c-0.6-0.4-1-1.1-1-1.8c0-1.3,1.1-2.4,2.4-2.4c0.7,0,1.3,0.3,1.7,0.7
      c0.4,0.4,0.7,1.1,0.7,1.7c0,0.7-0.3,1.4-0.8,1.8l0.4,0.4c0.7-0.6,1.1-1.4,1.1-2.4c0-0.8-0.3-1.5-0.8-2.3c-0.6-0.6-1.4-0.8-2.3-0.8
      c-1.7,0-3.1,1.4-3.1,3.1C-445.8,263.6-445.3,264.4-444.6,265z M-445.9,266.4l0.4-0.4l-0.1-0.1c-0.8-0.8-1.3-1.8-1.3-3
      c0-2.3,1.8-4.1,4.1-4.1c1.1,0,2.1,0.4,3,1.3c0.8,0.8,1.3,1.8,1.3,3c0,1.3-0.6,2.4-1.4,3.1l0.4,0.4c1-0.8,1.5-2.1,1.5-3.5
      c0-1.3-0.6-2.5-1.4-3.4c-0.8-0.8-2.1-1.4-3.4-1.4c-2.7,0-4.8,2.1-4.8,4.8c0,1.3,0.6,2.5,1.4,3.4
      C-446,266.1-445.9,266.1-445.9,266.4z"/>
    <rect x="-459.5" y="277.9" class="white" width="86.4" height="28.4"/>
    <rect x="-433.2" y="288.2" class="grey" width="48.7" height="7.9"/>
    <path class="grey" d="M-442.8,297.8l-2-2c-0.1-0.1-0.1-0.4,0-0.6l2-2c0.1-0.1,0.4-0.1,0.6,0l2,2c0.1,0.1,0.1,0.4,0,0.6l-2,2
      C-442.5,298-442.7,298-442.8,297.8z M-444.6,293.5l0.4-0.4c-0.6-0.4-1-1.1-1-1.8c0-1.3,1.1-2.4,2.4-2.4c0.7,0,1.3,0.3,1.7,0.7
      c0.4,0.4,0.7,1.1,0.7,1.7c0,0.7-0.3,1.4-0.8,1.8l0.4,0.4c0.7-0.6,1.1-1.4,1.1-2.4c0-0.8-0.3-1.5-0.8-2.3c-0.6-0.6-1.4-0.8-2.3-0.8
      c-1.7,0-3.1,1.4-3.1,3.1C-445.8,292.1-445.3,293.1-444.6,293.5z M-445.9,294.8l0.4-0.4l-0.1-0.1c-0.8-0.8-1.3-1.8-1.3-3
      c0-2.3,1.8-4.1,4.1-4.1c1.1,0,2.1,0.4,3,1.3c0.8,0.8,1.3,1.8,1.3,3c0,1.3-0.6,2.4-1.4,3.1l0.4,0.4c1-0.8,1.5-2.1,1.5-3.5
      c0-1.3-0.6-2.5-1.4-3.4s-2.1-1.4-3.4-1.4c-2.7,0-4.8,2.1-4.8,4.8c0,1.3,0.6,2.5,1.4,3.4C-446,294.8-445.9,294.8-445.9,294.8z"/>
  </g>
  <g id="proximity1">
    <path class="white" d="M-370,330.3h-93.1V168.6h93.1V330.3z"/>
    <rect x="-459.4" y="192.3" class="white" width="86.4" height="28.4"/>
    <rect x="-459.4" y="220.8" class="white" width="86.4" height="28.4"/>
    <rect x="-433.1" y="202.8" class="grey" width="48.6" height="7.9"/>
    <rect x="-433.1" y="231.2" class="grey" width="48.6" height="7.9"/>
    <rect x="-456.2" y="172.5" class="white" width="81.3" height="18.7"/>
    <rect x="-452.7" y="180.9" class="st3" width="74.3" height="7.9"/>
    <rect x="-383.1" y="175.3" class="grey" width="4.8" height="3.1"/>
    <rect x="-452.7" y="175.3" class="grey" width="10.4" height="3.1"/>
    <path class="grey" d="M-442.8,212.3l-2-2c-0.1-0.1-0.1-0.4,0-0.6l2-2c0.1-0.1,0.4-0.1,0.6,0l2,2c0.1,0.1,0.1,0.4,0,0.6l-2,2
      C-442.4,212.5-442.7,212.5-442.8,212.3z M-444.5,208.1l0.4-0.4c-0.6-0.4-1-1.1-1-1.8c0-1.3,1.1-2.4,2.4-2.4c0.7,0,1.3,0.3,1.7,0.7
      c0.4,0.4,0.7,1.1,0.7,1.7c0,0.7-0.3,1.4-0.8,1.8l0.4,0.4c0.7-0.6,1.1-1.4,1.1-2.4c0-0.8-0.3-1.5-0.8-2.3c-0.6-0.6-1.4-0.8-2.3-0.8
      c-1.7,0-3.1,1.4-3.1,3.1C-445.6,206.6-445.2,207.5-444.5,208.1z M-445.8,209.2l0.4-0.4l-0.1-0.1c-0.8-0.8-1.3-1.8-1.3-3
      c0-2.3,1.8-4.1,4.1-4.1c1.1,0,2.1,0.4,3,1.3c0.8,0.8,1.3,1.8,1.3,3c0,1.3-0.6,2.4-1.4,3.1l0.4,0.4c1-0.8,1.5-2.1,1.5-3.5
      c0-1.3-0.6-2.5-1.4-3.4c-0.8-0.8-2.1-1.4-3.4-1.4c-2.7,0-4.8,2.1-4.8,4.8c0,1.3,0.6,2.5,1.4,3.4
      C-445.9,209.1-445.8,209.2-445.8,209.2z"/>
    <path class="grey" d="M-442.8,240.8l-2-2c-0.1-0.1-0.1-0.4,0-0.6l2-2c0.1-0.1,0.4-0.1,0.6,0l2,2c0.1,0.1,0.1,0.4,0,0.6l-2,2
      C-442.4,240.9-442.7,240.9-442.8,240.8z M-444.5,236.5l0.4-0.4c-0.6-0.4-1-1.1-1-1.8c0-1.3,1.1-2.4,2.4-2.4c0.7,0,1.3,0.3,1.7,0.7
      c0.4,0.4,0.7,1.1,0.7,1.7c0,0.7-0.3,1.4-0.8,1.8l0.4,0.4c0.7-0.6,1.1-1.4,1.1-2.4c0-0.8-0.3-1.5-0.8-2.3c-0.6-0.6-1.4-0.8-2.3-0.8
      c-1.7,0-3.1,1.4-3.1,3.1C-445.6,235.1-445.2,236-444.5,236.5z M-445.8,237.7l0.4-0.4l-0.1-0.1c-0.8-0.8-1.3-1.8-1.3-3
      c0-2.3,1.8-4.1,4.1-4.1c1.1,0,2.1,0.4,3,1.3c0.8,0.8,1.3,1.8,1.3,3c0,1.3-0.6,2.4-1.4,3.1l0.4,0.4c1-0.8,1.5-2.1,1.5-3.5
      c0-1.3-0.6-2.5-1.4-3.4c-0.8-0.8-2.1-1.4-3.4-1.4c-2.7,0-4.8,2.1-4.8,4.8c0,1.3,0.6,2.5,1.4,3.4
      C-445.9,237.7-445.8,237.7-445.8,237.7z"/>
    <rect x="-459.4" y="249.3" class="white" width="86.4" height="28.4"/>
    <rect x="-433.1" y="259.6" class="grey" width="48.6" height="7.9"/>
    <path class="grey" d="M-442.8,269.3l-2-2c-0.1-0.1-0.1-0.4,0-0.6l2-2c0.1-0.1,0.4-0.1,0.6,0l2,2c0.1,0.1,0.1,0.4,0,0.6l-2,2
      C-442.4,269.5-442.7,269.5-442.8,269.3z M-444.5,265l0.4-0.4c-0.6-0.4-1-1.1-1-1.8c0-1.3,1.1-2.4,2.4-2.4c0.7,0,1.3,0.3,1.7,0.7
      c0.4,0.4,0.7,1.1,0.7,1.7c0,0.7-0.3,1.4-0.8,1.8l0.4,0.4c0.7-0.6,1.1-1.4,1.1-2.4c0-0.8-0.3-1.5-0.8-2.3c-0.6-0.6-1.4-0.8-2.3-0.8
      c-1.7,0-3.1,1.4-3.1,3.1C-445.6,263.6-445.2,264.4-444.5,265z M-445.8,266.2l0.4-0.4l-0.1-0.1c-0.8-0.8-1.3-1.8-1.3-3
      c0-2.3,1.8-4.1,4.1-4.1c1.1,0,2.1,0.4,3,1.3c0.8,0.8,1.3,1.8,1.3,3c0,1.3-0.6,2.4-1.4,3.1l0.4,0.4c1-0.8,1.5-2.1,1.5-3.5
      c0-1.3-0.6-2.5-1.4-3.4s-2.1-1.4-3.4-1.4c-2.7,0-4.8,2.1-4.8,4.8c0,1.3,0.6,2.5,1.4,3.4C-445.9,266.1-445.8,266.1-445.8,266.2z"/>
    <rect x="-459.4" y="277.8" class="white" width="86.4" height="28.4"/>
    <rect x="-433.1" y="288.2" class="grey" width="48.6" height="7.9"/>
    <path class="grey" d="M-442.8,297.8l-2-2c-0.1-0.1-0.1-0.4,0-0.6l2-2c0.1-0.1,0.4-0.1,0.6,0l2,2c0.1,0.1,0.1,0.4,0,0.6l-2,2
      C-442.4,297.9-442.7,297.9-442.8,297.8z M-444.5,293.5l0.4-0.4c-0.6-0.4-1-1.1-1-1.8c0-1.3,1.1-2.4,2.4-2.4c0.7,0,1.3,0.3,1.7,0.7
      c0.4,0.4,0.7,1.1,0.7,1.7c0,0.7-0.3,1.4-0.8,1.8l0.4,0.4c0.7-0.6,1.1-1.4,1.1-2.4c0-0.8-0.3-1.5-0.8-2.3c-0.6-0.6-1.4-0.8-2.3-0.8
      c-1.7,0-3.1,1.4-3.1,3.1C-445.6,292.1-445.2,293-444.5,293.5z M-445.8,294.7l0.4-0.4l-0.1-0.1c-0.8-0.8-1.3-1.8-1.3-3
      c0-2.3,1.8-4.1,4.1-4.1c1.1,0,2.1,0.4,3,1.3c0.8,0.8,1.3,1.8,1.3,3c0,1.3-0.6,2.4-1.4,3.1l0.4,0.4c1-0.8,1.5-2.1,1.5-3.5
      c0-1.3-0.6-2.5-1.4-3.4c-0.8-0.8-2.1-1.4-3.4-1.4c-2.7,0-4.8,2.1-4.8,4.8c0,1.3,0.6,2.5,1.4,3.4
      C-445.9,294.7-445.8,294.7-445.8,294.7z"/>
  </g>
</g>
<g id="artist_content" class="phone_content">
  <path class="white" d="M-370,330.3h-93.1V168.6h93.1V330.3z"/>
  <rect x="-449.6" y="265.5" class="grey" width="66.5" height="5.6"/>
  <rect x="-449.6" y="279.7" class="grey" width="66.5" height="5.6"/>
  <rect x="-449.6" y="293.7" class="grey" width="66.5" height="5.6"/>
  <rect x="-449.6" y="307.9" class="grey" width="66.5" height="5.6"/>
  <g>
    <path class="grey" d="M-452.5,248.3h72.1V182h-72.1V248.3z M-433.2,208.5c0.4,0.1,0.8,0.3,1.2,0.4c-0.3,1.1-0.4,2.2-0.5,3.4
      C-433,211-433.2,209.7-433.2,208.5z M-435.1,205.2c3.4-5,9.2-8.8,13.8-8.9c4.6,0,7.4,1.9,8.8,5.9c-2.3,3.6-6.1,5.7-10.3,5.7
      C-428.8,207.7-433.1,206.8-435.1,205.2z M-410.1,203.8c2.1,1.2,3.3,4.4,3.4,7.5C-408.6,209.4-409.8,206.7-410.1,203.8z
       M-430.4,212.9c0-1.2,0.2-2.4,0.4-3.6c2.4,0.4,4.9,0.5,7.1,0.5c4.1,0,8-1.8,10.7-4.8c0.6,3,1.9,5.7,3.8,7.7c0,0.1,0,0.1,0,0.2
      c0,7.2-4.9,13-11,13S-430.4,220.2-430.4,212.9z M-446.9,187.7h60.9v55.1h-12l1.6-9.6l-16.6-5v-1.7c3.8-2.3,6.4-6.6,6.9-11.7l1.4,1
      l0.2-1.8c0.6-5.3-1.4-11.2-5.8-12.4c-1.7-4.8-5.4-7.3-10.8-7.3c-5.7,0.1-12.4,4.6-16.1,10.6l-0.4,0.6l0.5,0.6
      c0.5,0.7,1.2,1.2,2,1.7c0,0.3,0,0.5,0,0.8c0,3.2,1.4,6.8,3.6,9.6c1,3.2,2.8,5.9,5.2,7.7v2.5l-16.6,5l1.6,9.6h-5.2v-55.3H-446.9z"
      />
    <path class="grey" d="M-427.5,215.7c0,1.9,1.6,3.5,3.5,3.5s3.5-1.6,3.5-3.5v-1h2.2v1c0,1.9,1.6,3.5,3.5,3.5s3.5-1.6,3.5-3.5v-1h1.3
      v-2.2h-1.3h-7h-2.2h-7h-1.3v2.2h1.3V215.7z M-413.5,214.7v1c0,0.7-0.6,1.3-1.3,1.3s-1.3-0.6-1.3-1.3v-1H-413.5z M-422.6,214.7v1
      c0,0.7-0.6,1.3-1.3,1.3c-0.7,0-1.3-0.6-1.3-1.3v-1H-422.6z"/>
    <rect x="-420.2" y="220.8" class="grey" width="4.8" height="2.2"/>
  </g>
</g>
<g id="art_content" class="phone_content">
  <path class="white" d="M-370,330.3h-93.1V168.6h93.1V330.3z"/>
  <rect x="-442.8" y="255.2" class="grey" width="53.3" height="5.6"/>
  <rect x="-449.2" y="276.7" class="grey" width="66.4" height="5.6"/>
  <rect x="-449.2" y="290.8" class="grey" width="66.4" height="5.6"/>
  <rect x="-449.2" y="304.8" class="grey" width="66.4" height="5.6"/>
  <rect x="-449.2" y="319.1" class="grey" width="66.4" height="5.6"/>
  <path class="grey" d="M-442.6,176.3v66.3h53v-66.3H-442.6z M-395.1,237H-437v-55.1h41.8V237H-395.1z"/>
  <path class="grey" d="M-422.1,227.8c2.1,0.3,4.3,0.5,6.5,0.5s4.5-0.2,6.5-0.5v-3.1c-1.8,0.3-4,0.5-6.5,0.5c-2.6,0-4.8-0.2-6.5-0.5
    V227.8z M-401.1,227.6c0.5,0.5,0.8,1.1,0.8,1.7c0,3.2-6.8,4.5-12.3,4.8c-1,0.1-1.9,0.1-2.9,0.1c-0.2,0-0.4,0-0.6,0s-0.4,0-0.6,0
    c-1,0-1.9,0-2.9-0.1c-5.5-0.4-12.3-1.6-12.3-4.8c0-0.7,0.3-1.2,0.8-1.7v-18c0,1.1,0.8,2,2.2,2.7v17c0,0.7,4,2.8,12.8,2.8
    c8.3,0,12.8-2,12.8-2.8v-17c1.3-0.7,2.2-1.6,2.2-2.7V227.6z M-431.1,209.6V192c-0.5-0.5-0.8-1.1-0.8-1.7c0-3.9,10.3-5,15.8-5
    s15.8,1,15.8,5c0,0.7-0.3,1.2-0.8,1.7v17.6c0,1.1-0.8,2-2.2,2.7c-1.9,1-4.8,1.7-8,2c-0.4,2.3-2.4,4-4.8,4s-4.3-1.7-4.8-4
    c-3.2-0.3-6.1-1-8-2C-430.4,211.6-431.1,210.7-431.1,209.6z M-413.5,213.4c0-1.5-1.2-2.7-2.7-2.7s-2.7,1.2-2.7,2.7s1.2,2.7,2.7,2.7
    C-414.6,216.1-413.5,214.9-413.5,213.4z M-406.1,197.4c-2.1,0.7-5.4,1.2-10,1.2s-7.9-0.6-10-1.2v5c2.8,0.8,6.5,1.2,10,1.2
    s7.2-0.4,10-1.2V197.4z M-406.1,191.4c-0.1,0-0.1-0.1-0.2-0.1c-1.1-0.6-4.5-1.5-9.8-1.5c-5.4,0-8.7,0.8-9.8,1.5
    c-0.1,0-0.1,0.1-0.2,0.1c0.9,0.6,4.3,1.6,10,1.6C-410.5,193-407.1,192-406.1,191.4z M-429.8,190.2c0,0.2,0.5,0.6,1.3,0.9
    c0.1-0.9,0.9-1.5,2.1-2c3.3-1.4,9.3-1.5,10.2-1.5s7,0.1,10.2,1.5c1.1,0.5,2,1.1,2.1,2c0.8-0.4,1.2-0.7,1.3-0.9
    c0-0.3-0.6-0.7-1.6-1.1c-2-0.8-6-1.7-12-1.7s-10,0.9-12,1.7C-429.1,189.6-429.8,190-429.8,190.2z"/>
</g>
<g id="pet_content" class="phone_content">
  <path class="white" d="M-370,330.3h-93.1V168.6h93.1V330.3z"/>
  <path class="grey" d="M-416.7,209.4c1,0,1.2-0.5,1.2-1c-0.1,0-0.2,0-0.3,0h-1.8c-0.1,0-0.2,0-0.3,0
    C-417.9,208.7-417.7,209.4-416.7,209.4z"/>
  <path class="grey" d="M-416.6,235.6c15.7,0,28.5-12.8,28.5-28.5s-12.8-28.5-28.5-28.5s-28.5,12.8-28.5,28.5
    S-432.3,235.6-416.6,235.6z M-434,204.9c1.7-1.5,2.2-3,2.7-4.3c0.3-1,0.6-1.9,1.4-2.6c0.8-0.8,1.8-0.7,2.6-0.7c0.5,0,0.9,0.1,1.2,0
    c0.8-0.2,1.4-0.6,2.2-1c1.6-0.8,3.6-1.9,7.2-1.9l0,0c3.6,0,5.7,1.1,7.3,1.9c0.7,0.4,1.4,0.7,2,0.9c0.3,0.1,0.7,0,1.1,0
    c0.8-0.1,1.9-0.1,2.7,0.7c0.8,0.7,1.1,1.7,1.4,2.7c0.4,1.3,0.9,2.7,2.6,4.2c1.8,1.5,2.5,2.7,2.6,3.9c0,1.1-0.6,1.9-1.3,2.7
    c-1,1-1.9,2-2.6,2.8l-0.4,0.5c-1,1.2-2.3,1.9-3.4,1.9c-0.1,0-0.1,0-0.2,0c-3.2,2.9-7.4,4.6-11.9,4.6c-4.4,0-8.6-1.6-11.8-4.6
    c-1.3,0.2-2.8-0.5-3.9-1.9c-0.5-0.6-1.1-1.3-1.9-2.1c-0.3-0.4-0.7-0.7-1-1.1c-0.7-0.7-1.3-1.6-1.3-2.7
    C-436.5,207.6-435.7,206.4-434,204.9z"/>
  <path class="grey" d="M-418,214.9c0,0.7,0.6,1.3,1.3,1.3c0.7,0,1.3-0.6,1.3-1.3v-0.4c-0.2-0.2-0.3-0.3-0.5-0.5
    c-0.4-0.4-0.6-0.7-0.9-0.7c-0.2,0-0.6,0.3-0.9,0.7c-0.1,0.1-0.3,0.3-0.4,0.4v0.5H-418z"/>
  <path class="grey" d="M-432.9,211.4c0.8,0.9,1.5,1.6,2,2.3c0.7,0.9,1.7,1.5,2.3,1.3c0.7-0.2,1.2-1.4,1.3-3.3c0.1-3.5-0.2-6.3-1-8.2
    l1.6-0.7c0.9,2.2,1.3,5.1,1.2,9c-0.1,2.1-0.6,3.3-1.2,4c2.9,2.5,6.5,3.8,10.3,3.8s7.3-1.3,10.2-3.6c-0.7-0.7-1.2-1.9-1.4-4.1
    c-0.2-3.8,0.2-6.8,1.2-9l1.6,0.7c-0.8,1.9-1.2,4.8-1,8.2c0.1,1.8,0.6,3,1.2,3.3c0.6,0.2,1.5-0.3,2.3-1.3l0.4-0.5
    c0.7-0.8,1.6-1.8,2.6-2.9c0.6-0.6,0.9-1,0.8-1.4c0-0.4-0.4-1.2-2-2.7c-2.1-1.8-2.6-3.5-3.1-4.9c-0.3-0.8-0.5-1.5-1-2
    c-0.3-0.3-0.7-0.3-1.4-0.2c-0.5,0-1.1,0.1-1.7-0.1c-0.9-0.3-1.6-0.6-2.4-1c-1.5-0.8-3.3-1.7-6.5-1.7s-4.8,0.9-6.4,1.7
    c-0.8,0.4-1.6,0.8-2.5,1.1c-0.6,0.2-1.3,0.2-1.9,0.1c-0.7-0.1-1-0.1-1.3,0.2c-0.5,0.5-0.7,1.1-1,1.9c-0.5,1.4-1.1,3.2-3.2,5
    c-1.6,1.4-1.9,2.2-2,2.6c0,0.4,0.3,0.8,0.8,1.4C-433.6,210.7-433.3,211.1-432.9,211.4z M-411.7,202.7c1,0,2,0.5,2.5,1.4l-1.4,1
    c-0.2-0.4-0.7-0.6-1.1-0.6c-0.3,0-0.6,0.1-0.9,0.3l-1-1.4C-413,203-412.4,202.7-411.7,202.7z M-417.6,206.7h1.8
    c0.8,0,2.1,0,2.1,1.7c0,1.3-0.9,2.8-3,2.8c-2.2,0-3-1.7-3-2.8C-419.7,206.9-418.7,206.7-417.6,206.7z M-421.7,202.7
    c0.7,0,1.3,0.2,1.9,0.7l-1,1.4c-0.3-0.2-0.6-0.3-0.9-0.3c-0.4,0-0.8,0.2-1.1,0.6l-1.4-1C-423.7,203.3-422.7,202.7-421.7,202.7z
     M-422.9,211.6c0,0,0.3,2.4,1.9,2.4c1,0,1.5-0.5,2.1-1.2c0.6-0.6,1.2-1.2,2.2-1.2s1.6,0.6,2.1,1.2c0.6,0.6,1.1,1.2,2.2,1.2
    c1.7,0,1.9-2.3,1.9-2.4l1.7,0.2c-0.1,1.4-1.1,4-3.7,4c-0.5,0-0.9-0.1-1.3-0.2c-0.3,1.4-1.5,2.4-3,2.4s-2.7-1-3-2.4
    c-0.4,0.1-0.8,0.2-1.3,0.2c-2.5,0-3.5-2.6-3.7-4L-422.9,211.6z"/>
  <path class="white" d="M-434.2,212.6c0.8,0.8,1.4,1.5,1.9,2.1c1.1,1.4,2.6,2.1,3.9,1.9c3.2,3,7.4,4.6,11.8,4.6
    c4.5,0,8.6-1.6,11.9-4.6c0.1,0,0.1,0,0.2,0c1.1,0,2.4-0.7,3.4-1.9l0.4-0.5c0.7-0.8,1.5-1.7,2.6-2.8c0.7-0.7,1.4-1.5,1.3-2.7
    c0-1.2-0.8-2.4-2.6-3.9c-1.7-1.5-2.2-2.9-2.6-4.2c-0.3-1-0.6-1.9-1.4-2.7c-0.8-0.8-1.9-0.8-2.7-0.7c-0.4,0-0.8,0.1-1.1,0
    c-0.7-0.2-1.3-0.5-2-0.9c-1.6-0.9-3.7-1.9-7.3-1.9l0,0c-3.6,0-5.6,1.1-7.2,1.9c-0.8,0.4-1.4,0.7-2.2,1c-0.3,0.1-0.8,0.1-1.2,0
    c-0.8-0.1-1.8-0.1-2.6,0.7c-0.7,0.7-1,1.6-1.4,2.6c-0.4,1.3-0.9,2.7-2.7,4.3c-1.7,1.5-2.5,2.7-2.5,3.8c-0.1,1.2,0.6,2,1.3,2.7
    C-434.9,211.9-434.5,212.2-434.2,212.6z M-432.8,206.3c2.1-1.8,2.7-3.6,3.2-5c0.3-0.8,0.5-1.5,1-1.9c0.2-0.2,0.6-0.2,1.3-0.2
    c0.6,0,1.2,0.1,1.9-0.1c0.9-0.3,1.7-0.7,2.5-1.1c1.6-0.8,3.2-1.7,6.4-1.7c3.2,0,4.9,0.9,6.5,1.7c0.8,0.4,1.5,0.8,2.4,1
    c0.6,0.1,1.2,0.1,1.7,0.1c0.7,0,1.1-0.1,1.4,0.2c0.5,0.5,0.7,1.1,1,2c0.5,1.4,1.1,3.1,3.1,4.9c1.6,1.4,2,2.2,2,2.7
    c0,0.4-0.2,0.7-0.8,1.4c-1.1,1.1-2,2.1-2.6,2.9l-0.4,0.5c-0.8,0.9-1.7,1.5-2.3,1.3c-0.7-0.2-1.1-1.4-1.2-3.3
    c-0.1-3.5,0.2-6.3,1-8.2l-1.6-0.7c-0.9,2.2-1.3,5.2-1.2,9c0.1,2.2,0.7,3.4,1.4,4.1c-2.8,2.4-6.4,3.6-10.2,3.6
    c-3.8,0-7.4-1.4-10.3-3.8c0.6-0.7,1.1-1.9,1.2-4c0.1-3.8-0.2-6.8-1.2-9l-1.6,0.7c0.8,1.9,1.2,4.7,1,8.2c-0.1,1.8-0.6,3.1-1.3,3.3
    c-0.6,0.2-1.5-0.3-2.3-1.3c-0.5-0.7-1.2-1.4-2-2.3c-0.3-0.3-0.7-0.7-1-1.1c-0.6-0.6-0.8-1-0.8-1.4
    C-434.8,208.4-434.4,207.6-432.8,206.3z"/>
  <path class="white" d="M-421,215.8c0.5,0,0.9-0.1,1.3-0.2c0.3,1.4,1.5,2.4,3,2.4s2.7-1,3-2.4c0.4,0.1,0.8,0.2,1.3,0.2
    c2.6,0,3.5-2.6,3.7-4l-1.7-0.2c0,0.1-0.3,2.4-1.9,2.4c-1.1,0-1.6-0.5-2.2-1.2c-0.5-0.6-1.1-1.2-2.1-1.2s-1.6,0.6-2.2,1.2
    s-1.1,1.2-2.1,1.2c-1.6,0-1.9-2.4-1.9-2.4l-1.7,0.2C-424.5,213.2-423.5,215.8-421,215.8z M-417.6,214.1c0.4-0.4,0.7-0.7,0.9-0.7
    c0.2,0,0.5,0.3,0.9,0.7c0.1,0.2,0.3,0.3,0.5,0.5v0.4c0,0.7-0.6,1.3-1.3,1.3s-1.3-0.6-1.3-1.3v-0.4
    C-417.9,214.3-417.7,214.2-417.6,214.1z"/>
  <path class="white" d="M-416.7,211.2c2,0,3-1.4,3-2.8c0-1.7-1.3-1.7-2.1-1.7h-1.8c-1.1,0-2.1,0.2-2.1,1.7
    C-419.7,209.5-418.9,211.2-416.7,211.2z M-417.6,208.5h1.8c0.1,0,0.2,0,0.3,0c0,0.5-0.3,1-1.2,1c-1,0-1.2-0.7-1.2-1
    C-417.8,208.5-417.7,208.5-417.6,208.5z"/>
  <path class="white" d="M-421.7,204.5c0.3,0,0.6,0.1,0.9,0.3l1-1.4c-0.6-0.4-1.3-0.7-1.9-0.7c-1,0-2,0.5-2.5,1.4l1.4,1
    C-422.5,204.7-422.1,204.5-421.7,204.5z"/>
  <path class="white" d="M-411.7,204.5c0.4,0,0.8,0.2,1.1,0.6l1.4-1c-0.6-0.9-1.5-1.4-2.5-1.4c-0.7,0-1.3,0.2-1.9,0.7l1,1.4
    C-412.3,204.6-412,204.5-411.7,204.5z"/>
  <path id="call_button" class="grey" d="M-455.1,322.4h77.1v-49h-77.1V322.4z M-424.3,302.6l3.5-0.6l1.2,4c0.3,0.8-0.9,2-0.9,2
    c0.6,2.3,3.5,5.2,5.8,5.8c0,0,1.1-1.2,2-0.9l4,1.2l-0.6,3.5C-417.4,318.2-424.9,310.7-424.3,302.6z"/>
  <path class="white" d="M-409.3,317.6l0.6-3.5l-4-1.2c-0.9-0.3-2,0.9-2,0.9c-2.3-0.6-5.2-3.5-5.8-5.8c0,0,1.2-1.2,0.9-2l-1.2-4
    l-3.5,0.6C-424.9,310.7-417.4,318.2-409.3,317.6z"/>
  <text id="spot" transform="matrix(1 0 0 1 -435.4675 260.0456)" class="grey st5 st6">Spot</text>
  <text transform="matrix(1 0 0 1 -442.8298 287.0471)" class="white st7 st8">Call Humane</text>
  <text transform="matrix(1 0 0 1 -431.3298 296.0471)" class="white st7 st8">Society</text>
</g>
<g id="meter_content" class="phone_content">
  <path class="white" d="M-370,330.3h-93.1V168.6h93.1V330.3z"/>
  <rect id="pay_button" x="-458.6" y="277.9" class="grey" width="84.4" height="29.9"/>
  <text transform="matrix(1 0 0 1 -433.3754 299.6322)" class="white st9 st10">PAY</text>
  <g>
    <text transform="matrix(1 0 0 1 -448.7793 229.5209)" class="grey st9 st11">00:00</text>
  </g>
  <polygon id="add_time" class="grey" points="-405.3,202.2 -416.4,193.3 -427.4,202.2 -430.9,197.8 -416.4,186.1 -401.8,197.8  "/>
  <polygon class="grey" points="-416.4,257.1 -430.9,245.4 -427.4,241 -416.4,249.9 -405.3,241 -401.8,245.4   "/>
</g>
<g>
  <path class="white" d="M-416.4,343c-2.5,0-4.6,2.1-4.6,4.6s2.1,4.6,4.6,4.6s4.6-2.1,4.6-4.6S-413.9,343-416.4,343z"/>
  <path class="grey" d="M-416.4,337.4c-5.6,0-10.2,4.6-10.2,10.2c0,5.6,4.6,10.2,10.2,10.2s10.2-4.6,10.2-10.2
    S-410.8,337.4-416.4,337.4z M-416.4,352.2c-2.5,0-4.6-2.1-4.6-4.6s2.1-4.6,4.6-4.6s4.6,2.1,4.6,4.6S-413.9,352.2-416.4,352.2z"/>
</g>
<path class="grey" d="M-468.7,335.9h104.3V163h-104.3V335.9z M-463.1,168.6h93.1v161.7h-93.1V168.6z"/>
<path class="white" d="M-368.2,147.7h-96.7c-4.7,0-8.6,3.9-8.6,8.6v194.5c0,4.7,3.9,8.6,8.6,8.6h96.7c2.3,0,4.5-0.9,6.1-2.6
  c1.6-1.6,2.5-3.8,2.5-6.1V156.3C-359.6,151.6-363.5,147.7-368.2,147.7z M-416.4,357.8c-5.6,0-10.2-4.6-10.2-10.2
  s4.6-10.2,10.2-10.2s10.2,4.6,10.2,10.2C-406.2,353.2-410.8,357.8-416.4,357.8z M-364.4,335.9h-104.3V163h104.3L-364.4,335.9
  L-364.4,335.9z"/>
<path class="grey" d="M-368.2,142.1h-96.7c-7.8,0-14.2,6.4-14.2,14.2v194.5c0,7.8,6.4,14.2,14.2,14.2h96.7c3.8,0,7.4-1.5,10.1-4.3
  c2.7-2.7,4.1-6.3,4.1-10V156.3C-354,148.5-360.4,142.1-368.2,142.1z M-359.6,350.7c0,2.3-0.8,4.4-2.5,6.1c-1.6,1.7-3.8,2.6-6.1,2.6
  h-96.7c-4.7,0-8.6-3.9-8.6-8.6V156.3c0-4.7,3.9-8.6,8.6-8.6h96.7c4.7,0,8.6,3.9,8.6,8.6L-359.6,350.7L-359.6,350.7z"/>
</svg>
