<?xml version="1.0" encoding="utf-8"?>
<!-- Generator: Adobe Illustrator 19.1.0, SVG Export Plug-In . SVG Version: 6.00 Build 0)  -->
<svg version="1.1" id="Layer_1" xmlns="http://www.w3.org/2000/svg" xmlns:xlink="http://www.w3.org/1999/xlink" x="0px" y="0px"
	 viewBox="0 0 256 256" style="enable-background:new 0 0 256 256;" xml:space="preserve">
<style type="text/css">
	.st0{fill:#FFFFFF;stroke:#999999;stroke-width:5.6273;stroke-miterlimit:10;}
	.st1{fill:#999999;}
	.st2{fill:none;stroke:#FFFFFF;stroke-width:1.7386;stroke-miterlimit:10;}
	.st3{font-family:'OpenSans-Extrabold';}
	.st4{font-size:17.8389px;}
	.st5{fill:#FFFFFF;}
	.st6{font-family:'OpenSans-Bold';}
	.st7{font-size:8.7452px;}
</style>
<g>
	<path class="st0" d="M181.9,246.8H74.1c-6.3,0-11.4-5.1-11.4-11.4V20.7c0-6.3,5.1-11.4,11.4-11.4h107.9c6.3,0,11.4,5.1,11.4,11.4
		v214.7C193.4,241.6,188.2,246.8,181.9,246.8z"/>
	<rect x="74" y="32.1" class="st0" width="107.9" height="182.9"/>
	<circle class="st1" cx="128" cy="77.2" r="31.2"/>
	<path class="st2" d="M139.9,72.9c-1.2,2.9-1.3,6.6-1.2,9.4c0.3,5.9,3.7,5.1,5.5,2.7c0.7-0.9,1.8-2.2,3.2-3.6
		c1.4-1.4,2.2-2.8-1.3-5.8s-2.8-5.9-4.4-7.6c-1-1-2.5-0.2-3.8-0.6c-2.7-0.8-4.5-3.1-9.9-3.1c-0.1,0,0.1,0,0,0c-0.1,0,0.1,0,0,0
		c-5.4,0-7.3,2.3-9.9,3.1c-1.3,0.4-2.9-0.4-3.8,0.6c-1.7,1.7-1,4.5-4.4,7.6s-2.6,4.4-1.3,5.8c1.4,1.4,2.5,2.7,3.2,3.6
		c1.9,2.4,5.2,3.2,5.5-2.7c0.2-2.8,0-6.5-1.2-9.4"/>
	<path class="st2" d="M135.8,82.3c0,0-0.3,3.6-3,3.6s-3.2-2.6-4.8-2.6s-2.1,2.6-4.8,2.6s-3-3.6-3-3.6"/>
	<path class="st2" d="M125.6,85v0.9c0,1.3,1.1,2.4,2.4,2.4s2.4-1.1,2.4-2.4V85"/>
	<path class="st2" d="M128,77.8h1c1.1,0,1.3,0.1,1.3,0.8s-0.4,2.1-2.2,2.1c-1.8,0-2.2-1.4-2.2-2.1s0.1-0.8,1.3-0.8H128z"/>
	<g>
		<path class="st2" d="M120.6,74.5c0.4-0.6,1.1-1.1,2-1.1c0.6,0,1.1,0.2,1.5,0.6"/>
		<path class="st2" d="M135.4,74.5c-0.4-0.6-1.1-1.1-2-1.1c-0.6,0-1.1,0.2-1.5,0.6"/>
	</g>
	<text transform="matrix(1 0 0 1 107.3293 135.1345)" class="st1 st3 st4">Spot</text>
	<path class="st2" d="M140.8,86.4c-3.3,3.3-7.9,5.4-13,5.4c-4.9,0-9.4-1.9-12.7-5.1"/>
	<rect x="85.8" y="149.7" class="st1" width="84.3" height="53.5"/>
	<text transform="matrix(1 0 0 1 99.1931 164.6501)"><tspan x="0" y="0" class="st5 st6 st7">Call Humane</tspan><tspan x="12.5" y="9.8" class="st5 st6 st7">Society</tspan></text>
	<circle class="st0" cx="128" cy="230.9" r="8.1"/>
	<path class="st5" d="M119.5,181.6c-0.6,8.8,7.6,17,16.4,16.4l0.6-3.8l-4.4-1.3c-1-0.3-2.2,1-2.2,1c-2.5-0.6-5.7-3.8-6.3-6.3
		c0,0,1.3-1.3,1-2.2l-1.3-4.4L119.5,181.6z"/>
</g>
</svg>
