<?xml version="1.0" encoding="utf-8"?>
<!-- Generator: Adobe Illustrator 19.1.0, SVG Export Plug-In . SVG Version: 6.00 Build 0)  -->
<svg version="1.1" id="Layer_1" xmlns="http://www.w3.org/2000/svg" xmlns:xlink="http://www.w3.org/1999/xlink" x="0px" y="0px"
	 viewBox="0 0 256 256" style="enable-background:new 0 0 256 256;" xml:space="preserve">
<style type="text/css">
	.st0{fill:#FFFFFF;stroke:#999999;stroke-width:5.6312;stroke-miterlimit:10;}
	.st1{fill:#999999;}
	.st2{fill:#FFFFFF;}
	.st3{font-family:'OpenSans-Extrabold';}
	.st4{font-size:16.8388px;}
	.st5{font-size:24.635px;}
</style>
<g>
	<path class="st0" d="M182,246.9H74c-6.3,0-11.5-5.2-11.5-11.5v-215c0-6.3,5.2-11.5,11.5-11.5h108c6.3,0,11.5,5.2,11.5,11.5v215
		C193.5,241.8,188.3,246.9,182,246.9z"/>
	<rect x="74" y="31.9" class="st0" width="108" height="183.1"/>
	<rect x="85.8" y="152.4" class="st1" width="84.4" height="29.9"/>
	<text transform="matrix(1 0 0 1 110.9746 174.1179)" class="st2 st3 st4">PAY</text>
	<circle class="st0" cx="128.2" cy="231" r="8.1"/>
	<g>
		<text transform="matrix(1 0 0 1 95.5707 104.0066)" class="st1 st3 st5">00:00</text>
	</g>
	<polyline class="st0" points="115.2,74.5 128,64.2 140.8,74.5 	"/>
	<polyline class="st0" points="115.2,117.7 128,128 140.8,117.7 	"/>
</g>
</svg>
