<svg version="1.1" xmlns="http://www.w3.org/2000/svg" xmlns:xlink="http://www.w3.org/1999/xlink" x="0px" y="0px"
   viewBox="-78.7 246 267.4 267.4" style="enable-background:new -78.7 246 267.4 267.4;" xml:space="preserve">
<g id="circles">
  <path d="M55,513.4c-73.7,0-133.7-60-133.7-133.7S-18.7,246,55,246s133.7,60,133.7,133.7S128.7,513.4,55,513.4z
     M55,251.7c-70.6,0-128.1,57.4-128.1,128S-15.6,507.8,55,507.8s128.1-57.4,128.1-128C183.1,309.1,125.6,251.7,55,251.7z"/>
  <path d="M55,483.4c-57.2,0-103.7-46.5-103.7-103.7C-48.7,322.5-2.2,276,55,276s103.7,46.5,103.7,103.7
    S112.2,483.4,55,483.4z M55,281.7c-54.1,0-98.1,44-98.1,98c0,54.1,44,98.1,98.1,98.1s98.1-44,98.1-98
    C153.1,325.7,109.1,281.7,55,281.7z"/>
  <path d="M55,453.5c-40.6,0-73.7-33.1-73.7-73.7S14.4,306,55,306s73.7,33.1,73.7,73.7S95.6,453.5,55,453.5z M55,311.7
    c-37.5,0-68.1,30.5-68.1,68.1c0,37.5,30.5,68.1,68.1,68.1s68.1-30.5,68.1-68.1S92.5,311.7,55,311.7z"/>
</g>
<g class="signal">
  <rect x="-4.8" y="326.6" class="white" style="stroke-width: 3px;" width="119.6" height="106.2"/>
  <path d="M53.9,410l-9.4-9.4c-0.7-0.7-0.7-1.7,0-2.4l9.4-9.4c0.7-0.7,1.7-0.7,2.4,0l9.4,9.4c0.7,0.7,0.7,1.7,0,2.4
    l-9.4,9.4C55.7,410.7,54.6,410.7,53.9,410z"/>
  <path d="M45.8,390.1l2.3-2.3c-2.6-2.1-4.3-5.2-4.3-8.8c0-6.2,5-11.3,11.3-11.3c3,0,5.8,1.2,8,3.3c2.1,2.1,3.3,5,3.3,8
    c0,3.5-1.6,6.7-4.2,8.7l2.3,2.3c3.1-2.6,5.1-6.6,5.1-11c0-3.9-1.5-7.5-4.2-10.2c-2.7-2.7-6.3-4.2-10.2-4.2
    c-8,0-14.4,6.5-14.4,14.4C40.6,383.5,42.6,387.4,45.8,390.1z"/>
  <path d="M40.1,395.8l2.3-2.3c-0.3-0.3-0.6-0.6-1-0.9c-3.6-3.6-5.7-8.5-5.7-13.7c0-10.7,8.7-19.3,19.3-19.3
    c5.2,0,10,2,13.7,5.7c3.6,3.6,5.7,8.5,5.7,13.7c0,5.7-2.5,10.9-6.5,14.5l2.3,2.3c4.6-4.1,7.4-10.1,7.4-16.7c0-6-2.3-11.7-6.6-15.9
    c-4.2-4.2-9.9-6.6-15.9-6.6c-12.4,0-22.5,10.1-22.5,22.5c0,6,2.3,11.7,6.6,15.9C39.4,395.2,39.7,395.5,40.1,395.8z"/>
</g>
</svg>
