<?xml version="1.0" encoding="utf-8"?>
<!-- Generator: Adobe Illustrator 19.1.0, SVG Export Plug-In . SVG Version: 6.00 Build 0)  -->
<svg version="1.1" id="Layer_1" xmlns="http://www.w3.org/2000/svg" xmlns:xlink="http://www.w3.org/1999/xlink" x="0px" y="0px"
	 viewBox="0 0 256 256" style="enable-background:new 0 0 256 256;" xml:space="preserve">
<style type="text/css">
	.st0{fill:#FFFFFF;stroke:#999999;stroke-width:5.6273;stroke-miterlimit:10;}
	.st1{fill-rule:evenodd;clip-rule:evenodd;fill:#999999;}
	.st2{clip-path:url(#SVGID_2_);fill:none;stroke:#999999;stroke-width:5.6273;stroke-miterlimit:10;}
	.st3{fill:#1871E8;}
	.st4{fill:#999999;}
	.st5{fill:#FFFFFF;}
	.st6{fill:none;stroke:#FFFFFF;stroke-width:5.6273;stroke-miterlimit:10;}
	.st7{fill:none;stroke:#999999;stroke-width:5.6273;stroke-miterlimit:10;}
</style>
<g>
	<path class="st0" d="M77.1,165.3H19.8c-6.3,0-11.4-5.1-11.4-11.4v-44.2c0-6.3,5.1-11.4,11.4-11.4h57.3c6.3,0,11.4,5.1,11.4,11.4
		v44.2C88.5,160.1,83.4,165.3,77.1,165.3z"/>
	<path class="st0" d="M77.1,153.8H19.8c-6.3,0-11.4-5.1-11.4-11.4v-32.8c0-6.3,5.1-11.4,11.4-11.4h57.3c6.3,0,11.4,5.1,11.4,11.4
		v32.8C88.5,148.7,83.4,153.8,77.1,153.8z"/>
	<path class="st1" d="M58.1,133.3l-7.4-7.4l7.4-7.4l-10.9-10.7v14.6l-6.2-6.2l-2.2,2.2l7.5,7.5l-7.6,7.6l2.2,2.2l6.2-6.2v14.7
		L58.1,133.3L58.1,133.3z M50,114.7l3.8,3.9l-3.8,3.8V114.7L50,114.7z M50,129.3l3.8,3.9l-3.8,3.8V129.3L50,129.3z"/>
	<g>
		<defs>
			<polygon id="SVGID_1_" points="91.4,128 184.9,183.5 184.9,72.5 			"/>
		</defs>
		<clipPath id="SVGID_2_">
			<use xlink:href="#SVGID_1_"  style="overflow:visible;"/>
		</clipPath>
		<path class="st2" d="M91.4,212.7c-46.7,0-84.7-38-84.7-84.7s38-84.7,84.7-84.7s84.7,38,84.7,84.7S138.1,212.7,91.4,212.7z"/>
		<path class="st2" d="M91.4,199.3c-39.3,0-71.3-32-71.3-71.3c0-39.3,32-71.3,71.3-71.3c39.3,0,71.3,32,71.3,71.3
			C162.7,167.3,130.7,199.3,91.4,199.3z"/>
		<path class="st2" d="M91.4,185.9c-31.9,0-57.9-26-57.9-57.9c0-31.9,26-57.9,57.9-57.9c31.9,0,57.9,26,57.9,57.9
			C149.3,159.9,123.4,185.9,91.4,185.9z"/>
		<path class="st2" d="M91.4,172.5C66.9,172.5,47,152.5,47,128s19.9-44.5,44.5-44.5s44.5,19.9,44.5,44.5S116,172.5,91.4,172.5z"/>
		<path class="st2" d="M91.4,159c-17.1,0-31-13.9-31-31s13.9-31,31-31s31,13.9,31,31S108.6,159,91.4,159z"/>
		<circle class="st2" cx="91.4" cy="128" r="17.6"/>
	</g>
	<path class="st0" d="M239.9,178.8h-39c-4.3,0-7.8-3.5-7.8-7.8V87.6c0-4.3,3.5-7.8,7.8-7.8h39c4.3,0,7.8,3.5,7.8,7.8V171
		C247.7,175.3,244.2,178.8,239.9,178.8z"/>
	<g>
		<path class="st3" d="M220.1,105.5l-1.6-1.6c-0.2-0.2-0.2-0.5,0-0.7l1.6-1.6c0.2-0.2,0.5-0.2,0.7,0l1.6,1.6c0.2,0.2,0.2,0.5,0,0.7
			l-1.6,1.6C220.6,105.7,220.3,105.7,220.1,105.5z"/>
		<path class="st3" d="M218.7,101.8l0.4-0.4c-0.5-0.4-0.8-1-0.8-1.7c0-1.2,1-2.1,2.1-2.1c0.6,0,1.1,0.2,1.5,0.6
			c0.4,0.4,0.6,0.9,0.6,1.5c0,0.7-0.3,1.3-0.8,1.6l0.4,0.4c0.6-0.5,1-1.2,1-2.1c0-0.7-0.3-1.4-0.8-1.9c-0.5-0.5-1.2-0.8-1.9-0.8
			c-1.5,0-2.7,1.2-2.7,2.7C217.7,100.6,218.1,101.3,218.7,101.8z"/>
		<path class="st3" d="M217.6,102.9l0.4-0.4c-0.1-0.1-0.1-0.1-0.2-0.2c-0.7-0.7-1.1-1.6-1.1-2.6c0-2,1.6-3.6,3.6-3.6
			c1,0,1.9,0.4,2.6,1.1c0.7,0.7,1.1,1.6,1.1,2.6c0,1.1-0.5,2.1-1.2,2.7l0.4,0.4c0.9-0.8,1.4-1.9,1.4-3.2c0-1.1-0.4-2.2-1.2-3
			c-0.8-0.8-1.9-1.2-3-1.2c-2.3,0-4.2,1.9-4.2,4.2c0,1.1,0.4,2.2,1.2,3C217.5,102.8,217.5,102.9,217.6,102.9z"/>
	</g>
	<rect x="199.5" y="109.3" class="st4" width="41.2" height="13.6"/>
	<rect x="199.5" y="136.5" class="st4" width="41.2" height="13.6"/>
	<circle class="st5" cx="207.5" cy="116.1" r="1.9"/>
	<line class="st6" x1="212" y1="116.1" x2="235.2" y2="116.1"/>
	<circle class="st5" cx="207.5" cy="143.3" r="1.9"/>
	<line class="st6" x1="212" y1="143.3" x2="235.2" y2="143.3"/>
	<circle class="st4" cx="207.5" cy="129.7" r="1.9"/>
	<line class="st0" x1="212" y1="129.7" x2="235.2" y2="129.7"/>
	<circle class="st4" cx="207.5" cy="156.9" r="1.9"/>
	<line class="st0" x1="212" y1="156.9" x2="235.2" y2="156.9"/>
	<rect x="199.2" y="89.3" class="st7" width="42.5" height="76.2"/>
</g>
</svg>
