<?xml version="1.0" standalone="no"?>
<!DOCTYPE svg PUBLIC "-//W3C//DTD SVG 20010904//EN"
 "http://www.w3.org/TR/2001/REC-SVG-20010904/DTD/svg10.dtd">
<svg version="1.0" xmlns="http://www.w3.org/2000/svg"
 width="260.000000pt" height="260.000000pt" viewBox="0 0 260.000000 260.000000"
 preserveAspectRatio="xMidYMid meet">
<metadata>
Created by potrace 1.11, written by Peter Selinger 2001-2013
</metadata>
<g transform="translate(0.000000,260.000000) scale(0.100000,-0.100000)"
fill="#000000" stroke="none">
<path d="M1085 2580 c-286 -60 -526 -222 -692 -467 -53 -78 -131 -256 -147
-334 -23 -114 -28 -158 -30 -249 -3 -229 63 -445 195 -635 49 -70 152 -185
166 -185 4 0 31 23 60 52 l52 51 -65 70 c-109 115 -185 251 -226 407 -18 69
-22 111 -21 220 0 74 2 146 5 160 76 368 325 644 670 740 455 128 935 -111
1112 -554 15 -38 29 -76 31 -85 2 -9 9 -38 15 -66 17 -70 22 -245 10 -324 -29
-185 -118 -366 -249 -504 l-55 -58 55 -55 55 -55 59 60 c313 321 389 826 186
1231 -150 299 -418 506 -753 579 -109 25 -317 25 -433 1z"/>
<path d="M1185 2204 c-166 -39 -260 -86 -366 -186 -91 -86 -149 -183 -190
-318 -32 -105 -31 -265 0 -370 39 -128 112 -248 195 -322 l31 -27 54 54 54 54
-57 61 c-100 109 -141 217 -141 375 0 81 5 113 24 165 67 182 217 315 402 356
54 12 166 11 223 -3 409 -95 564 -586 281 -892 l-54 -58 53 -52 c62 -61 62
-61 139 28 58 67 131 213 147 296 32 158 15 305 -53 455 -27 60 -116 177 -167
220 -85 71 -207 135 -297 156 -35 8 -251 14 -278 8z"/>
<path d="M1270 1063 c-8 -3 -124 -115 -257 -249 -229 -228 -243 -245 -243
-279 0 -35 14 -51 249 -286 236 -236 251 -249 286 -249 35 0 50 13 287 251
249 249 250 251 246 287 -5 33 -33 65 -234 265 -125 126 -239 237 -252 248
-24 19 -52 23 -82 12z"/>
</g>
</svg>
